<?xml version="1.0" encoding="UTF-8" standalone="no"?>
<!DOCTYPE svg PUBLIC "-//W3C//DTD SVG 1.1//EN"
 "http://www.w3.org/Graphics/SVG/1.1/DTD/svg11.dtd">
<!-- Generated by graphviz version 14.1.2 (0)
 -->
<!-- Title: structure Pages: 1 -->
<svg width="1291pt" height="548pt"
 viewBox="0.00 0.00 1291.00 548.00" xmlns="http://www.w3.org/2000/svg" xmlns:xlink="http://www.w3.org/1999/xlink">
<g id="graph0" class="graph" transform="scale(1 1) rotate(0) translate(4 544)">
<title>structure</title>
<polygon fill="white" stroke="none" points="-4,4 -4,-544 1287.12,-544 1287.12,4 -4,4"/>
<!-- AbGroup -->
<g id="node1" class="node">
<title>AbGroup</title>
<g id="a_node1"><a xlink:href="coqdoc/Riktig.Interface.AbGroup.html#AbGroup" xlink:title="AbGroup">
<path fill="none" stroke="black" d="M396.38,-396C396.38,-396 343.62,-396 343.62,-396 337.62,-396 331.62,-390 331.62,-384 331.62,-384 331.62,-372 331.62,-372 331.62,-366 337.62,-360 343.62,-360 343.62,-360 396.38,-360 396.38,-360 402.38,-360 408.38,-366 408.38,-372 408.38,-372 408.38,-384 408.38,-384 408.38,-390 402.38,-396 396.38,-396"/>
<text xml:space="preserve" text-anchor="middle" x="370" y="-373.32" font-family="Helvetica,sans-Serif" font-size="14.00">AbGroup</text>
</a>
</g>
</g>
<!-- Group -->
<g id="node10" class="node">
<title>Group</title>
<g id="a_node10"><a xlink:href="coqdoc/Riktig.Interface.Group.html#Group" xlink:title="Group">
<path fill="none" stroke="black" d="M387,-468C387,-468 353,-468 353,-468 347,-468 341,-462 341,-456 341,-456 341,-444 341,-444 341,-438 347,-432 353,-432 353,-432 387,-432 387,-432 393,-432 399,-438 399,-444 399,-444 399,-456 399,-456 399,-462 393,-468 387,-468"/>
<text xml:space="preserve" text-anchor="middle" x="370" y="-445.32" font-family="Helvetica,sans-Serif" font-size="14.00">Group</text>
</a>
</g>
</g>
<!-- AbGroup&#45;&gt;Group -->
<g id="edge1" class="edge">
<title>AbGroup&#45;&gt;Group</title>
<path fill="none" stroke="black" d="M370,-396.3C370,-403.59 370,-412.27 370,-420.46"/>
<polygon fill="black" stroke="black" points="366.5,-420.38 370,-430.38 373.5,-420.38 366.5,-420.38"/>
</g>
<!-- Alternative -->
<g id="node2" class="node">
<title>Alternative</title>
<g id="a_node2"><a xlink:href="coqdoc/Riktig.Interface.Alternative.html#Alternative" xlink:title="Alternative">
<path fill="none" stroke="black" d="M746.5,-36C746.5,-36 679.5,-36 679.5,-36 673.5,-36 667.5,-30 667.5,-24 667.5,-24 667.5,-12 667.5,-12 667.5,-6 673.5,0 679.5,0 679.5,0 746.5,0 746.5,0 752.5,0 758.5,-6 758.5,-12 758.5,-12 758.5,-24 758.5,-24 758.5,-30 752.5,-36 746.5,-36"/>
<text xml:space="preserve" text-anchor="middle" x="713" y="-13.32" font-family="Helvetica,sans-Serif" font-size="14.00">Alternative</text>
</a>
</g>
</g>
<!-- CCC -->
<g id="node3" class="node">
<title>CCC</title>
<g id="a_node3"><a xlink:href="coqdoc/Riktig.Interface.Category.html#CCC" xlink:title="CCC">
<path fill="none" stroke="black" d="M819,-36C819,-36 789,-36 789,-36 783,-36 777,-30 777,-24 777,-24 777,-12 777,-12 777,-6 783,0 789,0 789,0 819,0 819,0 825,0 831,-6 831,-12 831,-12 831,-24 831,-24 831,-30 825,-36 819,-36"/>
<text xml:space="preserve" text-anchor="middle" x="804" y="-13.32" font-family="Helvetica,sans-Serif" font-size="14.00">CCC</text>
</a>
</g>
</g>
<!-- Category -->
<g id="node4" class="node">
<title>Category</title>
<g id="a_node4"><a xlink:href="coqdoc/Riktig.Interface.Category.html#Category" xlink:title="Category">
<path fill="none" stroke="black" d="M983.5,-252C983.5,-252 928.5,-252 928.5,-252 922.5,-252 916.5,-246 916.5,-240 916.5,-240 916.5,-228 916.5,-228 916.5,-222 922.5,-216 928.5,-216 928.5,-216 983.5,-216 983.5,-216 989.5,-216 995.5,-222 995.5,-228 995.5,-228 995.5,-240 995.5,-240 995.5,-246 989.5,-252 983.5,-252"/>
<text xml:space="preserve" text-anchor="middle" x="956" y="-229.32" font-family="Helvetica,sans-Serif" font-size="14.00">Category</text>
</a>
</g>
</g>
<!-- CCC&#45;&gt;Category -->
<g id="edge2" class="edge">
<title>CCC&#45;&gt;Category</title>
<path fill="none" stroke="black" d="M776.64,-32.48C747.47,-46.99 705.14,-68.46 703,-72 694.72,-85.69 696.78,-93.26 703,-108 736.17,-186.55 841.18,-216.07 905.02,-226.92"/>
<polygon fill="black" stroke="black" points="904.12,-230.32 914.55,-228.44 905.23,-223.41 904.12,-230.32"/>
</g>
<!-- HasExponentials -->
<g id="node12" class="node">
<title>HasExponentials</title>
<g id="a_node12"><a xlink:href="coqdoc/Riktig.Interface.Category.html#HasExponentials" xlink:title="HasExponentials">
<path fill="none" stroke="black" d="M831.75,-108C831.75,-108 724.25,-108 724.25,-108 718.25,-108 712.25,-102 712.25,-96 712.25,-96 712.25,-84 712.25,-84 712.25,-78 718.25,-72 724.25,-72 724.25,-72 831.75,-72 831.75,-72 837.75,-72 843.75,-78 843.75,-84 843.75,-84 843.75,-96 843.75,-96 843.75,-102 837.75,-108 831.75,-108"/>
<text xml:space="preserve" text-anchor="middle" x="778" y="-85.33" font-family="Helvetica,sans-Serif" font-size="14.00">HasExponentials</text>
</a>
</g>
</g>
<!-- CCC&#45;&gt;HasExponentials -->
<g id="edge3" class="edge">
<title>CCC&#45;&gt;HasExponentials</title>
<path fill="none" stroke="black" d="M797.57,-36.3C794.77,-43.85 791.42,-52.88 788.28,-61.32"/>
<polygon fill="black" stroke="black" points="785.08,-59.88 784.88,-70.48 791.64,-62.32 785.08,-59.88"/>
</g>
<!-- HasProducts -->
<g id="node13" class="node">
<title>HasProducts</title>
<g id="a_node13"><a xlink:href="coqdoc/Riktig.Interface.Category.html#HasProducts" xlink:title="HasProducts">
<path fill="none" stroke="black" d="M897.12,-180C897.12,-180 818.88,-180 818.88,-180 812.88,-180 806.88,-174 806.88,-168 806.88,-168 806.88,-156 806.88,-156 806.88,-150 812.88,-144 818.88,-144 818.88,-144 897.12,-144 897.12,-144 903.12,-144 909.12,-150 909.12,-156 909.12,-156 909.12,-168 909.12,-168 909.12,-174 903.12,-180 897.12,-180"/>
<text xml:space="preserve" text-anchor="middle" x="858" y="-157.32" font-family="Helvetica,sans-Serif" font-size="14.00">HasProducts</text>
</a>
</g>
</g>
<!-- CCC&#45;&gt;HasProducts -->
<g id="edge4" class="edge">
<title>CCC&#45;&gt;HasProducts</title>
<path fill="none" stroke="black" d="M826.08,-36.5C836.18,-45.85 847.18,-58.27 853,-72 861.09,-91.08 862.09,-114.54 861.2,-132.59"/>
<polygon fill="black" stroke="black" points="857.72,-132.09 860.48,-142.32 864.7,-132.61 857.72,-132.09"/>
</g>
<!-- Terminal -->
<g id="node26" class="node">
<title>Terminal</title>
<g id="a_node26"><a xlink:href="coqdoc/Riktig.Interface.Category.html#Terminal" xlink:title="Terminal">
<path fill="none" stroke="black" d="M961.88,-108C961.88,-108 912.12,-108 912.12,-108 906.12,-108 900.12,-102 900.12,-96 900.12,-96 900.12,-84 900.12,-84 900.12,-78 906.12,-72 912.12,-72 912.12,-72 961.88,-72 961.88,-72 967.88,-72 973.88,-78 973.88,-84 973.88,-84 973.88,-96 973.88,-96 973.88,-102 967.88,-108 961.88,-108"/>
<text xml:space="preserve" text-anchor="middle" x="937" y="-85.33" font-family="Helvetica,sans-Serif" font-size="14.00">Terminal</text>
</a>
</g>
</g>
<!-- CCC&#45;&gt;Terminal -->
<g id="edge5" class="edge">
<title>CCC&#45;&gt;Terminal</title>
<path fill="none" stroke="black" d="M831.24,-33.33C849.31,-42.85 873.41,-55.53 894.04,-66.39"/>
<polygon fill="black" stroke="black" points="892.34,-69.45 902.82,-71.01 895.6,-63.25 892.34,-69.45"/>
</g>
<!-- DecTotalOrder -->
<g id="node5" class="node">
<title>DecTotalOrder</title>
<g id="a_node5"><a xlink:href="coqdoc/Riktig.Interface.DecTotalOrder.html#DecTotalOrder" xlink:title="DecTotalOrder">
<path fill="none" stroke="black" d="M950.75,-36C950.75,-36 861.25,-36 861.25,-36 855.25,-36 849.25,-30 849.25,-24 849.25,-24 849.25,-12 849.25,-12 849.25,-6 855.25,0 861.25,0 861.25,0 950.75,0 950.75,0 956.75,0 962.75,-6 962.75,-12 962.75,-12 962.75,-24 962.75,-24 962.75,-30 956.75,-36 950.75,-36"/>
<text xml:space="preserve" text-anchor="middle" x="906" y="-13.32" font-family="Helvetica,sans-Serif" font-size="14.00">DecTotalOrder</text>
</a>
</g>
</g>
<!-- Exp -->
<g id="node6" class="node">
<title>Exp</title>
<g id="a_node6"><a xlink:href="coqdoc/Riktig.Interface.Exp.html#Exp" xlink:title="Exp">
<path fill="none" stroke="black" d="M42,-108C42,-108 12,-108 12,-108 6,-108 0,-102 0,-96 0,-96 0,-84 0,-84 0,-78 6,-72 12,-72 12,-72 42,-72 42,-72 48,-72 54,-78 54,-84 54,-84 54,-96 54,-96 54,-102 48,-108 42,-108"/>
<text xml:space="preserve" text-anchor="middle" x="27" y="-85.33" font-family="Helvetica,sans-Serif" font-size="14.00">Exp</text>
</a>
</g>
</g>
<!-- OrderedField -->
<g id="node21" class="node">
<title>OrderedField</title>
<g id="a_node21"><a xlink:href="coqdoc/Riktig.Interface.Order.html#OrderedField" xlink:title="OrderedField">
<path fill="none" stroke="black" d="M189.88,-180C189.88,-180 110.12,-180 110.12,-180 104.12,-180 98.12,-174 98.12,-168 98.12,-168 98.12,-156 98.12,-156 98.12,-150 104.12,-144 110.12,-144 110.12,-144 189.88,-144 189.88,-144 195.88,-144 201.88,-150 201.88,-156 201.88,-156 201.88,-168 201.88,-168 201.88,-174 195.88,-180 189.88,-180"/>
<text xml:space="preserve" text-anchor="middle" x="150" y="-157.32" font-family="Helvetica,sans-Serif" font-size="14.00">OrderedField</text>
</a>
</g>
</g>
<!-- Exp&#45;&gt;OrderedField -->
<g id="edge6" class="edge">
<title>Exp&#45;&gt;OrderedField</title>
<path fill="none" stroke="black" d="M54.3,-106.54C70.47,-115.74 91.26,-127.57 109.33,-137.85"/>
<polygon fill="black" stroke="black" points="107.58,-140.89 118,-142.79 111.04,-134.8 107.58,-140.89"/>
</g>
<!-- Field -->
<g id="node7" class="node">
<title>Field</title>
<g id="a_node7"><a xlink:href="coqdoc/Riktig.Interface.Field.html#Field" xlink:title="Field">
<path fill="none" stroke="black" d="M283,-252C283,-252 253,-252 253,-252 247,-252 241,-246 241,-240 241,-240 241,-228 241,-228 241,-222 247,-216 253,-216 253,-216 283,-216 283,-216 289,-216 295,-222 295,-228 295,-228 295,-240 295,-240 295,-246 289,-252 283,-252"/>
<text xml:space="preserve" text-anchor="middle" x="268" y="-229.32" font-family="Helvetica,sans-Serif" font-size="14.00">Field</text>
</a>
</g>
</g>
<!-- Ring -->
<g id="node24" class="node">
<title>Ring</title>
<g id="a_node24"><a xlink:href="coqdoc/Riktig.Interface.Ring.html#Ring" xlink:title="Ring">
<path fill="none" stroke="black" d="M413,-324C413,-324 383,-324 383,-324 377,-324 371,-318 371,-312 371,-312 371,-300 371,-300 371,-294 377,-288 383,-288 383,-288 413,-288 413,-288 419,-288 425,-294 425,-300 425,-300 425,-312 425,-312 425,-318 419,-324 413,-324"/>
<text xml:space="preserve" text-anchor="middle" x="398" y="-301.32" font-family="Helvetica,sans-Serif" font-size="14.00">Ring</text>
</a>
</g>
</g>
<!-- Field&#45;&gt;Ring -->
<g id="edge7" class="edge">
<title>Field&#45;&gt;Ring</title>
<path fill="none" stroke="black" d="M295.25,-249.67C314.23,-259.89 339.78,-273.65 360.66,-284.89"/>
<polygon fill="black" stroke="black" points="358.99,-287.97 369.45,-289.63 362.31,-281.8 358.99,-287.97"/>
</g>
<!-- Functor -->
<g id="node8" class="node">
<title>Functor</title>
<g id="a_node8"><a xlink:href="coqdoc/Riktig.Interface.Category.html#Functor" xlink:title="Functor">
<path fill="none" stroke="black" d="M1059.25,-180C1059.25,-180 1014.75,-180 1014.75,-180 1008.75,-180 1002.75,-174 1002.75,-168 1002.75,-168 1002.75,-156 1002.75,-156 1002.75,-150 1008.75,-144 1014.75,-144 1014.75,-144 1059.25,-144 1059.25,-144 1065.25,-144 1071.25,-150 1071.25,-156 1071.25,-156 1071.25,-168 1071.25,-168 1071.25,-174 1065.25,-180 1059.25,-180"/>
<text xml:space="preserve" text-anchor="middle" x="1037" y="-157.32" font-family="Helvetica,sans-Serif" font-size="14.00">Functor</text>
</a>
</g>
</g>
<!-- Functor&#45;&gt;Category -->
<g id="edge8" class="edge">
<title>Functor&#45;&gt;Category</title>
<path fill="none" stroke="black" d="M1016.98,-180.3C1007.24,-188.72 995.36,-198.98 984.69,-208.21"/>
<polygon fill="black" stroke="black" points="982.5,-205.48 977.22,-214.66 987.07,-210.77 982.5,-205.48"/>
</g>
<!-- GeometricAlgebra -->
<g id="node9" class="node">
<title>GeometricAlgebra</title>
<g id="a_node9"><a xlink:href="coqdoc/Riktig.Interface.GeometricAlgebra.html#GeometricAlgebra" xlink:title="GeometricAlgebra">
<path fill="none" stroke="black" d="M637.62,-36C637.62,-36 520.38,-36 520.38,-36 514.38,-36 508.38,-30 508.38,-24 508.38,-24 508.38,-12 508.38,-12 508.38,-6 514.38,0 520.38,0 520.38,0 637.62,0 637.62,0 643.62,0 649.62,-6 649.62,-12 649.62,-12 649.62,-24 649.62,-24 649.62,-30 643.62,-36 637.62,-36"/>
<text xml:space="preserve" text-anchor="middle" x="579" y="-13.32" font-family="Helvetica,sans-Serif" font-size="14.00">GeometricAlgebra</text>
</a>
</g>
</g>
<!-- InnerProduct -->
<g id="node15" class="node">
<title>InnerProduct</title>
<g id="a_node15"><a xlink:href="coqdoc/Riktig.Interface.InnerProduct.html#InnerProduct" xlink:title="InnerProduct">
<path fill="none" stroke="black" d="M579.62,-108C579.62,-108 498.38,-108 498.38,-108 492.38,-108 486.38,-102 486.38,-96 486.38,-96 486.38,-84 486.38,-84 486.38,-78 492.38,-72 498.38,-72 498.38,-72 579.62,-72 579.62,-72 585.62,-72 591.62,-78 591.62,-84 591.62,-84 591.62,-96 591.62,-96 591.62,-102 585.62,-108 579.62,-108"/>
<text xml:space="preserve" text-anchor="middle" x="539" y="-85.33" font-family="Helvetica,sans-Serif" font-size="14.00">InnerProduct</text>
</a>
</g>
</g>
<!-- GeometricAlgebra&#45;&gt;InnerProduct -->
<g id="edge9" class="edge">
<title>GeometricAlgebra&#45;&gt;InnerProduct</title>
<path fill="none" stroke="black" d="M569.11,-36.3C564.66,-44.1 559.29,-53.49 554.33,-62.17"/>
<polygon fill="black" stroke="black" points="551.45,-60.16 549.52,-70.58 557.53,-63.64 551.45,-60.16"/>
</g>
<!-- GeometricAlgebra&#45;&gt;Ring -->
<g id="edge10" class="edge">
<title>GeometricAlgebra&#45;&gt;Ring</title>
<path fill="none" stroke="black" d="M589.6,-36.24C599.42,-54.56 611.11,-84.11 601,-108 567.26,-187.76 483.67,-251.12 434.93,-282.82"/>
<polygon fill="black" stroke="black" points="433.2,-279.77 426.65,-288.1 436.96,-285.67 433.2,-279.77"/>
</g>
<!-- Monoid -->
<g id="node18" class="node">
<title>Monoid</title>
<g id="a_node18"><a xlink:href="coqdoc/Riktig.Interface.Monoid.html#Monoid" xlink:title="Monoid">
<path fill="none" stroke="black" d="M391.12,-540C391.12,-540 348.88,-540 348.88,-540 342.88,-540 336.88,-534 336.88,-528 336.88,-528 336.88,-516 336.88,-516 336.88,-510 342.88,-504 348.88,-504 348.88,-504 391.12,-504 391.12,-504 397.12,-504 403.12,-510 403.12,-516 403.12,-516 403.12,-528 403.12,-528 403.12,-534 397.12,-540 391.12,-540"/>
<text xml:space="preserve" text-anchor="middle" x="370" y="-517.33" font-family="Helvetica,sans-Serif" font-size="14.00">Monoid</text>
</a>
</g>
</g>
<!-- Group&#45;&gt;Monoid -->
<g id="edge11" class="edge">
<title>Group&#45;&gt;Monoid</title>
<path fill="none" stroke="black" d="M370,-468.3C370,-475.59 370,-484.27 370,-492.46"/>
<polygon fill="black" stroke="black" points="366.5,-492.38 370,-502.38 373.5,-492.38 366.5,-492.38"/>
</g>
<!-- HasCoproducts -->
<g id="node11" class="node">
<title>HasCoproducts</title>
<g id="a_node11"><a xlink:href="coqdoc/Riktig.Interface.Category.html#HasCoproducts" xlink:title="HasCoproducts">
<path fill="none" stroke="black" d="M1198.5,-180C1198.5,-180 1101.5,-180 1101.5,-180 1095.5,-180 1089.5,-174 1089.5,-168 1089.5,-168 1089.5,-156 1089.5,-156 1089.5,-150 1095.5,-144 1101.5,-144 1101.5,-144 1198.5,-144 1198.5,-144 1204.5,-144 1210.5,-150 1210.5,-156 1210.5,-156 1210.5,-168 1210.5,-168 1210.5,-174 1204.5,-180 1198.5,-180"/>
<text xml:space="preserve" text-anchor="middle" x="1150" y="-157.32" font-family="Helvetica,sans-Serif" font-size="14.00">HasCoproducts</text>
</a>
</g>
</g>
<!-- HasCoproducts&#45;&gt;Category -->
<g id="edge12" class="edge">
<title>HasCoproducts&#45;&gt;Category</title>
<path fill="none" stroke="black" d="M1101.55,-180.48C1072.46,-190.98 1035.53,-204.31 1006.14,-214.91"/>
<polygon fill="black" stroke="black" points="1005.33,-211.48 997.11,-218.17 1007.71,-218.06 1005.33,-211.48"/>
</g>
<!-- HasExponentials&#45;&gt;Category -->
<g id="edge13" class="edge">
<title>HasExponentials&#45;&gt;Category</title>
<path fill="none" stroke="black" d="M777.15,-108.32C777.13,-128.09 780.18,-160.25 798,-180 825.2,-210.14 870.05,-223.16 905.03,-228.78"/>
<polygon fill="black" stroke="black" points="904.11,-232.18 914.5,-230.14 905.1,-225.25 904.11,-232.18"/>
</g>
<!-- HasExponentials&#45;&gt;HasProducts -->
<g id="edge14" class="edge">
<title>HasExponentials&#45;&gt;HasProducts</title>
<path fill="none" stroke="black" d="M797.78,-108.3C807.39,-116.72 819.12,-126.98 829.67,-136.21"/>
<polygon fill="black" stroke="black" points="827.21,-138.71 837.04,-142.66 831.81,-133.44 827.21,-138.71"/>
</g>
<!-- HasProducts&#45;&gt;Category -->
<g id="edge15" class="edge">
<title>HasProducts&#45;&gt;Category</title>
<path fill="none" stroke="black" d="M882.48,-180.48C894.61,-189.15 909.45,-199.75 922.61,-209.15"/>
<polygon fill="black" stroke="black" points="920.43,-211.9 930.6,-214.86 924.5,-206.2 920.43,-211.9"/>
</g>
<!-- Initial -->
<g id="node14" class="node">
<title>Initial</title>
<g id="a_node14"><a xlink:href="coqdoc/Riktig.Interface.Category.html#Initial" xlink:title="Initial">
<path fill="none" stroke="black" d="M1271.12,-180C1271.12,-180 1240.88,-180 1240.88,-180 1234.88,-180 1228.88,-174 1228.88,-168 1228.88,-168 1228.88,-156 1228.88,-156 1228.88,-150 1234.88,-144 1240.88,-144 1240.88,-144 1271.12,-144 1271.12,-144 1277.12,-144 1283.12,-150 1283.12,-156 1283.12,-156 1283.12,-168 1283.12,-168 1283.12,-174 1277.12,-180 1271.12,-180"/>
<text xml:space="preserve" text-anchor="middle" x="1256" y="-157.32" font-family="Helvetica,sans-Serif" font-size="14.00">Initial</text>
</a>
</g>
</g>
<!-- Initial&#45;&gt;Category -->
<g id="edge16" class="edge">
<title>Initial&#45;&gt;Category</title>
<path fill="none" stroke="black" d="M1228.76,-176.7C1225.85,-177.92 1222.89,-179.04 1220,-180 1147.85,-203.88 1060.87,-218.81 1006.99,-226.52"/>
<polygon fill="black" stroke="black" points="1006.6,-223.04 997.19,-227.89 1007.57,-229.97 1006.6,-223.04"/>
</g>
<!-- VectorSpace -->
<g id="node27" class="node">
<title>VectorSpace</title>
<g id="a_node27"><a xlink:href="coqdoc/Riktig.Interface.VectorSpace.html#VectorSpace" xlink:title="VectorSpace">
<path fill="none" stroke="black" d="M381.75,-180C381.75,-180 304.25,-180 304.25,-180 298.25,-180 292.25,-174 292.25,-168 292.25,-168 292.25,-156 292.25,-156 292.25,-150 298.25,-144 304.25,-144 304.25,-144 381.75,-144 381.75,-144 387.75,-144 393.75,-150 393.75,-156 393.75,-156 393.75,-168 393.75,-168 393.75,-174 387.75,-180 381.75,-180"/>
<text xml:space="preserve" text-anchor="middle" x="343" y="-157.32" font-family="Helvetica,sans-Serif" font-size="14.00">VectorSpace</text>
</a>
</g>
</g>
<!-- InnerProduct&#45;&gt;VectorSpace -->
<g id="edge17" class="edge">
<title>InnerProduct&#45;&gt;VectorSpace</title>
<path fill="none" stroke="black" d="M490.05,-108.48C463.4,-118 430.24,-129.84 402.16,-139.87"/>
<polygon fill="black" stroke="black" points="401.33,-136.45 393.09,-143.11 403.69,-143.04 401.33,-136.45"/>
</g>
<!-- Integral -->
<g id="node16" class="node">
<title>Integral</title>
<g id="a_node16"><a xlink:href="coqdoc/Riktig.Interface.Integral.html#Integral" xlink:title="Integral">
<path fill="none" stroke="black" d="M189,-36C189,-36 143,-36 143,-36 137,-36 131,-30 131,-24 131,-24 131,-12 131,-12 131,-6 137,0 143,0 143,0 189,0 189,0 195,0 201,-6 201,-12 201,-12 201,-24 201,-24 201,-30 195,-36 189,-36"/>
<text xml:space="preserve" text-anchor="middle" x="166" y="-13.32" font-family="Helvetica,sans-Serif" font-size="14.00">Integral</text>
</a>
</g>
</g>
<!-- NormedSpace -->
<g id="node20" class="node">
<title>NormedSpace</title>
<g id="a_node20"><a xlink:href="coqdoc/Riktig.Interface.Norm.html#NormedSpace" xlink:title="NormedSpace">
<path fill="none" stroke="black" d="M210.38,-108C210.38,-108 121.62,-108 121.62,-108 115.62,-108 109.62,-102 109.62,-96 109.62,-96 109.62,-84 109.62,-84 109.62,-78 115.62,-72 121.62,-72 121.62,-72 210.38,-72 210.38,-72 216.38,-72 222.38,-78 222.38,-84 222.38,-84 222.38,-96 222.38,-96 222.38,-102 216.38,-108 210.38,-108"/>
<text xml:space="preserve" text-anchor="middle" x="166" y="-85.33" font-family="Helvetica,sans-Serif" font-size="14.00">NormedSpace</text>
</a>
</g>
</g>
<!-- Integral&#45;&gt;NormedSpace -->
<g id="edge18" class="edge">
<title>Integral&#45;&gt;NormedSpace</title>
<path fill="none" stroke="black" d="M166,-36.3C166,-43.59 166,-52.27 166,-60.46"/>
<polygon fill="black" stroke="black" points="162.5,-60.38 166,-70.38 169.5,-60.38 162.5,-60.38"/>
</g>
<!-- Integral&#45;&gt;OrderedField -->
<g id="edge19" class="edge">
<title>Integral&#45;&gt;OrderedField</title>
<path fill="none" stroke="black" d="M134.08,-36.46C121.31,-45.28 108,-57.27 101,-72 94.14,-86.45 95.17,-93.1 101,-108 104.99,-118.2 111.97,-127.61 119.43,-135.58"/>
<polygon fill="black" stroke="black" points="116.94,-138.04 126.51,-142.58 121.85,-133.06 116.94,-138.04"/>
</g>
<!-- Integral&#45;&gt;VectorSpace -->
<g id="edge20" class="edge">
<title>Integral&#45;&gt;VectorSpace</title>
<path fill="none" stroke="black" d="M187.7,-36.41C218.97,-61.5 276.84,-107.92 312.42,-136.47"/>
<polygon fill="black" stroke="black" points="310.23,-139.19 320.22,-142.72 314.61,-133.73 310.23,-139.19"/>
</g>
<!-- Monad -->
<g id="node17" class="node">
<title>Monad</title>
<g id="a_node17"><a xlink:href="coqdoc/Riktig.Interface.Monad.html#Monad" xlink:title="Monad">
<path fill="none" stroke="black" d="M1031.25,-36C1031.25,-36 992.75,-36 992.75,-36 986.75,-36 980.75,-30 980.75,-24 980.75,-24 980.75,-12 980.75,-12 980.75,-6 986.75,0 992.75,0 992.75,0 1031.25,0 1031.25,0 1037.25,0 1043.25,-6 1043.25,-12 1043.25,-12 1043.25,-24 1043.25,-24 1043.25,-30 1037.25,-36 1031.25,-36"/>
<text xml:space="preserve" text-anchor="middle" x="1012" y="-13.32" font-family="Helvetica,sans-Serif" font-size="14.00">Monad</text>
</a>
</g>
</g>
<!-- NaturalTransformation -->
<g id="node19" class="node">
<title>NaturalTransformation</title>
<g id="a_node19"><a xlink:href="coqdoc/Riktig.Interface.Category.html#NaturalTransformation" xlink:title="NaturalTransformation">
<path fill="none" stroke="black" d="M1151.62,-108C1151.62,-108 1004.38,-108 1004.38,-108 998.38,-108 992.38,-102 992.38,-96 992.38,-96 992.38,-84 992.38,-84 992.38,-78 998.38,-72 1004.38,-72 1004.38,-72 1151.62,-72 1151.62,-72 1157.62,-72 1163.62,-78 1163.62,-84 1163.62,-84 1163.62,-96 1163.62,-96 1163.62,-102 1157.62,-108 1151.62,-108"/>
<text xml:space="preserve" text-anchor="middle" x="1078" y="-85.33" font-family="Helvetica,sans-Serif" font-size="14.00">NaturalTransformation</text>
</a>
</g>
</g>
<!-- NaturalTransformation&#45;&gt;Category -->
<g id="edge21" class="edge">
<title>NaturalTransformation&#45;&gt;Category</title>
<path fill="none" stroke="black" d="M1040.06,-108.49C1024.17,-117.32 1006.53,-129.3 994,-144 979.02,-161.58 969.17,-185.94 963.26,-204.73"/>
<polygon fill="black" stroke="black" points="959.95,-203.57 960.51,-214.15 966.67,-205.54 959.95,-203.57"/>
</g>
<!-- NaturalTransformation&#45;&gt;Functor -->
<g id="edge22" class="edge">
<title>NaturalTransformation&#45;&gt;Functor</title>
<path fill="none" stroke="black" d="M1067.87,-108.3C1063.3,-116.1 1057.8,-125.49 1052.71,-134.17"/>
<polygon fill="black" stroke="black" points="1049.82,-132.19 1047.78,-142.59 1055.86,-135.73 1049.82,-132.19"/>
</g>
<!-- NormedSpace&#45;&gt;OrderedField -->
<g id="edge23" class="edge">
<title>NormedSpace&#45;&gt;OrderedField</title>
<path fill="none" stroke="black" d="M162.04,-108.3C160.36,-115.68 158.35,-124.48 156.46,-132.75"/>
<polygon fill="black" stroke="black" points="153.06,-131.89 154.25,-142.42 159.89,-133.45 153.06,-131.89"/>
</g>
<!-- NormedSpace&#45;&gt;VectorSpace -->
<g id="edge24" class="edge">
<title>NormedSpace&#45;&gt;VectorSpace</title>
<path fill="none" stroke="black" d="M210.21,-108.48C233.95,-117.87 263.42,-129.53 288.57,-139.47"/>
<polygon fill="black" stroke="black" points="287.06,-142.64 297.64,-143.06 289.63,-136.13 287.06,-142.64"/>
</g>
<!-- OrderedField&#45;&gt;Field -->
<g id="edge25" class="edge">
<title>OrderedField&#45;&gt;Field</title>
<path fill="none" stroke="black" d="M179.47,-180.48C194.96,-189.67 214.11,-201.03 230.63,-210.83"/>
<polygon fill="black" stroke="black" points="228.83,-213.84 239.22,-215.93 232.4,-207.81 228.83,-213.84"/>
</g>
<!-- PosInner -->
<g id="node22" class="node">
<title>PosInner</title>
<g id="a_node22"><a xlink:href="coqdoc/Riktig.Interface.PosInner.html#PosInner" xlink:title="PosInner">
<path fill="none" stroke="black" d="M352.38,-36C352.38,-36 299.62,-36 299.62,-36 293.62,-36 287.62,-30 287.62,-24 287.62,-24 287.62,-12 287.62,-12 287.62,-6 293.62,0 299.62,0 299.62,0 352.38,0 352.38,0 358.38,0 364.38,-6 364.38,-12 364.38,-12 364.38,-24 364.38,-24 364.38,-30 358.38,-36 352.38,-36"/>
<text xml:space="preserve" text-anchor="middle" x="326" y="-13.32" font-family="Helvetica,sans-Serif" font-size="14.00">PosInner</text>
</a>
</g>
</g>
<!-- PosInner&#45;&gt;InnerProduct -->
<g id="edge26" class="edge">
<title>PosInner&#45;&gt;InnerProduct</title>
<path fill="none" stroke="black" d="M364.57,-31.68C395.32,-41.78 439.03,-56.15 475,-67.97"/>
<polygon fill="black" stroke="black" points="473.86,-71.28 484.46,-71.07 476.05,-64.63 473.86,-71.28"/>
</g>
<!-- PosInner&#45;&gt;OrderedField -->
<g id="edge27" class="edge">
<title>PosInner&#45;&gt;OrderedField</title>
<path fill="none" stroke="black" d="M309.3,-36.35C290.93,-55.01 260.14,-85.1 231,-108 217.82,-118.36 202.6,-128.7 188.95,-137.45"/>
<polygon fill="black" stroke="black" points="187.2,-134.42 180.61,-142.72 190.93,-140.34 187.2,-134.42"/>
</g>
<!-- PosInner&#45;&gt;VectorSpace -->
<g id="edge28" class="edge">
<title>PosInner&#45;&gt;VectorSpace</title>
<path fill="none" stroke="black" d="M328.08,-36.41C330.95,-60.39 336.16,-103.86 339.6,-132.58"/>
<polygon fill="black" stroke="black" points="336.11,-132.87 340.77,-142.39 343.06,-132.04 336.11,-132.87"/>
</g>
<!-- Reals -->
<g id="node23" class="node">
<title>Reals</title>
<g id="a_node23"><a xlink:href="coqdoc/Riktig.Interface.Reals.html#Reals" xlink:title="Reals">
<path fill="none" stroke="black" d="M262,-180C262,-180 232,-180 232,-180 226,-180 220,-174 220,-168 220,-168 220,-156 220,-156 220,-150 226,-144 232,-144 232,-144 262,-144 262,-144 268,-144 274,-150 274,-156 274,-156 274,-168 274,-168 274,-174 268,-180 262,-180"/>
<text xml:space="preserve" text-anchor="middle" x="247" y="-157.32" font-family="Helvetica,sans-Serif" font-size="14.00">Reals</text>
</a>
</g>
</g>
<!-- Reals&#45;&gt;Field -->
<g id="edge29" class="edge">
<title>Reals&#45;&gt;Field</title>
<path fill="none" stroke="black" d="M252.19,-180.3C254.43,-187.76 257.1,-196.68 259.61,-205.03"/>
<polygon fill="black" stroke="black" points="256.21,-205.87 262.43,-214.45 262.91,-203.86 256.21,-205.87"/>
</g>
<!-- Ring&#45;&gt;AbGroup -->
<g id="edge30" class="edge">
<title>Ring&#45;&gt;AbGroup</title>
<path fill="none" stroke="black" d="M391.08,-324.3C388.06,-331.85 384.45,-340.88 381.07,-349.32"/>
<polygon fill="black" stroke="black" points="377.87,-347.91 377.4,-358.49 384.37,-350.51 377.87,-347.91"/>
</g>
<!-- SubspacePred -->
<g id="node25" class="node">
<title>SubspacePred</title>
<g id="a_node25"><a xlink:href="coqdoc/Riktig.Interface.Subspace.html#SubspacePred" xlink:title="SubspacePred">
<path fill="none" stroke="black" d="M456.12,-108C456.12,-108 365.88,-108 365.88,-108 359.88,-108 353.88,-102 353.88,-96 353.88,-96 353.88,-84 353.88,-84 353.88,-78 359.88,-72 365.88,-72 365.88,-72 456.12,-72 456.12,-72 462.12,-72 468.12,-78 468.12,-84 468.12,-84 468.12,-96 468.12,-96 468.12,-102 462.12,-108 456.12,-108"/>
<text xml:space="preserve" text-anchor="middle" x="411" y="-85.33" font-family="Helvetica,sans-Serif" font-size="14.00">SubspacePred</text>
</a>
</g>
</g>
<!-- SubspacePred&#45;&gt;VectorSpace -->
<g id="edge31" class="edge">
<title>SubspacePred&#45;&gt;VectorSpace</title>
<path fill="none" stroke="black" d="M394.19,-108.3C386.12,-116.61 376.3,-126.72 367.42,-135.86"/>
<polygon fill="black" stroke="black" points="365.13,-133.2 360.67,-142.81 370.15,-138.08 365.13,-133.2"/>
</g>
<!-- Terminal&#45;&gt;Category -->
<g id="edge32" class="edge">
<title>Terminal&#45;&gt;Category</title>
<path fill="none" stroke="black" d="M939.33,-108.41C942.54,-132.39 948.35,-175.86 952.2,-204.58"/>
<polygon fill="black" stroke="black" points="948.71,-204.94 953.51,-214.39 955.65,-204.01 948.71,-204.94"/>
</g>
<!-- VectorSpace&#45;&gt;AbGroup -->
<g id="edge33" class="edge">
<title>VectorSpace&#45;&gt;AbGroup</title>
<path fill="none" stroke="black" d="M344.87,-180.42C348.08,-209.97 354.99,-271.84 362,-324 363.07,-331.96 364.33,-340.58 365.53,-348.51"/>
<polygon fill="black" stroke="black" points="362.06,-348.99 367.04,-358.34 368.98,-347.92 362.06,-348.99"/>
</g>
<!-- VectorSpace&#45;&gt;Field -->
<g id="edge34" class="edge">
<title>VectorSpace&#45;&gt;Field</title>
<path fill="none" stroke="black" d="M324.46,-180.3C315.54,-188.63 304.67,-198.78 294.86,-207.93"/>
<polygon fill="black" stroke="black" points="292.61,-205.24 287.69,-214.62 297.39,-210.36 292.61,-205.24"/>
</g>
</g>
</svg>
