<?xml version="1.0" encoding="UTF-8" standalone="no"?>
<!DOCTYPE svg PUBLIC "-//W3C//DTD SVG 1.1//EN"
 "http://www.w3.org/Graphics/SVG/1.1/DTD/svg11.dtd">
<!-- Generated by graphviz version 12.2.1 (0)
 -->
<!-- Title: structure Pages: 1 -->
<svg width="2514pt" height="692pt"
 viewBox="0.00 0.00 2513.50 692.00" xmlns="http://www.w3.org/2000/svg" xmlns:xlink="http://www.w3.org/1999/xlink">
<g id="graph0" class="graph" transform="scale(1 1) rotate(0) translate(4 688)">
<title>structure</title>
<polygon fill="white" stroke="none" points="-4,4 -4,-688 2509.5,-688 2509.5,4 -4,4"/>
<!-- AbGroup -->
<g id="node1" class="node">
<title>AbGroup</title>
<g id="a_node1"><a xlink:href="coqdoc/Riktig.Structure.AbGroup.html#AbGroup.AbGroup" xlink:title="AbGroup">
<path fill="none" stroke="black" d="M586.88,-396C586.88,-396 534.12,-396 534.12,-396 528.12,-396 522.12,-390 522.12,-384 522.12,-384 522.12,-372 522.12,-372 522.12,-366 528.12,-360 534.12,-360 534.12,-360 586.88,-360 586.88,-360 592.88,-360 598.88,-366 598.88,-372 598.88,-372 598.88,-384 598.88,-384 598.88,-390 592.88,-396 586.88,-396"/>
<text text-anchor="middle" x="560.5" y="-373.32" font-family="Helvetica,sans-Serif" font-size="14.00">AbGroup</text>
</a>
</g>
</g>
<!-- Group -->
<g id="node19" class="node">
<title>Group</title>
<g id="a_node19"><a xlink:href="coqdoc/Riktig.Structure.Group.html#Group.Group" xlink:title="Group">
<path fill="none" stroke="black" d="M572.5,-468C572.5,-468 538.5,-468 538.5,-468 532.5,-468 526.5,-462 526.5,-456 526.5,-456 526.5,-444 526.5,-444 526.5,-438 532.5,-432 538.5,-432 538.5,-432 572.5,-432 572.5,-432 578.5,-432 584.5,-438 584.5,-444 584.5,-444 584.5,-456 584.5,-456 584.5,-462 578.5,-468 572.5,-468"/>
<text text-anchor="middle" x="555.5" y="-445.32" font-family="Helvetica,sans-Serif" font-size="14.00">Group</text>
</a>
</g>
</g>
<!-- AbGroup&#45;&gt;Group -->
<g id="edge1" class="edge">
<title>AbGroup&#45;&gt;Group</title>
<path fill="none" stroke="black" d="M559.26,-396.3C558.74,-403.59 558.12,-412.27 557.54,-420.46"/>
<polygon fill="black" stroke="black" points="554.05,-420.16 556.83,-430.39 561.03,-420.66 554.05,-420.16"/>
</g>
<!-- Alternating -->
<g id="node2" class="node">
<title>Alternating</title>
<g id="a_node2"><a xlink:href="coqdoc/Riktig.Structure.Bilinear.html#Alternating.Alternating" xlink:title="Alternating">
<path fill="none" stroke="black" d="M1520.75,-180C1520.75,-180 1452.25,-180 1452.25,-180 1446.25,-180 1440.25,-174 1440.25,-168 1440.25,-168 1440.25,-156 1440.25,-156 1440.25,-150 1446.25,-144 1452.25,-144 1452.25,-144 1520.75,-144 1520.75,-144 1526.75,-144 1532.75,-150 1532.75,-156 1532.75,-156 1532.75,-168 1532.75,-168 1532.75,-174 1526.75,-180 1520.75,-180"/>
<text text-anchor="middle" x="1486.5" y="-157.32" font-family="Helvetica,sans-Serif" font-size="14.00">Alternating</text>
</a>
</g>
</g>
<!-- Field -->
<g id="node14" class="node">
<title>Field</title>
<g id="a_node14"><a xlink:href="coqdoc/Riktig.Structure.Field.html#Field.Field" xlink:title="Field">
<path fill="none" stroke="black" d="M1114.5,-252C1114.5,-252 1084.5,-252 1084.5,-252 1078.5,-252 1072.5,-246 1072.5,-240 1072.5,-240 1072.5,-228 1072.5,-228 1072.5,-222 1078.5,-216 1084.5,-216 1084.5,-216 1114.5,-216 1114.5,-216 1120.5,-216 1126.5,-222 1126.5,-228 1126.5,-228 1126.5,-240 1126.5,-240 1126.5,-246 1120.5,-252 1114.5,-252"/>
<text text-anchor="middle" x="1099.5" y="-229.32" font-family="Helvetica,sans-Serif" font-size="14.00">Field</text>
</a>
</g>
</g>
<!-- Alternating&#45;&gt;Field -->
<g id="edge2" class="edge">
<title>Alternating&#45;&gt;Field</title>
<path fill="none" stroke="black" d="M1439.79,-176.8C1435.32,-177.95 1430.83,-179.04 1426.5,-180 1323.12,-202.94 1199.28,-220.3 1137.9,-228.24"/>
<polygon fill="black" stroke="black" points="1137.81,-224.72 1128.33,-229.46 1138.7,-231.67 1137.81,-224.72"/>
</g>
<!-- VectorSpace -->
<g id="node50" class="node">
<title>VectorSpace</title>
<g id="a_node50"><a xlink:href="coqdoc/Riktig.Structure.VectorSpace.html#VectorSpace.VectorSpace" xlink:title="VectorSpace">
<path fill="none" stroke="black" d="M1248.25,-324C1248.25,-324 1170.75,-324 1170.75,-324 1164.75,-324 1158.75,-318 1158.75,-312 1158.75,-312 1158.75,-300 1158.75,-300 1158.75,-294 1164.75,-288 1170.75,-288 1170.75,-288 1248.25,-288 1248.25,-288 1254.25,-288 1260.25,-294 1260.25,-300 1260.25,-300 1260.25,-312 1260.25,-312 1260.25,-318 1254.25,-324 1248.25,-324"/>
<text text-anchor="middle" x="1209.5" y="-301.32" font-family="Helvetica,sans-Serif" font-size="14.00">VectorSpace</text>
</a>
</g>
</g>
<!-- Alternating&#45;&gt;VectorSpace -->
<g id="edge3" class="edge">
<title>Alternating&#45;&gt;VectorSpace</title>
<path fill="none" stroke="black" d="M1471.97,-180.25C1454.22,-200.27 1422.35,-232.95 1388.5,-252 1352.15,-272.45 1307.12,-285.74 1271.31,-293.89"/>
<polygon fill="black" stroke="black" points="1271.01,-290.37 1261.99,-295.93 1272.51,-297.21 1271.01,-290.37"/>
</g>
<!-- Alternative -->
<g id="node3" class="node">
<title>Alternative</title>
<g id="a_node3"><a xlink:href="coqdoc/Riktig.Structure.Alternative.html#Alternative.Alternative" xlink:title="Alternative">
<path fill="none" stroke="black" d="M1624,-36C1624,-36 1557,-36 1557,-36 1551,-36 1545,-30 1545,-24 1545,-24 1545,-12 1545,-12 1545,-6 1551,0 1557,0 1557,0 1624,0 1624,0 1630,0 1636,-6 1636,-12 1636,-12 1636,-24 1636,-24 1636,-30 1630,-36 1624,-36"/>
<text text-anchor="middle" x="1590.5" y="-13.32" font-family="Helvetica,sans-Serif" font-size="14.00">Alternative</text>
</a>
</g>
</g>
<!-- Basis -->
<g id="node4" class="node">
<title>Basis</title>
<g id="a_node4"><a xlink:href="coqdoc/Riktig.Structure.Basis.html#Basis.Basis" xlink:title="Basis">
<path fill="none" stroke="black" d="M1592.5,-180C1592.5,-180 1562.5,-180 1562.5,-180 1556.5,-180 1550.5,-174 1550.5,-168 1550.5,-168 1550.5,-156 1550.5,-156 1550.5,-150 1556.5,-144 1562.5,-144 1562.5,-144 1592.5,-144 1592.5,-144 1598.5,-144 1604.5,-150 1604.5,-156 1604.5,-156 1604.5,-168 1604.5,-168 1604.5,-174 1598.5,-180 1592.5,-180"/>
<text text-anchor="middle" x="1577.5" y="-157.32" font-family="Helvetica,sans-Serif" font-size="14.00">Basis</text>
</a>
</g>
</g>
<!-- Basis&#45;&gt;Field -->
<g id="edge4" class="edge">
<title>Basis&#45;&gt;Field</title>
<path fill="none" stroke="black" d="M1550.34,-176.94C1547.4,-178.1 1544.42,-179.16 1541.5,-180 1396.5,-221.74 1215.6,-230.64 1137.89,-232.51"/>
<polygon fill="black" stroke="black" points="1138.19,-229.01 1128.27,-232.72 1138.34,-236 1138.19,-229.01"/>
</g>
<!-- FinIndex -->
<g id="node15" class="node">
<title>FinIndex</title>
<g id="a_node15"><a xlink:href="coqdoc/Riktig.Structure.Fin.html#FinIndex.FinIndex" xlink:title="FinIndex">
<path fill="none" stroke="black" d="M1616.75,-252C1616.75,-252 1566.25,-252 1566.25,-252 1560.25,-252 1554.25,-246 1554.25,-240 1554.25,-240 1554.25,-228 1554.25,-228 1554.25,-222 1560.25,-216 1566.25,-216 1566.25,-216 1616.75,-216 1616.75,-216 1622.75,-216 1628.75,-222 1628.75,-228 1628.75,-228 1628.75,-240 1628.75,-240 1628.75,-246 1622.75,-252 1616.75,-252"/>
<text text-anchor="middle" x="1591.5" y="-229.32" font-family="Helvetica,sans-Serif" font-size="14.00">FinIndex</text>
</a>
</g>
</g>
<!-- Basis&#45;&gt;FinIndex -->
<g id="edge5" class="edge">
<title>Basis&#45;&gt;FinIndex</title>
<path fill="none" stroke="black" d="M1580.96,-180.3C1582.44,-187.68 1584.2,-196.48 1585.85,-204.75"/>
<polygon fill="black" stroke="black" points="1582.39,-205.29 1587.78,-214.41 1589.25,-203.92 1582.39,-205.29"/>
</g>
<!-- Basis&#45;&gt;VectorSpace -->
<g id="edge6" class="edge">
<title>Basis&#45;&gt;VectorSpace</title>
<path fill="none" stroke="black" d="M1552.84,-180.48C1523.69,-200.4 1473.11,-232.7 1425.5,-252 1375.46,-272.28 1315.65,-286.22 1271.66,-294.69"/>
<polygon fill="black" stroke="black" points="1271.22,-291.22 1262.04,-296.5 1272.51,-298.1 1271.22,-291.22"/>
</g>
<!-- Bilinear -->
<g id="node5" class="node">
<title>Bilinear</title>
<g id="a_node5"><a xlink:href="coqdoc/Riktig.Structure.Bilinear.html#Bilinear.Bilinear" xlink:title="Bilinear">
<path fill="none" stroke="black" d="M654.75,-180C654.75,-180 610.25,-180 610.25,-180 604.25,-180 598.25,-174 598.25,-168 598.25,-168 598.25,-156 598.25,-156 598.25,-150 604.25,-144 610.25,-144 610.25,-144 654.75,-144 654.75,-144 660.75,-144 666.75,-150 666.75,-156 666.75,-156 666.75,-168 666.75,-168 666.75,-174 660.75,-180 654.75,-180"/>
<text text-anchor="middle" x="632.5" y="-157.32" font-family="Helvetica,sans-Serif" font-size="14.00">Bilinear</text>
</a>
</g>
</g>
<!-- Bilinear&#45;&gt;Field -->
<g id="edge7" class="edge">
<title>Bilinear&#45;&gt;Field</title>
<path fill="none" stroke="black" d="M667.22,-168.2C752.49,-180.99 971.73,-213.85 1060.91,-227.22"/>
<polygon fill="black" stroke="black" points="1060.2,-230.65 1070.61,-228.67 1061.24,-223.73 1060.2,-230.65"/>
</g>
<!-- Linear -->
<g id="node28" class="node">
<title>Linear</title>
<g id="a_node28"><a xlink:href="coqdoc/Riktig.Structure.Linear.html#Linear.Linear" xlink:title="Linear">
<path fill="none" stroke="black" d="M294.88,-324C294.88,-324 260.12,-324 260.12,-324 254.12,-324 248.12,-318 248.12,-312 248.12,-312 248.12,-300 248.12,-300 248.12,-294 254.12,-288 260.12,-288 260.12,-288 294.88,-288 294.88,-288 300.88,-288 306.88,-294 306.88,-300 306.88,-300 306.88,-312 306.88,-312 306.88,-318 300.88,-324 294.88,-324"/>
<text text-anchor="middle" x="277.5" y="-301.32" font-family="Helvetica,sans-Serif" font-size="14.00">Linear</text>
</a>
</g>
</g>
<!-- Bilinear&#45;&gt;Linear -->
<g id="edge8" class="edge">
<title>Bilinear&#45;&gt;Linear</title>
<path fill="none" stroke="black" d="M598,-177.45C595.15,-178.39 592.29,-179.26 589.5,-180 478.84,-209.24 430.82,-154.17 334.5,-216 322.58,-223.65 304.31,-254.43 291.69,-277.67"/>
<polygon fill="black" stroke="black" points="288.66,-275.9 287.04,-286.37 294.84,-279.2 288.66,-275.9"/>
</g>
<!-- Bilinear&#45;&gt;VectorSpace -->
<g id="edge9" class="edge">
<title>Bilinear&#45;&gt;VectorSpace</title>
<path fill="none" stroke="black" d="M667.08,-175.33C671.59,-176.92 676.15,-178.51 680.5,-180 728.35,-196.45 744.33,-191.33 788.5,-216 810.26,-228.15 808.72,-241.88 831.5,-252 886.67,-276.52 1054.79,-292.98 1147.13,-300.44"/>
<polygon fill="black" stroke="black" points="1146.8,-303.92 1157.04,-301.23 1147.35,-296.94 1146.8,-303.92"/>
</g>
<!-- BilinearMap -->
<g id="node6" class="node">
<title>BilinearMap</title>
<g id="a_node6"><a xlink:href="coqdoc/Riktig.Structure.Bilinear.html#BilinearMap.BilinearMap" xlink:title="BilinearMap">
<path fill="none" stroke="black" d="M731.38,-108C731.38,-108 657.62,-108 657.62,-108 651.62,-108 645.62,-102 645.62,-96 645.62,-96 645.62,-84 645.62,-84 645.62,-78 651.62,-72 657.62,-72 657.62,-72 731.38,-72 731.38,-72 737.38,-72 743.38,-78 743.38,-84 743.38,-84 743.38,-96 743.38,-96 743.38,-102 737.38,-108 731.38,-108"/>
<text text-anchor="middle" x="694.5" y="-85.33" font-family="Helvetica,sans-Serif" font-size="14.00">BilinearMap</text>
</a>
</g>
</g>
<!-- BilinearMap&#45;&gt;Bilinear -->
<g id="edge10" class="edge">
<title>BilinearMap&#45;&gt;Bilinear</title>
<path fill="none" stroke="black" d="M679.17,-108.3C671.97,-116.44 663.22,-126.31 655.26,-135.3"/>
<polygon fill="black" stroke="black" points="652.66,-132.96 648.65,-142.76 657.9,-137.6 652.66,-132.96"/>
</g>
<!-- BilinearMap&#45;&gt;Field -->
<g id="edge11" class="edge">
<title>BilinearMap&#45;&gt;Field</title>
<path fill="none" stroke="black" d="M714.66,-108.29C739.51,-128.66 783.83,-162 827.5,-180 906.48,-212.57 1006.76,-225.45 1060.79,-230.29"/>
<polygon fill="black" stroke="black" points="1060.46,-233.78 1070.72,-231.13 1061.05,-226.8 1060.46,-233.78"/>
</g>
<!-- BilinearMap&#45;&gt;VectorSpace -->
<g id="edge12" class="edge">
<title>BilinearMap&#45;&gt;VectorSpace</title>
<path fill="none" stroke="black" d="M703.69,-108.16C714.7,-127.5 734.68,-158.96 758.5,-180 783.55,-202.12 796.68,-197.49 824.5,-216 845.82,-230.19 846.06,-241.68 869.5,-252 960.4,-292.01 1076.62,-302.41 1146.94,-304.78"/>
<polygon fill="black" stroke="black" points="1146.64,-308.27 1156.74,-305.06 1146.84,-301.28 1146.64,-308.27"/>
</g>
<!-- CCC -->
<g id="node7" class="node">
<title>CCC</title>
<g id="a_node7"><a xlink:href="coqdoc/Riktig.Structure.Category.html#CCC.CCC" xlink:title="CCC">
<path fill="none" stroke="black" d="M1992.5,-36C1992.5,-36 1962.5,-36 1962.5,-36 1956.5,-36 1950.5,-30 1950.5,-24 1950.5,-24 1950.5,-12 1950.5,-12 1950.5,-6 1956.5,0 1962.5,0 1962.5,0 1992.5,0 1992.5,0 1998.5,0 2004.5,-6 2004.5,-12 2004.5,-12 2004.5,-24 2004.5,-24 2004.5,-30 1998.5,-36 1992.5,-36"/>
<text text-anchor="middle" x="1977.5" y="-13.32" font-family="Helvetica,sans-Serif" font-size="14.00">CCC</text>
</a>
</g>
</g>
<!-- Category -->
<g id="node8" class="node">
<title>Category</title>
<g id="a_node8"><a xlink:href="coqdoc/Riktig.Structure.Category.html#Category.Category" xlink:title="Category">
<path fill="none" stroke="black" d="M2136,-252C2136,-252 2081,-252 2081,-252 2075,-252 2069,-246 2069,-240 2069,-240 2069,-228 2069,-228 2069,-222 2075,-216 2081,-216 2081,-216 2136,-216 2136,-216 2142,-216 2148,-222 2148,-228 2148,-228 2148,-240 2148,-240 2148,-246 2142,-252 2136,-252"/>
<text text-anchor="middle" x="2108.5" y="-229.32" font-family="Helvetica,sans-Serif" font-size="14.00">Category</text>
</a>
</g>
</g>
<!-- CCC&#45;&gt;Category -->
<g id="edge13" class="edge">
<title>CCC&#45;&gt;Category</title>
<path fill="none" stroke="black" d="M1950.13,-22.25C1921.04,-27.33 1876.4,-40.14 1855.5,-72 1846.73,-85.38 1849.28,-93.26 1855.5,-108 1888.67,-186.55 1993.68,-216.07 2057.52,-226.92"/>
<polygon fill="black" stroke="black" points="2056.62,-230.32 2067.05,-228.44 2057.73,-223.41 2056.62,-230.32"/>
</g>
<!-- HasExponentials -->
<g id="node21" class="node">
<title>HasExponentials</title>
<g id="a_node21"><a xlink:href="coqdoc/Riktig.Structure.Category.html#HasExponentials.HasExponentials" xlink:title="HasExponentials">
<path fill="none" stroke="black" d="M1984.25,-108C1984.25,-108 1876.75,-108 1876.75,-108 1870.75,-108 1864.75,-102 1864.75,-96 1864.75,-96 1864.75,-84 1864.75,-84 1864.75,-78 1870.75,-72 1876.75,-72 1876.75,-72 1984.25,-72 1984.25,-72 1990.25,-72 1996.25,-78 1996.25,-84 1996.25,-84 1996.25,-96 1996.25,-96 1996.25,-102 1990.25,-108 1984.25,-108"/>
<text text-anchor="middle" x="1930.5" y="-85.33" font-family="Helvetica,sans-Serif" font-size="14.00">HasExponentials</text>
</a>
</g>
</g>
<!-- CCC&#45;&gt;HasExponentials -->
<g id="edge14" class="edge">
<title>CCC&#45;&gt;HasExponentials</title>
<path fill="none" stroke="black" d="M1965.88,-36.3C1960.59,-44.19 1954.2,-53.7 1948.32,-62.45"/>
<polygon fill="black" stroke="black" points="1945.5,-60.39 1942.83,-70.64 1951.31,-64.29 1945.5,-60.39"/>
</g>
<!-- HasProducts -->
<g id="node22" class="node">
<title>HasProducts</title>
<g id="a_node22"><a xlink:href="coqdoc/Riktig.Structure.Category.html#HasProducts.HasProducts" xlink:title="HasProducts">
<path fill="none" stroke="black" d="M2049.62,-180C2049.62,-180 1971.38,-180 1971.38,-180 1965.38,-180 1959.38,-174 1959.38,-168 1959.38,-168 1959.38,-156 1959.38,-156 1959.38,-150 1965.38,-144 1971.38,-144 1971.38,-144 2049.62,-144 2049.62,-144 2055.62,-144 2061.62,-150 2061.62,-156 2061.62,-156 2061.62,-168 2061.62,-168 2061.62,-174 2055.62,-180 2049.62,-180"/>
<text text-anchor="middle" x="2010.5" y="-157.32" font-family="Helvetica,sans-Serif" font-size="14.00">HasProducts</text>
</a>
</g>
</g>
<!-- CCC&#45;&gt;HasProducts -->
<g id="edge15" class="edge">
<title>CCC&#45;&gt;HasProducts</title>
<path fill="none" stroke="black" d="M1989.11,-36.35C1995.15,-46.33 2001.99,-59.37 2005.5,-72 2010.95,-91.63 2012.12,-114.6 2011.97,-132.29"/>
<polygon fill="black" stroke="black" points="2008.48,-131.99 2011.73,-142.07 2015.47,-132.16 2008.48,-131.99"/>
</g>
<!-- Terminal -->
<g id="node48" class="node">
<title>Terminal</title>
<g id="a_node48"><a xlink:href="coqdoc/Riktig.Structure.Category.html#Terminal.Terminal" xlink:title="Terminal">
<path fill="none" stroke="black" d="M2114.38,-108C2114.38,-108 2064.62,-108 2064.62,-108 2058.62,-108 2052.62,-102 2052.62,-96 2052.62,-96 2052.62,-84 2052.62,-84 2052.62,-78 2058.62,-72 2064.62,-72 2064.62,-72 2114.38,-72 2114.38,-72 2120.38,-72 2126.38,-78 2126.38,-84 2126.38,-84 2126.38,-96 2126.38,-96 2126.38,-102 2120.38,-108 2114.38,-108"/>
<text text-anchor="middle" x="2089.5" y="-85.33" font-family="Helvetica,sans-Serif" font-size="14.00">Terminal</text>
</a>
</g>
</g>
<!-- CCC&#45;&gt;Terminal -->
<g id="edge16" class="edge">
<title>CCC&#45;&gt;Terminal</title>
<path fill="none" stroke="black" d="M2004.9,-36.12C2019.03,-44.96 2036.48,-55.86 2051.86,-65.47"/>
<polygon fill="black" stroke="black" points="2049.99,-68.43 2060.32,-70.76 2053.7,-62.5 2049.99,-68.43"/>
</g>
<!-- Circular -->
<g id="node9" class="node">
<title>Circular</title>
<g id="a_node9"><a xlink:href="coqdoc/Riktig.Structure.Circular.html#Circular.Circular" xlink:title="Circular">
<path fill="none" stroke="black" d="M262.12,-180C262.12,-180 216.88,-180 216.88,-180 210.88,-180 204.88,-174 204.88,-168 204.88,-168 204.88,-156 204.88,-156 204.88,-150 210.88,-144 216.88,-144 216.88,-144 262.12,-144 262.12,-144 268.12,-144 274.12,-150 274.12,-156 274.12,-156 274.12,-168 274.12,-168 274.12,-174 268.12,-180 262.12,-180"/>
<text text-anchor="middle" x="239.5" y="-157.32" font-family="Helvetica,sans-Serif" font-size="14.00">Circular</text>
</a>
</g>
</g>
<!-- Circular&#45;&gt;Field -->
<g id="edge17" class="edge">
<title>Circular&#45;&gt;Field</title>
<path fill="none" stroke="black" d="M274.56,-171.9C287.65,-174.92 302.68,-178.02 316.5,-180 390.53,-190.62 913.5,-222.01 1060.91,-230.73"/>
<polygon fill="black" stroke="black" points="1060.34,-234.2 1070.53,-231.3 1060.76,-227.21 1060.34,-234.2"/>
</g>
<!-- Circular&#45;&gt;Linear -->
<g id="edge18" class="edge">
<title>Circular&#45;&gt;Linear</title>
<path fill="none" stroke="black" d="M204.46,-167.29C174.91,-172.96 134.35,-186.03 114.5,-216 105.67,-229.34 105.1,-239.05 114.5,-252 142.16,-290.07 197.84,-301.33 236.38,-304.38"/>
<polygon fill="black" stroke="black" points="236.03,-307.86 246.23,-304.99 236.46,-300.88 236.03,-307.86"/>
</g>
<!-- Ring -->
<g id="node43" class="node">
<title>Ring</title>
<g id="a_node43"><a xlink:href="coqdoc/Riktig.Structure.Ring.html#Ring.Ring" xlink:title="Ring">
<path fill="none" stroke="black" d="M542.5,-324C542.5,-324 512.5,-324 512.5,-324 506.5,-324 500.5,-318 500.5,-312 500.5,-312 500.5,-300 500.5,-300 500.5,-294 506.5,-288 512.5,-288 512.5,-288 542.5,-288 542.5,-288 548.5,-288 554.5,-294 554.5,-300 554.5,-300 554.5,-312 554.5,-312 554.5,-318 548.5,-324 542.5,-324"/>
<text text-anchor="middle" x="527.5" y="-301.32" font-family="Helvetica,sans-Serif" font-size="14.00">Ring</text>
</a>
</g>
</g>
<!-- Circular&#45;&gt;Ring -->
<g id="edge19" class="edge">
<title>Circular&#45;&gt;Ring</title>
<path fill="none" stroke="black" d="M253.41,-180.39C270.45,-200.53 301.17,-233.34 334.5,-252 383.76,-279.58 448.22,-293.5 488.76,-299.99"/>
<polygon fill="black" stroke="black" points="488.12,-303.43 498.53,-301.47 489.17,-296.51 488.12,-303.43"/>
</g>
<!-- DecTotalOrder -->
<g id="node10" class="node">
<title>DecTotalOrder</title>
<g id="a_node10"><a xlink:href="coqdoc/Riktig.Structure.DecTotalOrder.html#DecTotalOrder.DecTotalOrder" xlink:title="DecTotalOrder">
<path fill="none" stroke="black" d="M2124.25,-36C2124.25,-36 2034.75,-36 2034.75,-36 2028.75,-36 2022.75,-30 2022.75,-24 2022.75,-24 2022.75,-12 2022.75,-12 2022.75,-6 2028.75,0 2034.75,0 2034.75,0 2124.25,0 2124.25,0 2130.25,0 2136.25,-6 2136.25,-12 2136.25,-12 2136.25,-24 2136.25,-24 2136.25,-30 2130.25,-36 2124.25,-36"/>
<text text-anchor="middle" x="2079.5" y="-13.32" font-family="Helvetica,sans-Serif" font-size="14.00">DecTotalOrder</text>
</a>
</g>
</g>
<!-- Determinant -->
<g id="node11" class="node">
<title>Determinant</title>
<g id="a_node11"><a xlink:href="coqdoc/Riktig.Structure.Determinant.html#Determinant" xlink:title="Determinant">
<path fill="none" stroke="black" d="M1616.62,-108C1616.62,-108 1538.38,-108 1538.38,-108 1532.38,-108 1526.38,-102 1526.38,-96 1526.38,-96 1526.38,-84 1526.38,-84 1526.38,-78 1532.38,-72 1538.38,-72 1538.38,-72 1616.62,-72 1616.62,-72 1622.62,-72 1628.62,-78 1628.62,-84 1628.62,-84 1628.62,-96 1628.62,-96 1628.62,-102 1622.62,-108 1616.62,-108"/>
<text text-anchor="middle" x="1577.5" y="-85.33" font-family="Helvetica,sans-Serif" font-size="14.00">Determinant</text>
</a>
</g>
</g>
<!-- Determinant&#45;&gt;Alternating -->
<g id="edge20" class="edge">
<title>Determinant&#45;&gt;Alternating</title>
<path fill="none" stroke="black" d="M1555.01,-108.3C1543.85,-116.89 1530.19,-127.39 1518.01,-136.76"/>
<polygon fill="black" stroke="black" points="1516.04,-133.86 1510.25,-142.73 1520.31,-139.41 1516.04,-133.86"/>
</g>
<!-- Determinant&#45;&gt;Basis -->
<g id="edge21" class="edge">
<title>Determinant&#45;&gt;Basis</title>
<path fill="none" stroke="black" d="M1577.5,-108.3C1577.5,-115.59 1577.5,-124.27 1577.5,-132.46"/>
<polygon fill="black" stroke="black" points="1574,-132.38 1577.5,-142.38 1581,-132.38 1574,-132.38"/>
</g>
<!-- Determinant&#45;&gt;Field -->
<g id="edge22" class="edge">
<title>Determinant&#45;&gt;Field</title>
<path fill="none" stroke="black" d="M1530.94,-108.38C1479.23,-127.34 1393.07,-157.93 1317.5,-180 1255.21,-198.19 1181.66,-215.15 1137.89,-224.78"/>
<polygon fill="black" stroke="black" points="1137.4,-221.31 1128.38,-226.86 1138.9,-228.14 1137.4,-221.31"/>
</g>
<!-- Determinant&#45;&gt;FinIndex -->
<g id="edge23" class="edge">
<title>Determinant&#45;&gt;FinIndex</title>
<path fill="none" stroke="black" d="M1593.11,-108.23C1600.87,-117.97 1609.45,-130.82 1613.5,-144 1619.75,-164.31 1613.49,-187.65 1606.08,-205.33"/>
<polygon fill="black" stroke="black" points="1602.9,-203.86 1601.92,-214.41 1609.26,-206.77 1602.9,-203.86"/>
</g>
<!-- Determinant&#45;&gt;VectorSpace -->
<g id="edge24" class="edge">
<title>Determinant&#45;&gt;VectorSpace</title>
<path fill="none" stroke="black" d="M1599.8,-108.27C1610.28,-117.66 1621.9,-130.17 1628.5,-144 1649.25,-187.47 1669.4,-215.91 1637.5,-252 1613.68,-278.95 1384.49,-295.3 1271.65,-301.78"/>
<polygon fill="black" stroke="black" points="1271.74,-298.27 1261.96,-302.33 1272.14,-305.26 1271.74,-298.27"/>
</g>
<!-- DualSpace -->
<g id="node12" class="node">
<title>DualSpace</title>
<g id="a_node12"><a xlink:href="coqdoc/Riktig.Structure.DualSpace.html#DualSpace.DualSpace" xlink:title="DualSpace">
<path fill="none" stroke="black" d="M1781.25,-108C1781.25,-108 1715.75,-108 1715.75,-108 1709.75,-108 1703.75,-102 1703.75,-96 1703.75,-96 1703.75,-84 1703.75,-84 1703.75,-78 1709.75,-72 1715.75,-72 1715.75,-72 1781.25,-72 1781.25,-72 1787.25,-72 1793.25,-78 1793.25,-84 1793.25,-84 1793.25,-96 1793.25,-96 1793.25,-102 1787.25,-108 1781.25,-108"/>
<text text-anchor="middle" x="1748.5" y="-85.33" font-family="Helvetica,sans-Serif" font-size="14.00">DualSpace</text>
</a>
</g>
</g>
<!-- Realizes -->
<g id="node41" class="node">
<title>Realizes</title>
<g id="a_node41"><a xlink:href="coqdoc/Riktig.Structure.Realizes.html#Realizes" xlink:title="Realizes">
<path fill="none" stroke="black" d="M1758.62,-180C1758.62,-180 1710.38,-180 1710.38,-180 1704.38,-180 1698.38,-174 1698.38,-168 1698.38,-168 1698.38,-156 1698.38,-156 1698.38,-150 1704.38,-144 1710.38,-144 1710.38,-144 1758.62,-144 1758.62,-144 1764.62,-144 1770.62,-150 1770.62,-156 1770.62,-156 1770.62,-168 1770.62,-168 1770.62,-174 1764.62,-180 1758.62,-180"/>
<text text-anchor="middle" x="1734.5" y="-157.32" font-family="Helvetica,sans-Serif" font-size="14.00">Realizes</text>
</a>
</g>
</g>
<!-- DualSpace&#45;&gt;Realizes -->
<g id="edge25" class="edge">
<title>DualSpace&#45;&gt;Realizes</title>
<path fill="none" stroke="black" d="M1745.04,-108.3C1743.56,-115.68 1741.8,-124.48 1740.15,-132.75"/>
<polygon fill="black" stroke="black" points="1736.75,-131.92 1738.22,-142.41 1743.61,-133.29 1736.75,-131.92"/>
</g>
<!-- DualSpace&#45;&gt;VectorSpace -->
<g id="edge26" class="edge">
<title>DualSpace&#45;&gt;VectorSpace</title>
<path fill="none" stroke="black" d="M1761.86,-108.19C1774.14,-126.22 1789.11,-155.3 1779.5,-180 1763.76,-220.46 1752.27,-232.46 1713.5,-252 1637.56,-290.27 1388.92,-300.96 1271.7,-303.91"/>
<polygon fill="black" stroke="black" points="1271.87,-300.4 1261.95,-304.14 1272.03,-307.4 1271.87,-300.4"/>
</g>
<!-- Exp -->
<g id="node13" class="node">
<title>Exp</title>
<g id="a_node13"><a xlink:href="coqdoc/Riktig.Structure.Exp.html#Exp" xlink:title="Exp">
<path fill="none" stroke="black" d="M952.5,-108C952.5,-108 922.5,-108 922.5,-108 916.5,-108 910.5,-102 910.5,-96 910.5,-96 910.5,-84 910.5,-84 910.5,-78 916.5,-72 922.5,-72 922.5,-72 952.5,-72 952.5,-72 958.5,-72 964.5,-78 964.5,-84 964.5,-84 964.5,-96 964.5,-96 964.5,-102 958.5,-108 952.5,-108"/>
<text text-anchor="middle" x="937.5" y="-85.33" font-family="Helvetica,sans-Serif" font-size="14.00">Exp</text>
</a>
</g>
</g>
<!-- OrderedField -->
<g id="node38" class="node">
<title>OrderedField</title>
<g id="a_node38"><a xlink:href="coqdoc/Riktig.Structure.Order.html#OrderedField.OrderedField" xlink:title="OrderedField">
<path fill="none" stroke="black" d="M1114.38,-180C1114.38,-180 1034.62,-180 1034.62,-180 1028.62,-180 1022.62,-174 1022.62,-168 1022.62,-168 1022.62,-156 1022.62,-156 1022.62,-150 1028.62,-144 1034.62,-144 1034.62,-144 1114.38,-144 1114.38,-144 1120.38,-144 1126.38,-150 1126.38,-156 1126.38,-156 1126.38,-168 1126.38,-168 1126.38,-174 1120.38,-180 1114.38,-180"/>
<text text-anchor="middle" x="1074.5" y="-157.32" font-family="Helvetica,sans-Serif" font-size="14.00">OrderedField</text>
</a>
</g>
</g>
<!-- Exp&#45;&gt;OrderedField -->
<g id="edge27" class="edge">
<title>Exp&#45;&gt;OrderedField</title>
<path fill="none" stroke="black" d="M964.89,-105C983.55,-114.53 1008.66,-127.36 1030.14,-138.33"/>
<polygon fill="black" stroke="black" points="1028.5,-141.43 1039,-142.86 1031.69,-135.19 1028.5,-141.43"/>
</g>
<!-- Field&#45;&gt;Ring -->
<g id="edge28" class="edge">
<title>Field&#45;&gt;Ring</title>
<path fill="none" stroke="black" d="M1072.3,-238.33C979.42,-249.7 674.64,-286.99 566.21,-300.26"/>
<polygon fill="black" stroke="black" points="565.87,-296.78 556.37,-301.47 566.72,-303.73 565.87,-296.78"/>
</g>
<!-- Field&#45;&gt;VectorSpace -->
<g id="edge29" class="edge">
<title>Field&#45;&gt;VectorSpace</title>
<path fill="none" stroke="black" d="M1121.04,-252.48C1134.15,-261.4 1151.23,-272.37 1166.92,-281.97"/>
<polygon fill="black" stroke="black" points="1164.8,-284.78 1175.17,-286.96 1168.42,-278.79 1164.8,-284.78"/>
</g>
<!-- Functor -->
<g id="node16" class="node">
<title>Functor</title>
<g id="a_node16"><a xlink:href="coqdoc/Riktig.Structure.Category.html#Functor.Functor" xlink:title="Functor">
<path fill="none" stroke="black" d="M2211.75,-180C2211.75,-180 2167.25,-180 2167.25,-180 2161.25,-180 2155.25,-174 2155.25,-168 2155.25,-168 2155.25,-156 2155.25,-156 2155.25,-150 2161.25,-144 2167.25,-144 2167.25,-144 2211.75,-144 2211.75,-144 2217.75,-144 2223.75,-150 2223.75,-156 2223.75,-156 2223.75,-168 2223.75,-168 2223.75,-174 2217.75,-180 2211.75,-180"/>
<text text-anchor="middle" x="2189.5" y="-157.32" font-family="Helvetica,sans-Serif" font-size="14.00">Functor</text>
</a>
</g>
</g>
<!-- Functor&#45;&gt;Category -->
<g id="edge30" class="edge">
<title>Functor&#45;&gt;Category</title>
<path fill="none" stroke="black" d="M2169.48,-180.3C2159.74,-188.72 2147.86,-198.98 2137.19,-208.21"/>
<polygon fill="black" stroke="black" points="2135,-205.48 2129.72,-214.66 2139.57,-210.77 2135,-205.48"/>
</g>
<!-- GeometricAlgebra -->
<g id="node17" class="node">
<title>GeometricAlgebra</title>
<g id="a_node17"><a xlink:href="coqdoc/Riktig.Structure.GeometricAlgebra.html#GeometricAlgebra.GeometricAlgebra" xlink:title="GeometricAlgebra">
<path fill="none" stroke="black" d="M455.12,-180C455.12,-180 337.88,-180 337.88,-180 331.88,-180 325.88,-174 325.88,-168 325.88,-168 325.88,-156 325.88,-156 325.88,-150 331.88,-144 337.88,-144 337.88,-144 455.12,-144 455.12,-144 461.12,-144 467.12,-150 467.12,-156 467.12,-156 467.12,-168 467.12,-168 467.12,-174 461.12,-180 455.12,-180"/>
<text text-anchor="middle" x="396.5" y="-157.32" font-family="Helvetica,sans-Serif" font-size="14.00">GeometricAlgebra</text>
</a>
</g>
</g>
<!-- GeometricAlgebra&#45;&gt;Linear -->
<g id="edge31" class="edge">
<title>GeometricAlgebra&#45;&gt;Linear</title>
<path fill="none" stroke="black" d="M348.58,-180.49C331.53,-188.86 313.58,-200.52 301.5,-216 287.95,-233.37 282.03,-257.79 279.46,-276.66"/>
<polygon fill="black" stroke="black" points="276.01,-276.02 278.39,-286.34 282.96,-276.79 276.01,-276.02"/>
</g>
<!-- QuadraticForm -->
<g id="node40" class="node">
<title>QuadraticForm</title>
<g id="a_node40"><a xlink:href="coqdoc/Riktig.Structure.QuadraticForm.html#QuadraticForm.QuadraticForm" xlink:title="QuadraticForm">
<path fill="none" stroke="black" d="M449.88,-252C449.88,-252 355.12,-252 355.12,-252 349.12,-252 343.12,-246 343.12,-240 343.12,-240 343.12,-228 343.12,-228 343.12,-222 349.12,-216 355.12,-216 355.12,-216 449.88,-216 449.88,-216 455.88,-216 461.88,-222 461.88,-228 461.88,-228 461.88,-240 461.88,-240 461.88,-246 455.88,-252 449.88,-252"/>
<text text-anchor="middle" x="402.5" y="-229.32" font-family="Helvetica,sans-Serif" font-size="14.00">QuadraticForm</text>
</a>
</g>
</g>
<!-- GeometricAlgebra&#45;&gt;QuadraticForm -->
<g id="edge32" class="edge">
<title>GeometricAlgebra&#45;&gt;QuadraticForm</title>
<path fill="none" stroke="black" d="M397.98,-180.3C398.61,-187.59 399.35,-196.27 400.05,-204.46"/>
<polygon fill="black" stroke="black" points="396.56,-204.72 400.9,-214.39 403.54,-204.13 396.56,-204.72"/>
</g>
<!-- GeometricAlgebra&#45;&gt;Ring -->
<g id="edge33" class="edge">
<title>GeometricAlgebra&#45;&gt;Ring</title>
<path fill="none" stroke="black" d="M425.91,-180.34C440.37,-189.74 457.44,-202.25 470.5,-216 488.01,-234.44 503.26,-258.99 513.57,-277.64"/>
<polygon fill="black" stroke="black" points="510.38,-279.1 518.2,-286.25 516.55,-275.78 510.38,-279.1"/>
</g>
<!-- Graded -->
<g id="node18" class="node">
<title>Graded</title>
<g id="a_node18"><a xlink:href="coqdoc/Riktig.Structure.Graded.html#Graded.Graded" xlink:title="Graded">
<path fill="none" stroke="black" d="M55,-252C55,-252 12,-252 12,-252 6,-252 0,-246 0,-240 0,-240 0,-228 0,-228 0,-222 6,-216 12,-216 12,-216 55,-216 55,-216 61,-216 67,-222 67,-228 67,-228 67,-240 67,-240 67,-246 61,-252 55,-252"/>
<text text-anchor="middle" x="33.5" y="-229.32" font-family="Helvetica,sans-Serif" font-size="14.00">Graded</text>
</a>
</g>
</g>
<!-- Graded&#45;&gt;Linear -->
<g id="edge34" class="edge">
<title>Graded&#45;&gt;Linear</title>
<path fill="none" stroke="black" d="M67.48,-247.4C72.17,-249 76.94,-250.58 81.5,-252 134.64,-268.57 196.8,-284.86 236.63,-294.92"/>
<polygon fill="black" stroke="black" points="235.72,-298.3 246.28,-297.34 237.43,-291.51 235.72,-298.3"/>
</g>
<!-- Monoid -->
<g id="node33" class="node">
<title>Monoid</title>
<g id="a_node33"><a xlink:href="coqdoc/Riktig.Structure.Monoid.html#Monoid.Monoid" xlink:title="Monoid">
<path fill="none" stroke="black" d="M515.62,-540C515.62,-540 473.38,-540 473.38,-540 467.38,-540 461.38,-534 461.38,-528 461.38,-528 461.38,-516 461.38,-516 461.38,-510 467.38,-504 473.38,-504 473.38,-504 515.62,-504 515.62,-504 521.62,-504 527.62,-510 527.62,-516 527.62,-516 527.62,-528 527.62,-528 527.62,-534 521.62,-540 515.62,-540"/>
<text text-anchor="middle" x="494.5" y="-517.33" font-family="Helvetica,sans-Serif" font-size="14.00">Monoid</text>
</a>
</g>
</g>
<!-- Graded&#45;&gt;Monoid -->
<g id="edge35" class="edge">
<title>Graded&#45;&gt;Monoid</title>
<path fill="none" stroke="black" d="M61.64,-252.46C141.06,-301.73 366.99,-441.89 456.91,-497.68"/>
<polygon fill="black" stroke="black" points="454.8,-500.49 465.15,-502.79 458.49,-494.54 454.8,-500.49"/>
</g>
<!-- Group&#45;&gt;Monoid -->
<g id="edge36" class="edge">
<title>Group&#45;&gt;Monoid</title>
<path fill="none" stroke="black" d="M540.42,-468.3C533.33,-476.44 524.73,-486.31 516.9,-495.3"/>
<polygon fill="black" stroke="black" points="514.33,-492.92 510.4,-502.75 519.61,-497.51 514.33,-492.92"/>
</g>
<!-- HasCoproducts -->
<g id="node20" class="node">
<title>HasCoproducts</title>
<g id="a_node20"><a xlink:href="coqdoc/Riktig.Structure.Category.html#HasCoproducts.HasCoproducts" xlink:title="HasCoproducts">
<path fill="none" stroke="black" d="M2351,-180C2351,-180 2254,-180 2254,-180 2248,-180 2242,-174 2242,-168 2242,-168 2242,-156 2242,-156 2242,-150 2248,-144 2254,-144 2254,-144 2351,-144 2351,-144 2357,-144 2363,-150 2363,-156 2363,-156 2363,-168 2363,-168 2363,-174 2357,-180 2351,-180"/>
<text text-anchor="middle" x="2302.5" y="-157.32" font-family="Helvetica,sans-Serif" font-size="14.00">HasCoproducts</text>
</a>
</g>
</g>
<!-- HasCoproducts&#45;&gt;Category -->
<g id="edge37" class="edge">
<title>HasCoproducts&#45;&gt;Category</title>
<path fill="none" stroke="black" d="M2254.05,-180.48C2224.96,-190.98 2188.03,-204.31 2158.64,-214.91"/>
<polygon fill="black" stroke="black" points="2157.83,-211.48 2149.61,-218.17 2160.21,-218.06 2157.83,-211.48"/>
</g>
<!-- HasExponentials&#45;&gt;Category -->
<g id="edge38" class="edge">
<title>HasExponentials&#45;&gt;Category</title>
<path fill="none" stroke="black" d="M1929.65,-108.32C1929.63,-128.09 1932.68,-160.25 1950.5,-180 1977.7,-210.14 2022.55,-223.16 2057.53,-228.78"/>
<polygon fill="black" stroke="black" points="2056.61,-232.18 2067,-230.14 2057.6,-225.25 2056.61,-232.18"/>
</g>
<!-- HasExponentials&#45;&gt;HasProducts -->
<g id="edge39" class="edge">
<title>HasExponentials&#45;&gt;HasProducts</title>
<path fill="none" stroke="black" d="M1950.28,-108.3C1959.89,-116.72 1971.62,-126.98 1982.17,-136.21"/>
<polygon fill="black" stroke="black" points="1979.71,-138.71 1989.54,-142.66 1984.31,-133.44 1979.71,-138.71"/>
</g>
<!-- HasProducts&#45;&gt;Category -->
<g id="edge40" class="edge">
<title>HasProducts&#45;&gt;Category</title>
<path fill="none" stroke="black" d="M2034.98,-180.48C2047.11,-189.15 2061.95,-199.75 2075.11,-209.15"/>
<polygon fill="black" stroke="black" points="2072.93,-211.9 2083.1,-214.86 2077,-206.2 2072.93,-211.9"/>
</g>
<!-- Initial -->
<g id="node23" class="node">
<title>Initial</title>
<g id="a_node23"><a xlink:href="coqdoc/Riktig.Structure.Category.html#Initial.Initial" xlink:title="Initial">
<path fill="none" stroke="black" d="M2423.62,-180C2423.62,-180 2393.38,-180 2393.38,-180 2387.38,-180 2381.38,-174 2381.38,-168 2381.38,-168 2381.38,-156 2381.38,-156 2381.38,-150 2387.38,-144 2393.38,-144 2393.38,-144 2423.62,-144 2423.62,-144 2429.62,-144 2435.62,-150 2435.62,-156 2435.62,-156 2435.62,-168 2435.62,-168 2435.62,-174 2429.62,-180 2423.62,-180"/>
<text text-anchor="middle" x="2408.5" y="-157.32" font-family="Helvetica,sans-Serif" font-size="14.00">Initial</text>
</a>
</g>
</g>
<!-- Initial&#45;&gt;Category -->
<g id="edge41" class="edge">
<title>Initial&#45;&gt;Category</title>
<path fill="none" stroke="black" d="M2381.26,-176.7C2378.35,-177.92 2375.39,-179.04 2372.5,-180 2300.35,-203.88 2213.37,-218.81 2159.49,-226.52"/>
<polygon fill="black" stroke="black" points="2159.1,-223.04 2149.69,-227.89 2160.07,-229.97 2159.1,-223.04"/>
</g>
<!-- InnerProductSpace -->
<g id="node24" class="node">
<title>InnerProductSpace</title>
<g id="a_node24"><a xlink:href="coqdoc/Riktig.Structure.InnerProductSpace.html#InnerProductSpace.InnerProductSpace" xlink:title="InnerProductSpace">
<path fill="none" stroke="black" d="M767.12,-252C767.12,-252 643.88,-252 643.88,-252 637.88,-252 631.88,-246 631.88,-240 631.88,-240 631.88,-228 631.88,-228 631.88,-222 637.88,-216 643.88,-216 643.88,-216 767.12,-216 767.12,-216 773.12,-216 779.12,-222 779.12,-228 779.12,-228 779.12,-240 779.12,-240 779.12,-246 773.12,-252 767.12,-252"/>
<text text-anchor="middle" x="705.5" y="-229.32" font-family="Helvetica,sans-Serif" font-size="14.00">InnerProductSpace</text>
</a>
</g>
</g>
<!-- InnerProductSpace&#45;&gt;Linear -->
<g id="edge42" class="edge">
<title>InnerProductSpace&#45;&gt;Linear</title>
<path fill="none" stroke="black" d="M631.77,-250.3C628.64,-250.89 625.54,-251.46 622.5,-252 513,-271.61 383.14,-290.35 318.42,-299.38"/>
<polygon fill="black" stroke="black" points="318.04,-295.9 308.62,-300.75 319,-302.84 318.04,-295.9"/>
</g>
<!-- InnerProductSpace&#45;&gt;VectorSpace -->
<g id="edge43" class="edge">
<title>InnerProductSpace&#45;&gt;VectorSpace</title>
<path fill="none" stroke="black" d="M779.38,-249.63C784.15,-250.46 788.89,-251.26 793.5,-252 918.63,-272.04 1065.92,-289.33 1147.39,-298.35"/>
<polygon fill="black" stroke="black" points="1146.61,-301.78 1156.93,-299.4 1147.38,-294.82 1146.61,-301.78"/>
</g>
<!-- Integral -->
<g id="node25" class="node">
<title>Integral</title>
<g id="a_node25"><a xlink:href="coqdoc/Riktig.Structure.Integral.html#Integral.Integral" xlink:title="Integral">
<path fill="none" stroke="black" d="M1171.5,-36C1171.5,-36 1125.5,-36 1125.5,-36 1119.5,-36 1113.5,-30 1113.5,-24 1113.5,-24 1113.5,-12 1113.5,-12 1113.5,-6 1119.5,0 1125.5,0 1125.5,0 1171.5,0 1171.5,0 1177.5,0 1183.5,-6 1183.5,-12 1183.5,-12 1183.5,-24 1183.5,-24 1183.5,-30 1177.5,-36 1171.5,-36"/>
<text text-anchor="middle" x="1148.5" y="-13.32" font-family="Helvetica,sans-Serif" font-size="14.00">Integral</text>
</a>
</g>
</g>
<!-- NormedSpace -->
<g id="node37" class="node">
<title>NormedSpace</title>
<g id="a_node37"><a xlink:href="coqdoc/Riktig.Structure.Norm.html#NormedSpace.NormedSpace" xlink:title="NormedSpace">
<path fill="none" stroke="black" d="M1192.88,-108C1192.88,-108 1104.12,-108 1104.12,-108 1098.12,-108 1092.12,-102 1092.12,-96 1092.12,-96 1092.12,-84 1092.12,-84 1092.12,-78 1098.12,-72 1104.12,-72 1104.12,-72 1192.88,-72 1192.88,-72 1198.88,-72 1204.88,-78 1204.88,-84 1204.88,-84 1204.88,-96 1204.88,-96 1204.88,-102 1198.88,-108 1192.88,-108"/>
<text text-anchor="middle" x="1148.5" y="-85.33" font-family="Helvetica,sans-Serif" font-size="14.00">NormedSpace</text>
</a>
</g>
</g>
<!-- Integral&#45;&gt;NormedSpace -->
<g id="edge44" class="edge">
<title>Integral&#45;&gt;NormedSpace</title>
<path fill="none" stroke="black" d="M1148.5,-36.3C1148.5,-43.59 1148.5,-52.27 1148.5,-60.46"/>
<polygon fill="black" stroke="black" points="1145,-60.38 1148.5,-70.38 1152,-60.38 1145,-60.38"/>
</g>
<!-- Integral&#45;&gt;OrderedField -->
<g id="edge45" class="edge">
<title>Integral&#45;&gt;OrderedField</title>
<path fill="none" stroke="black" d="M1113.04,-21.83C1080.53,-26.52 1034.14,-38.97 1011.5,-72 1002.45,-85.2 1004.75,-93.49 1011.5,-108 1016.67,-119.1 1025.42,-128.7 1034.8,-136.57"/>
<polygon fill="black" stroke="black" points="1032.62,-139.31 1042.67,-142.64 1036.89,-133.76 1032.62,-139.31"/>
</g>
<!-- Integral&#45;&gt;VectorSpace -->
<g id="edge46" class="edge">
<title>Integral&#45;&gt;VectorSpace</title>
<path fill="none" stroke="black" d="M1183.88,-22.88C1237.32,-29.54 1334.63,-45.11 1355.5,-72 1406.95,-138.29 1355.27,-190.21 1298.5,-252 1287.53,-263.94 1273.26,-274.04 1259.36,-282.11"/>
<polygon fill="black" stroke="black" points="1257.75,-279.01 1250.69,-286.9 1261.14,-285.13 1257.75,-279.01"/>
</g>
<!-- Inverse -->
<g id="node26" class="node">
<title>Inverse</title>
<g id="a_node26"><a xlink:href="coqdoc/Riktig.Structure.Inverse.html#Inverse.Inverse" xlink:title="Inverse">
<path fill="none" stroke="black" d="M2210.38,-36C2210.38,-36 2166.62,-36 2166.62,-36 2160.62,-36 2154.62,-30 2154.62,-24 2154.62,-24 2154.62,-12 2154.62,-12 2154.62,-6 2160.62,0 2166.62,0 2166.62,0 2210.38,0 2210.38,0 2216.38,0 2222.38,-6 2222.38,-12 2222.38,-12 2222.38,-24 2222.38,-24 2222.38,-30 2216.38,-36 2210.38,-36"/>
<text text-anchor="middle" x="2188.5" y="-13.32" font-family="Helvetica,sans-Serif" font-size="14.00">Inverse</text>
</a>
</g>
</g>
<!-- LambdaModel -->
<g id="node27" class="node">
<title>LambdaModel</title>
<g id="a_node27"><a xlink:href="coqdoc/Riktig.Structure.Lambda.html#LambdaModel.LambdaModel" xlink:title="LambdaModel">
<path fill="none" stroke="black" d="M2340.88,-36C2340.88,-36 2252.12,-36 2252.12,-36 2246.12,-36 2240.12,-30 2240.12,-24 2240.12,-24 2240.12,-12 2240.12,-12 2240.12,-6 2246.12,0 2252.12,0 2252.12,0 2340.88,0 2340.88,0 2346.88,0 2352.88,-6 2352.88,-12 2352.88,-12 2352.88,-24 2352.88,-24 2352.88,-30 2346.88,-36 2340.88,-36"/>
<text text-anchor="middle" x="2296.5" y="-13.32" font-family="Helvetica,sans-Serif" font-size="14.00">LambdaModel</text>
</a>
</g>
</g>
<!-- LinearMap -->
<g id="node29" class="node">
<title>LinearMap</title>
<g id="a_node29"><a xlink:href="coqdoc/Riktig.Structure.LinearMap.html#LinearMap.LinearMap" xlink:title="LinearMap">
<path fill="none" stroke="black" d="M199.5,-252C199.5,-252 135.5,-252 135.5,-252 129.5,-252 123.5,-246 123.5,-240 123.5,-240 123.5,-228 123.5,-228 123.5,-222 129.5,-216 135.5,-216 135.5,-216 199.5,-216 199.5,-216 205.5,-216 211.5,-222 211.5,-228 211.5,-228 211.5,-240 211.5,-240 211.5,-246 205.5,-252 199.5,-252"/>
<text text-anchor="middle" x="167.5" y="-229.32" font-family="Helvetica,sans-Serif" font-size="14.00">LinearMap</text>
</a>
</g>
</g>
<!-- LinearMap&#45;&gt;Linear -->
<g id="edge47" class="edge">
<title>LinearMap&#45;&gt;Linear</title>
<path fill="none" stroke="black" d="M194.97,-252.48C208.86,-261.32 225.9,-272.16 240.88,-281.7"/>
<polygon fill="black" stroke="black" points="238.78,-284.51 249.1,-286.93 242.54,-278.61 238.78,-284.51"/>
</g>
<!-- Magma -->
<g id="node30" class="node">
<title>Magma</title>
<g id="a_node30"><a xlink:href="coqdoc/Riktig.Structure.Magma.html#Magma.Magma" xlink:title="Magma">
<path fill="none" stroke="black" d="M516,-684C516,-684 473,-684 473,-684 467,-684 461,-678 461,-672 461,-672 461,-660 461,-660 461,-654 467,-648 473,-648 473,-648 516,-648 516,-648 522,-648 528,-654 528,-660 528,-660 528,-672 528,-672 528,-678 522,-684 516,-684"/>
<text text-anchor="middle" x="494.5" y="-661.33" font-family="Helvetica,sans-Serif" font-size="14.00">Magma</text>
</a>
</g>
</g>
<!-- MinusOneNotASquare -->
<g id="node31" class="node">
<title>MinusOneNotASquare</title>
<g id="a_node31"><a xlink:href="coqdoc/Riktig.Structure.MinusOneNotASquare.html#MinusOneNotASquare.MinusOneNotASquare" xlink:title="MinusOneNotASquare">
<path fill="none" stroke="black" d="M992.62,-180C992.62,-180 848.38,-180 848.38,-180 842.38,-180 836.38,-174 836.38,-168 836.38,-168 836.38,-156 836.38,-156 836.38,-150 842.38,-144 848.38,-144 848.38,-144 992.62,-144 992.62,-144 998.62,-144 1004.62,-150 1004.62,-156 1004.62,-156 1004.62,-168 1004.62,-168 1004.62,-174 998.62,-180 992.62,-180"/>
<text text-anchor="middle" x="920.5" y="-157.32" font-family="Helvetica,sans-Serif" font-size="14.00">MinusOneNotASquare</text>
</a>
</g>
</g>
<!-- MinusOneNotASquare&#45;&gt;Field -->
<g id="edge48" class="edge">
<title>MinusOneNotASquare&#45;&gt;Field</title>
<path fill="none" stroke="black" d="M965.21,-180.48C994.83,-192.07 1033.26,-207.1 1061.42,-218.11"/>
<polygon fill="black" stroke="black" points="1060.05,-221.33 1070.64,-221.71 1062.6,-214.81 1060.05,-221.33"/>
</g>
<!-- Monad -->
<g id="node32" class="node">
<title>Monad</title>
<g id="a_node32"><a xlink:href="coqdoc/Riktig.Structure.Monad.html#Monad.Monad" xlink:title="Monad">
<path fill="none" stroke="black" d="M2421.75,-36C2421.75,-36 2383.25,-36 2383.25,-36 2377.25,-36 2371.25,-30 2371.25,-24 2371.25,-24 2371.25,-12 2371.25,-12 2371.25,-6 2377.25,0 2383.25,0 2383.25,0 2421.75,0 2421.75,0 2427.75,0 2433.75,-6 2433.75,-12 2433.75,-12 2433.75,-24 2433.75,-24 2433.75,-30 2427.75,-36 2421.75,-36"/>
<text text-anchor="middle" x="2402.5" y="-13.32" font-family="Helvetica,sans-Serif" font-size="14.00">Monad</text>
</a>
</g>
</g>
<!-- Semigroup -->
<g id="node45" class="node">
<title>Semigroup</title>
<g id="a_node45"><a xlink:href="coqdoc/Riktig.Structure.Semigroup.html#Semigroup.Semigroup" xlink:title="Semigroup">
<path fill="none" stroke="black" d="M528,-612C528,-612 461,-612 461,-612 455,-612 449,-606 449,-600 449,-600 449,-588 449,-588 449,-582 455,-576 461,-576 461,-576 528,-576 528,-576 534,-576 540,-582 540,-588 540,-588 540,-600 540,-600 540,-606 534,-612 528,-612"/>
<text text-anchor="middle" x="494.5" y="-589.33" font-family="Helvetica,sans-Serif" font-size="14.00">Semigroup</text>
</a>
</g>
</g>
<!-- Monoid&#45;&gt;Semigroup -->
<g id="edge49" class="edge">
<title>Monoid&#45;&gt;Semigroup</title>
<path fill="none" stroke="black" d="M494.5,-540.3C494.5,-547.59 494.5,-556.27 494.5,-564.46"/>
<polygon fill="black" stroke="black" points="491,-564.38 494.5,-574.38 498,-564.38 491,-564.38"/>
</g>
<!-- Multilinear -->
<g id="node34" class="node">
<title>Multilinear</title>
<g id="a_node34"><a xlink:href="coqdoc/Riktig.Structure.Bilinear.html#Multilinear.Multilinear" xlink:title="Multilinear">
<path fill="none" stroke="black" d="M1296.88,-180C1296.88,-180 1232.12,-180 1232.12,-180 1226.12,-180 1220.12,-174 1220.12,-168 1220.12,-168 1220.12,-156 1220.12,-156 1220.12,-150 1226.12,-144 1232.12,-144 1232.12,-144 1296.88,-144 1296.88,-144 1302.88,-144 1308.88,-150 1308.88,-156 1308.88,-156 1308.88,-168 1308.88,-168 1308.88,-174 1302.88,-180 1296.88,-180"/>
<text text-anchor="middle" x="1264.5" y="-157.32" font-family="Helvetica,sans-Serif" font-size="14.00">Multilinear</text>
</a>
</g>
</g>
<!-- Multilinear&#45;&gt;Field -->
<g id="edge50" class="edge">
<title>Multilinear&#45;&gt;Field</title>
<path fill="none" stroke="black" d="M1223.29,-180.48C1196.9,-191.68 1162.91,-206.1 1137.22,-217"/>
<polygon fill="black" stroke="black" points="1136,-213.71 1128.17,-220.84 1138.74,-220.16 1136,-213.71"/>
</g>
<!-- Multilinear&#45;&gt;VectorSpace -->
<g id="edge51" class="edge">
<title>Multilinear&#45;&gt;VectorSpace</title>
<path fill="none" stroke="black" d="M1257.76,-180.41C1248.39,-204.6 1231.33,-248.64 1220.21,-277.35"/>
<polygon fill="black" stroke="black" points="1217.02,-275.89 1216.67,-286.48 1223.55,-278.42 1217.02,-275.89"/>
</g>
<!-- MultilinearForm -->
<g id="node35" class="node">
<title>MultilinearForm</title>
<g id="a_node35"><a xlink:href="coqdoc/Riktig.Structure.Bilinear.html#MultilinearForm.MultilinearForm" xlink:title="MultilinearForm">
<path fill="none" stroke="black" d="M1334.12,-108C1334.12,-108 1234.88,-108 1234.88,-108 1228.88,-108 1222.88,-102 1222.88,-96 1222.88,-96 1222.88,-84 1222.88,-84 1222.88,-78 1228.88,-72 1234.88,-72 1234.88,-72 1334.12,-72 1334.12,-72 1340.12,-72 1346.12,-78 1346.12,-84 1346.12,-84 1346.12,-96 1346.12,-96 1346.12,-102 1340.12,-108 1334.12,-108"/>
<text text-anchor="middle" x="1284.5" y="-85.33" font-family="Helvetica,sans-Serif" font-size="14.00">MultilinearForm</text>
</a>
</g>
</g>
<!-- MultilinearForm&#45;&gt;Field -->
<g id="edge52" class="edge">
<title>MultilinearForm&#45;&gt;Field</title>
<path fill="none" stroke="black" d="M1259.97,-108.4C1245.71,-118.62 1227.46,-131.87 1211.5,-144 1183.34,-165.39 1151.86,-190.52 1129.46,-208.61"/>
<polygon fill="black" stroke="black" points="1127.5,-205.69 1121.93,-214.71 1131.91,-211.14 1127.5,-205.69"/>
</g>
<!-- MultilinearForm&#45;&gt;Multilinear -->
<g id="edge53" class="edge">
<title>MultilinearForm&#45;&gt;Multilinear</title>
<path fill="none" stroke="black" d="M1279.56,-108.3C1277.42,-115.76 1274.88,-124.68 1272.49,-133.03"/>
<polygon fill="black" stroke="black" points="1269.18,-131.86 1269.8,-142.44 1275.92,-133.79 1269.18,-131.86"/>
</g>
<!-- MultilinearForm&#45;&gt;VectorSpace -->
<g id="edge54" class="edge">
<title>MultilinearForm&#45;&gt;VectorSpace</title>
<path fill="none" stroke="black" d="M1298.83,-108.43C1305.95,-118.24 1313.81,-131.08 1317.5,-144 1321.9,-159.38 1323.08,-165 1317.5,-180 1302.22,-221.05 1266.73,-257.61 1240.58,-280.43"/>
<polygon fill="black" stroke="black" points="1238.62,-277.5 1233.27,-286.65 1243.16,-282.84 1238.62,-277.5"/>
</g>
<!-- NaturalTransformation -->
<g id="node36" class="node">
<title>NaturalTransformation</title>
<g id="a_node36"><a xlink:href="coqdoc/Riktig.Structure.Category.html#NaturalTransformation.NaturalTransformation" xlink:title="NaturalTransformation">
<path fill="none" stroke="black" d="M2304.12,-108C2304.12,-108 2156.88,-108 2156.88,-108 2150.88,-108 2144.88,-102 2144.88,-96 2144.88,-96 2144.88,-84 2144.88,-84 2144.88,-78 2150.88,-72 2156.88,-72 2156.88,-72 2304.12,-72 2304.12,-72 2310.12,-72 2316.12,-78 2316.12,-84 2316.12,-84 2316.12,-96 2316.12,-96 2316.12,-102 2310.12,-108 2304.12,-108"/>
<text text-anchor="middle" x="2230.5" y="-85.33" font-family="Helvetica,sans-Serif" font-size="14.00">NaturalTransformation</text>
</a>
</g>
</g>
<!-- NaturalTransformation&#45;&gt;Category -->
<g id="edge55" class="edge">
<title>NaturalTransformation&#45;&gt;Category</title>
<path fill="none" stroke="black" d="M2192.56,-108.49C2176.67,-117.32 2159.03,-129.3 2146.5,-144 2131.52,-161.58 2121.67,-185.94 2115.76,-204.73"/>
<polygon fill="black" stroke="black" points="2112.45,-203.57 2113.01,-214.15 2119.17,-205.54 2112.45,-203.57"/>
</g>
<!-- NaturalTransformation&#45;&gt;Functor -->
<g id="edge56" class="edge">
<title>NaturalTransformation&#45;&gt;Functor</title>
<path fill="none" stroke="black" d="M2220.37,-108.3C2215.8,-116.1 2210.3,-125.49 2205.21,-134.17"/>
<polygon fill="black" stroke="black" points="2202.32,-132.19 2200.28,-142.59 2208.36,-135.73 2202.32,-132.19"/>
</g>
<!-- NormedSpace&#45;&gt;OrderedField -->
<g id="edge57" class="edge">
<title>NormedSpace&#45;&gt;OrderedField</title>
<path fill="none" stroke="black" d="M1130.21,-108.3C1121.4,-116.63 1110.68,-126.78 1101,-135.93"/>
<polygon fill="black" stroke="black" points="1098.8,-133.2 1093.94,-142.61 1103.61,-138.28 1098.8,-133.2"/>
</g>
<!-- NormedSpace&#45;&gt;VectorSpace -->
<g id="edge58" class="edge">
<title>NormedSpace&#45;&gt;VectorSpace</title>
<path fill="none" stroke="black" d="M1153.39,-108.15C1163.87,-144.93 1188.61,-231.71 1201.45,-276.76"/>
<polygon fill="black" stroke="black" points="1198.07,-277.65 1204.17,-286.31 1204.8,-275.74 1198.07,-277.65"/>
</g>
<!-- OrderedField&#45;&gt;Field -->
<g id="edge59" class="edge">
<title>OrderedField&#45;&gt;Field</title>
<path fill="none" stroke="black" d="M1080.68,-180.3C1083.37,-187.85 1086.6,-196.88 1089.61,-205.32"/>
<polygon fill="black" stroke="black" points="1086.22,-206.23 1092.88,-214.47 1092.81,-203.88 1086.22,-206.23"/>
</g>
<!-- PosInner -->
<g id="node39" class="node">
<title>PosInner</title>
<g id="a_node39"><a xlink:href="coqdoc/Riktig.Structure.PosInner.html#PosInner.PosInner" xlink:title="PosInner">
<path fill="none" stroke="black" d="M834.88,-108C834.88,-108 782.12,-108 782.12,-108 776.12,-108 770.12,-102 770.12,-96 770.12,-96 770.12,-84 770.12,-84 770.12,-78 776.12,-72 782.12,-72 782.12,-72 834.88,-72 834.88,-72 840.88,-72 846.88,-78 846.88,-84 846.88,-84 846.88,-96 846.88,-96 846.88,-102 840.88,-108 834.88,-108"/>
<text text-anchor="middle" x="808.5" y="-85.33" font-family="Helvetica,sans-Serif" font-size="14.00">PosInner</text>
</a>
</g>
</g>
<!-- PosInner&#45;&gt;InnerProductSpace -->
<g id="edge60" class="edge">
<title>PosInner&#45;&gt;InnerProductSpace</title>
<path fill="none" stroke="black" d="M795.87,-108.41C778.01,-133.03 745.25,-178.2 724.46,-206.86"/>
<polygon fill="black" stroke="black" points="721.84,-204.51 718.8,-214.66 727.5,-208.62 721.84,-204.51"/>
</g>
<!-- PosInner&#45;&gt;OrderedField -->
<g id="edge61" class="edge">
<title>PosInner&#45;&gt;OrderedField</title>
<path fill="none" stroke="black" d="M847.1,-100.75C886.09,-110.65 948.35,-126.59 1011.34,-143.44"/>
<polygon fill="black" stroke="black" points="1010.25,-146.77 1020.81,-145.98 1012.06,-140.01 1010.25,-146.77"/>
</g>
<!-- PosInner&#45;&gt;VectorSpace -->
<g id="edge62" class="edge">
<title>PosInner&#45;&gt;VectorSpace</title>
<path fill="none" stroke="black" d="M807.4,-108.32C807.11,-128.1 809.75,-160.26 827.5,-180 910.36,-272.14 1062.09,-296.6 1147.26,-302.94"/>
<polygon fill="black" stroke="black" points="1146.85,-306.42 1157.06,-303.6 1147.32,-299.43 1146.85,-306.42"/>
</g>
<!-- QuadraticForm&#45;&gt;Linear -->
<g id="edge63" class="edge">
<title>QuadraticForm&#45;&gt;Linear</title>
<path fill="none" stroke="black" d="M371.28,-252.48C354.84,-261.69 334.5,-273.08 316.98,-282.89"/>
<polygon fill="black" stroke="black" points="315.37,-279.78 308.35,-287.72 318.79,-285.89 315.37,-279.78"/>
</g>
<!-- QuadraticForm&#45;&gt;VectorSpace -->
<g id="edge64" class="edge">
<title>QuadraticForm&#45;&gt;VectorSpace</title>
<path fill="none" stroke="black" d="M462.35,-242.58C488.2,-245.72 518.82,-249.26 546.5,-252 766.97,-273.82 1029.37,-292.7 1147.02,-300.8"/>
<polygon fill="black" stroke="black" points="1146.56,-304.27 1156.77,-301.46 1147.04,-297.29 1146.56,-304.27"/>
</g>
<!-- Realizes&#45;&gt;Field -->
<g id="edge65" class="edge">
<title>Realizes&#45;&gt;Field</title>
<path fill="none" stroke="black" d="M1698.01,-168.48C1674.02,-172 1641.93,-176.54 1613.5,-180 1436.17,-201.59 1223.71,-221.66 1138.07,-229.51"/>
<polygon fill="black" stroke="black" points="1137.99,-226.01 1128.35,-230.4 1138.63,-232.98 1137.99,-226.01"/>
</g>
<!-- Realizes&#45;&gt;VectorSpace -->
<g id="edge66" class="edge">
<title>Realizes&#45;&gt;VectorSpace</title>
<path fill="none" stroke="black" d="M1729.98,-180.38C1723.59,-201.18 1709.77,-235.26 1684.5,-252 1618.2,-295.91 1384.92,-303.78 1271.85,-304.96"/>
<polygon fill="black" stroke="black" points="1272.12,-301.46 1262.16,-305.05 1272.19,-308.46 1272.12,-301.46"/>
</g>
<!-- Reals -->
<g id="node42" class="node">
<title>Reals</title>
<g id="a_node42"><a xlink:href="coqdoc/Riktig.Structure.Reals.html#Reals.Reals" xlink:title="Reals">
<path fill="none" stroke="black" d="M1062.5,-108C1062.5,-108 1032.5,-108 1032.5,-108 1026.5,-108 1020.5,-102 1020.5,-96 1020.5,-96 1020.5,-84 1020.5,-84 1020.5,-78 1026.5,-72 1032.5,-72 1032.5,-72 1062.5,-72 1062.5,-72 1068.5,-72 1074.5,-78 1074.5,-84 1074.5,-84 1074.5,-96 1074.5,-96 1074.5,-102 1068.5,-108 1062.5,-108"/>
<text text-anchor="middle" x="1047.5" y="-85.33" font-family="Helvetica,sans-Serif" font-size="14.00">Reals</text>
</a>
</g>
</g>
<!-- Reals&#45;&gt;OrderedField -->
<g id="edge67" class="edge">
<title>Reals&#45;&gt;OrderedField</title>
<path fill="none" stroke="black" d="M1054.17,-108.3C1057.08,-115.85 1060.57,-124.88 1063.82,-133.32"/>
<polygon fill="black" stroke="black" points="1060.49,-134.41 1067.36,-142.48 1067.02,-131.89 1060.49,-134.41"/>
</g>
<!-- Ring&#45;&gt;AbGroup -->
<g id="edge68" class="edge">
<title>Ring&#45;&gt;AbGroup</title>
<path fill="none" stroke="black" d="M535.66,-324.3C539.25,-331.93 543.57,-341.08 547.58,-349.6"/>
<polygon fill="black" stroke="black" points="544.36,-350.97 551.79,-358.53 550.69,-347.99 544.36,-350.97"/>
</g>
<!-- Ring&#45;&gt;Monoid -->
<g id="edge69" class="edge">
<title>Ring&#45;&gt;Monoid</title>
<path fill="none" stroke="black" d="M522.34,-324.05C519.38,-334.37 515.81,-347.85 513.5,-360 504.74,-406.09 499.33,-460.43 496.62,-492.72"/>
<polygon fill="black" stroke="black" points="493.15,-492.2 495.84,-502.45 500.13,-492.76 493.15,-492.2"/>
</g>
<!-- ScaleSeries -->
<g id="node44" class="node">
<title>ScaleSeries</title>
<g id="a_node44"><a xlink:href="coqdoc/Riktig.Structure.Series.html#ScaleSeries.ScaleSeries" xlink:title="ScaleSeries">
<path fill="none" stroke="black" d="M568.25,-180C568.25,-180 496.75,-180 496.75,-180 490.75,-180 484.75,-174 484.75,-168 484.75,-168 484.75,-156 484.75,-156 484.75,-150 490.75,-144 496.75,-144 496.75,-144 568.25,-144 568.25,-144 574.25,-144 580.25,-150 580.25,-156 580.25,-156 580.25,-168 580.25,-168 580.25,-174 574.25,-180 568.25,-180"/>
<text text-anchor="middle" x="532.5" y="-157.32" font-family="Helvetica,sans-Serif" font-size="14.00">ScaleSeries</text>
</a>
</g>
</g>
<!-- ScaleSeries&#45;&gt;Field -->
<g id="edge70" class="edge">
<title>ScaleSeries&#45;&gt;Field</title>
<path fill="none" stroke="black" d="M580.54,-178.01C583.56,-178.74 586.56,-179.41 589.5,-180 763.17,-214.61 974.89,-227.43 1060.66,-231.43"/>
<polygon fill="black" stroke="black" points="1060.48,-234.93 1070.63,-231.88 1060.8,-227.93 1060.48,-234.93"/>
</g>
<!-- ScaleSeries&#45;&gt;Ring -->
<g id="edge71" class="edge">
<title>ScaleSeries&#45;&gt;Ring</title>
<path fill="none" stroke="black" d="M531.89,-180.41C531.04,-204.39 529.51,-247.86 528.5,-276.58"/>
<polygon fill="black" stroke="black" points="525.01,-276.26 528.16,-286.38 532.01,-276.51 525.01,-276.26"/>
</g>
<!-- Series -->
<g id="node46" class="node">
<title>Series</title>
<g id="a_node46"><a xlink:href="coqdoc/Riktig.Structure.Series.html#Series.Series" xlink:title="Series">
<path fill="none" stroke="black" d="M601.88,-252C601.88,-252 567.12,-252 567.12,-252 561.12,-252 555.12,-246 555.12,-240 555.12,-240 555.12,-228 555.12,-228 555.12,-222 561.12,-216 567.12,-216 567.12,-216 601.88,-216 601.88,-216 607.88,-216 613.88,-222 613.88,-228 613.88,-228 613.88,-240 613.88,-240 613.88,-246 607.88,-252 601.88,-252"/>
<text text-anchor="middle" x="584.5" y="-229.32" font-family="Helvetica,sans-Serif" font-size="14.00">Series</text>
</a>
</g>
</g>
<!-- ScaleSeries&#45;&gt;Series -->
<g id="edge72" class="edge">
<title>ScaleSeries&#45;&gt;Series</title>
<path fill="none" stroke="black" d="M545.35,-180.3C551.27,-188.27 558.43,-197.9 564.99,-206.74"/>
<polygon fill="black" stroke="black" points="562.12,-208.74 570.89,-214.68 567.74,-204.57 562.12,-208.74"/>
</g>
<!-- Semigroup&#45;&gt;Magma -->
<g id="edge73" class="edge">
<title>Semigroup&#45;&gt;Magma</title>
<path fill="none" stroke="black" d="M494.5,-612.3C494.5,-619.59 494.5,-628.27 494.5,-636.46"/>
<polygon fill="black" stroke="black" points="491,-636.38 494.5,-646.38 498,-636.38 491,-636.38"/>
</g>
<!-- Series&#45;&gt;Ring -->
<g id="edge74" class="edge">
<title>Series&#45;&gt;Ring</title>
<path fill="none" stroke="black" d="M570.41,-252.3C563.85,-260.36 555.91,-270.11 548.66,-279.02"/>
<polygon fill="black" stroke="black" points="545.98,-276.76 542.38,-286.72 551.41,-281.18 545.98,-276.76"/>
</g>
<!-- SubspacePred -->
<g id="node47" class="node">
<title>SubspacePred</title>
<g id="a_node47"><a xlink:href="coqdoc/Riktig.Structure.Subspace.html#SubspacePred.SubspacePred" xlink:title="SubspacePred">
<path fill="none" stroke="black" d="M1928.62,-252C1928.62,-252 1838.38,-252 1838.38,-252 1832.38,-252 1826.38,-246 1826.38,-240 1826.38,-240 1826.38,-228 1826.38,-228 1826.38,-222 1832.38,-216 1838.38,-216 1838.38,-216 1928.62,-216 1928.62,-216 1934.62,-216 1940.62,-222 1940.62,-228 1940.62,-228 1940.62,-240 1940.62,-240 1940.62,-246 1934.62,-252 1928.62,-252"/>
<text text-anchor="middle" x="1883.5" y="-229.32" font-family="Helvetica,sans-Serif" font-size="14.00">SubspacePred</text>
</a>
</g>
</g>
<!-- SubspacePred&#45;&gt;VectorSpace -->
<g id="edge75" class="edge">
<title>SubspacePred&#45;&gt;VectorSpace</title>
<path fill="none" stroke="black" d="M1825.91,-249.54C1821.39,-250.45 1816.88,-251.29 1812.5,-252 1616.65,-283.88 1381.67,-297.56 1271.82,-302.55"/>
<polygon fill="black" stroke="black" points="1271.99,-299.04 1262.15,-302.98 1272.3,-306.03 1271.99,-299.04"/>
</g>
<!-- Terminal&#45;&gt;Category -->
<g id="edge76" class="edge">
<title>Terminal&#45;&gt;Category</title>
<path fill="none" stroke="black" d="M2091.83,-108.41C2095.04,-132.39 2100.85,-175.86 2104.7,-204.58"/>
<polygon fill="black" stroke="black" points="2101.21,-204.94 2106.01,-214.39 2108.15,-204.01 2101.21,-204.94"/>
</g>
<!-- Upd -->
<g id="node49" class="node">
<title>Upd</title>
<g id="a_node49"><a xlink:href="coqdoc/Riktig.Structure.Bilinear.html#Upd.Upd" xlink:title="Upd">
<path fill="none" stroke="black" d="M2493.5,-36C2493.5,-36 2463.5,-36 2463.5,-36 2457.5,-36 2451.5,-30 2451.5,-24 2451.5,-24 2451.5,-12 2451.5,-12 2451.5,-6 2457.5,0 2463.5,0 2463.5,0 2493.5,0 2493.5,0 2499.5,0 2505.5,-6 2505.5,-12 2505.5,-12 2505.5,-24 2505.5,-24 2505.5,-30 2499.5,-36 2493.5,-36"/>
<text text-anchor="middle" x="2478.5" y="-13.32" font-family="Helvetica,sans-Serif" font-size="14.00">Upd</text>
</a>
</g>
</g>
<!-- VectorSpace&#45;&gt;AbGroup -->
<g id="edge77" class="edge">
<title>VectorSpace&#45;&gt;AbGroup</title>
<path fill="none" stroke="black" d="M1158.3,-312.52C1036.64,-325.64 731.39,-358.57 610.72,-371.58"/>
<polygon fill="black" stroke="black" points="610.36,-368.1 600.8,-372.65 611.11,-375.06 610.36,-368.1"/>
</g>
<!-- VectorSpace&#45;&gt;Field -->
<g id="edge78" class="edge">
<title>VectorSpace&#45;&gt;Field</title>
<path fill="none" stroke="black" d="M1188.27,-287.72C1173.56,-277.71 1153.75,-265.05 1136.52,-254.65"/>
<polygon fill="black" stroke="black" points="1138.42,-251.71 1128.04,-249.6 1134.84,-257.73 1138.42,-251.71"/>
</g>
</g>
</svg>
