<?xml version="1.0" encoding="UTF-8" standalone="no"?>
<!DOCTYPE svg PUBLIC "-//W3C//DTD SVG 1.1//EN"
 "http://www.w3.org/Graphics/SVG/1.1/DTD/svg11.dtd">
<!-- Generated by graphviz version 14.1.2 (0)
 -->
<!-- Title: structure Pages: 1 -->
<svg width="1806pt" height="620pt"
 viewBox="0.00 0.00 1806.00 620.00" xmlns="http://www.w3.org/2000/svg" xmlns:xlink="http://www.w3.org/1999/xlink">
<g id="graph0" class="graph" transform="scale(1 1) rotate(0) translate(4 616)">
<title>structure</title>
<polygon fill="white" stroke="none" points="-4,4 -4,-616 1801.66,-616 1801.66,4 -4,4"/>
<!-- AbGroup -->
<g id="node1" class="node">
<title>AbGroup</title>
<g id="a_node1"><a xlink:href="coqdoc/Riktig.Interface.AbGroup.html#AbGroup" xlink:title="AbGroup">
<path fill="none" stroke="black" d="M1158.91,-468C1158.91,-468 1106.16,-468 1106.16,-468 1100.16,-468 1094.16,-462 1094.16,-456 1094.16,-456 1094.16,-444 1094.16,-444 1094.16,-438 1100.16,-432 1106.16,-432 1106.16,-432 1158.91,-432 1158.91,-432 1164.91,-432 1170.91,-438 1170.91,-444 1170.91,-444 1170.91,-456 1170.91,-456 1170.91,-462 1164.91,-468 1158.91,-468"/>
<text xml:space="preserve" text-anchor="middle" x="1132.53" y="-445.32" font-family="Helvetica,sans-Serif" font-size="14.00">AbGroup</text>
</a>
</g>
</g>
<!-- Group -->
<g id="node14" class="node">
<title>Group</title>
<g id="a_node14"><a xlink:href="coqdoc/Riktig.Interface.Group.html#Group" xlink:title="Group">
<path fill="none" stroke="black" d="M1149.53,-540C1149.53,-540 1115.53,-540 1115.53,-540 1109.53,-540 1103.53,-534 1103.53,-528 1103.53,-528 1103.53,-516 1103.53,-516 1103.53,-510 1109.53,-504 1115.53,-504 1115.53,-504 1149.53,-504 1149.53,-504 1155.53,-504 1161.53,-510 1161.53,-516 1161.53,-516 1161.53,-528 1161.53,-528 1161.53,-534 1155.53,-540 1149.53,-540"/>
<text xml:space="preserve" text-anchor="middle" x="1132.53" y="-517.33" font-family="Helvetica,sans-Serif" font-size="14.00">Group</text>
</a>
</g>
</g>
<!-- AbGroup&#45;&gt;Group -->
<g id="edge1" class="edge">
<title>AbGroup&#45;&gt;Group</title>
<path fill="none" stroke="black" d="M1132.53,-468.3C1132.53,-475.59 1132.53,-484.27 1132.53,-492.46"/>
<polygon fill="black" stroke="black" points="1129.03,-492.38 1132.53,-502.38 1136.03,-492.38 1129.03,-492.38"/>
</g>
<!-- Alternating -->
<g id="node2" class="node">
<title>Alternating</title>
<g id="a_node2"><a xlink:href="coqdoc/Riktig.Interface.Bilinear.html#Alternating" xlink:title="Alternating">
<path fill="none" stroke="black" stroke-dasharray="5,2" d="M152.78,-108C152.78,-108 84.28,-108 84.28,-108 78.28,-108 72.28,-102 72.28,-96 72.28,-96 72.28,-84 72.28,-84 72.28,-78 78.28,-72 84.28,-72 84.28,-72 152.78,-72 152.78,-72 158.78,-72 164.78,-78 164.78,-84 164.78,-84 164.78,-96 164.78,-96 164.78,-102 158.78,-108 152.78,-108"/>
<text xml:space="preserve" text-anchor="middle" x="118.53" y="-85.33" font-family="Helvetica,sans-Serif" font-size="14.00">Alternating</text>
</a>
</g>
</g>
<!-- Field -->
<g id="node11" class="node">
<title>Field</title>
<g id="a_node11"><a xlink:href="coqdoc/Riktig.Interface.Field.html#Field" xlink:title="Field">
<path fill="none" stroke="black" d="M556.53,-324C556.53,-324 526.53,-324 526.53,-324 520.53,-324 514.53,-318 514.53,-312 514.53,-312 514.53,-300 514.53,-300 514.53,-294 520.53,-288 526.53,-288 526.53,-288 556.53,-288 556.53,-288 562.53,-288 568.53,-294 568.53,-300 568.53,-300 568.53,-312 568.53,-312 568.53,-318 562.53,-324 556.53,-324"/>
<text xml:space="preserve" text-anchor="middle" x="541.53" y="-301.32" font-family="Helvetica,sans-Serif" font-size="14.00">Field</text>
</a>
</g>
</g>
<!-- Alternating&#45;&gt;Field -->
<g id="edge2" class="edge">
<title>Alternating&#45;&gt;Field</title>
<path fill="none" stroke="black" d="M71.78,-102.94C50.74,-110.9 27.89,-123.74 15.53,-144 7.2,-157.66 6.98,-166.48 15.53,-180 68.38,-263.51 390.19,-294.21 502.72,-302.48"/>
<polygon fill="black" stroke="black" points="502.43,-305.97 512.66,-303.19 502.93,-298.98 502.43,-305.97"/>
</g>
<!-- MultilinearForm -->
<g id="node24" class="node">
<title>MultilinearForm</title>
<g id="a_node24"><a xlink:href="coqdoc/Riktig.Interface.Bilinear.html#MultilinearForm" xlink:title="MultilinearForm">
<path fill="none" stroke="black" stroke-dasharray="5,2" d="M414.16,-180C414.16,-180 314.91,-180 314.91,-180 308.91,-180 302.91,-174 302.91,-168 302.91,-168 302.91,-156 302.91,-156 302.91,-150 308.91,-144 314.91,-144 314.91,-144 414.16,-144 414.16,-144 420.16,-144 426.16,-150 426.16,-156 426.16,-156 426.16,-168 426.16,-168 426.16,-174 420.16,-180 414.16,-180"/>
<text xml:space="preserve" text-anchor="middle" x="364.53" y="-157.32" font-family="Helvetica,sans-Serif" font-size="14.00">MultilinearForm</text>
</a>
</g>
</g>
<!-- Alternating&#45;&gt;MultilinearForm -->
<g id="edge3" class="edge">
<title>Alternating&#45;&gt;MultilinearForm</title>
<path fill="none" stroke="black" d="M165.09,-104.25C200.95,-114.45 251.16,-128.74 292.23,-140.43"/>
<polygon fill="black" stroke="black" points="291.24,-143.78 301.82,-143.15 293.16,-137.05 291.24,-143.78"/>
</g>
<!-- VectorSpace -->
<g id="node33" class="node">
<title>VectorSpace</title>
<g id="a_node33"><a xlink:href="coqdoc/Riktig.Interface.VectorSpace.html#VectorSpace" xlink:title="VectorSpace">
<path fill="none" stroke="black" d="M703.28,-252C703.28,-252 625.78,-252 625.78,-252 619.78,-252 613.78,-246 613.78,-240 613.78,-240 613.78,-228 613.78,-228 613.78,-222 619.78,-216 625.78,-216 625.78,-216 703.28,-216 703.28,-216 709.28,-216 715.28,-222 715.28,-228 715.28,-228 715.28,-240 715.28,-240 715.28,-246 709.28,-252 703.28,-252"/>
<text xml:space="preserve" text-anchor="middle" x="664.53" y="-229.32" font-family="Helvetica,sans-Serif" font-size="14.00">VectorSpace</text>
</a>
</g>
</g>
<!-- Alternating&#45;&gt;VectorSpace -->
<g id="edge4" class="edge">
<title>Alternating&#45;&gt;VectorSpace</title>
<path fill="none" stroke="black" d="M122,-108.46C127.14,-129.32 138.96,-163.48 163.53,-180 242.33,-233 490.03,-200.89 601.94,-215.99"/>
<polygon fill="black" stroke="black" points="601.38,-219.44 611.8,-217.54 602.47,-212.53 601.38,-219.44"/>
</g>
<!-- Alternative -->
<g id="node3" class="node">
<title>Alternative</title>
<g id="a_node3"><a xlink:href="coqdoc/Riktig.Interface.Alternative.html#Alternative" xlink:title="Alternative">
<path fill="none" stroke="black" d="M921.03,-36C921.03,-36 854.03,-36 854.03,-36 848.03,-36 842.03,-30 842.03,-24 842.03,-24 842.03,-12 842.03,-12 842.03,-6 848.03,0 854.03,0 854.03,0 921.03,0 921.03,0 927.03,0 933.03,-6 933.03,-12 933.03,-12 933.03,-24 933.03,-24 933.03,-30 927.03,-36 921.03,-36"/>
<text xml:space="preserve" text-anchor="middle" x="887.53" y="-13.32" font-family="Helvetica,sans-Serif" font-size="14.00">Alternative</text>
</a>
</g>
</g>
<!-- Basis -->
<g id="node4" class="node">
<title>Basis</title>
<g id="a_node4"><a xlink:href="coqdoc/Riktig.Interface.Basis.html#Basis" xlink:title="Basis">
<path fill="none" stroke="black" stroke-dasharray="5,2" d="M1060.53,-108C1060.53,-108 1030.53,-108 1030.53,-108 1024.53,-108 1018.53,-102 1018.53,-96 1018.53,-96 1018.53,-84 1018.53,-84 1018.53,-78 1024.53,-72 1030.53,-72 1030.53,-72 1060.53,-72 1060.53,-72 1066.53,-72 1072.53,-78 1072.53,-84 1072.53,-84 1072.53,-96 1072.53,-96 1072.53,-102 1066.53,-108 1060.53,-108"/>
<text xml:space="preserve" text-anchor="middle" x="1045.53" y="-85.33" font-family="Helvetica,sans-Serif" font-size="14.00">Basis</text>
</a>
</g>
</g>
<!-- Basis&#45;&gt;Field -->
<g id="edge5" class="edge">
<title>Basis&#45;&gt;Field</title>
<path fill="none" stroke="black" d="M1070.28,-108.34C1093.5,-126.73 1122.09,-156.35 1103.53,-180 1038.2,-263.26 696.42,-294.31 580.24,-302.55"/>
<polygon fill="black" stroke="black" points="580.02,-299.06 570.28,-303.24 580.5,-306.04 580.02,-299.06"/>
</g>
<!-- LinearMap -->
<g id="node21" class="node">
<title>LinearMap</title>
<g id="a_node21"><a xlink:href="coqdoc/Riktig.Interface.LinearMap.html#LinearMap" xlink:title="LinearMap">
<path fill="none" stroke="black" stroke-dasharray="5,2" d="M1082.53,-180C1082.53,-180 1018.53,-180 1018.53,-180 1012.53,-180 1006.53,-174 1006.53,-168 1006.53,-168 1006.53,-156 1006.53,-156 1006.53,-150 1012.53,-144 1018.53,-144 1018.53,-144 1082.53,-144 1082.53,-144 1088.53,-144 1094.53,-150 1094.53,-156 1094.53,-156 1094.53,-168 1094.53,-168 1094.53,-174 1088.53,-180 1082.53,-180"/>
<text xml:space="preserve" text-anchor="middle" x="1050.53" y="-157.32" font-family="Helvetica,sans-Serif" font-size="14.00">LinearMap</text>
</a>
</g>
</g>
<!-- Basis&#45;&gt;LinearMap -->
<g id="edge6" class="edge">
<title>Basis&#45;&gt;LinearMap</title>
<path fill="none" stroke="black" d="M1046.77,-108.3C1047.29,-115.59 1047.91,-124.27 1048.49,-132.46"/>
<polygon fill="black" stroke="black" points="1045,-132.66 1049.2,-142.39 1051.98,-132.16 1045,-132.66"/>
</g>
<!-- Basis&#45;&gt;VectorSpace -->
<g id="edge7" class="edge">
<title>Basis&#45;&gt;VectorSpace</title>
<path fill="none" stroke="black" d="M1029.92,-108.26C1007.55,-132.83 968.11,-175.42 959.53,-180 886.06,-219.2 789.16,-230.1 726.84,-232.77"/>
<polygon fill="black" stroke="black" points="727,-229.26 717.13,-233.12 727.25,-236.25 727,-229.26"/>
</g>
<!-- BilinearMap -->
<g id="node5" class="node">
<title>BilinearMap</title>
<g id="a_node5"><a xlink:href="coqdoc/Riktig.Interface.Bilinear.html#BilinearMap" xlink:title="BilinearMap">
<path fill="none" stroke="black" stroke-dasharray="5,2" d="M568.41,-180C568.41,-180 494.66,-180 494.66,-180 488.66,-180 482.66,-174 482.66,-168 482.66,-168 482.66,-156 482.66,-156 482.66,-150 488.66,-144 494.66,-144 494.66,-144 568.41,-144 568.41,-144 574.41,-144 580.41,-150 580.41,-156 580.41,-156 580.41,-168 580.41,-168 580.41,-174 574.41,-180 568.41,-180"/>
<text xml:space="preserve" text-anchor="middle" x="531.53" y="-157.32" font-family="Helvetica,sans-Serif" font-size="14.00">BilinearMap</text>
</a>
</g>
</g>
<!-- BilinearMap&#45;&gt;Field -->
<g id="edge8" class="edge">
<title>BilinearMap&#45;&gt;Field</title>
<path fill="none" stroke="black" d="M530.92,-180.44C530.48,-198.41 530.3,-227.22 532.53,-252 533.25,-260.02 534.51,-268.66 535.86,-276.59"/>
<polygon fill="black" stroke="black" points="532.42,-277.2 537.66,-286.41 539.3,-275.95 532.42,-277.2"/>
</g>
<!-- BilinearMap&#45;&gt;VectorSpace -->
<g id="edge9" class="edge">
<title>BilinearMap&#45;&gt;VectorSpace</title>
<path fill="none" stroke="black" d="M564.75,-180.48C582.02,-189.57 603.32,-200.78 621.8,-210.51"/>
<polygon fill="black" stroke="black" points="619.92,-213.47 630.4,-215.03 623.18,-207.28 619.92,-213.47"/>
</g>
<!-- CCC -->
<g id="node6" class="node">
<title>CCC</title>
<g id="a_node6"><a xlink:href="coqdoc/Riktig.Interface.Category.html#CCC" xlink:title="CCC">
<path fill="none" stroke="black" d="M1354.53,-36C1354.53,-36 1324.53,-36 1324.53,-36 1318.53,-36 1312.53,-30 1312.53,-24 1312.53,-24 1312.53,-12 1312.53,-12 1312.53,-6 1318.53,0 1324.53,0 1324.53,0 1354.53,0 1354.53,0 1360.53,0 1366.53,-6 1366.53,-12 1366.53,-12 1366.53,-24 1366.53,-24 1366.53,-30 1360.53,-36 1354.53,-36"/>
<text xml:space="preserve" text-anchor="middle" x="1339.53" y="-13.32" font-family="Helvetica,sans-Serif" font-size="14.00">CCC</text>
</a>
</g>
</g>
<!-- Category -->
<g id="node7" class="node">
<title>Category</title>
<g id="a_node7"><a xlink:href="coqdoc/Riktig.Interface.Category.html#Category" xlink:title="Category">
<path fill="none" stroke="black" d="M1498.03,-252C1498.03,-252 1443.03,-252 1443.03,-252 1437.03,-252 1431.03,-246 1431.03,-240 1431.03,-240 1431.03,-228 1431.03,-228 1431.03,-222 1437.03,-216 1443.03,-216 1443.03,-216 1498.03,-216 1498.03,-216 1504.03,-216 1510.03,-222 1510.03,-228 1510.03,-228 1510.03,-240 1510.03,-240 1510.03,-246 1504.03,-252 1498.03,-252"/>
<text xml:space="preserve" text-anchor="middle" x="1470.53" y="-229.32" font-family="Helvetica,sans-Serif" font-size="14.00">Category</text>
</a>
</g>
</g>
<!-- CCC&#45;&gt;Category -->
<g id="edge10" class="edge">
<title>CCC&#45;&gt;Category</title>
<path fill="none" stroke="black" d="M1312.17,-22.25C1283.07,-27.33 1238.43,-40.14 1217.53,-72 1208.76,-85.38 1211.31,-93.26 1217.53,-108 1250.7,-186.55 1355.72,-216.07 1419.55,-226.92"/>
<polygon fill="black" stroke="black" points="1418.66,-230.32 1429.08,-228.44 1419.76,-223.41 1418.66,-230.32"/>
</g>
<!-- HasExponentials -->
<g id="node16" class="node">
<title>HasExponentials</title>
<g id="a_node16"><a xlink:href="coqdoc/Riktig.Interface.Category.html#HasExponentials" xlink:title="HasExponentials">
<path fill="none" stroke="black" d="M1346.28,-108C1346.28,-108 1238.78,-108 1238.78,-108 1232.78,-108 1226.78,-102 1226.78,-96 1226.78,-96 1226.78,-84 1226.78,-84 1226.78,-78 1232.78,-72 1238.78,-72 1238.78,-72 1346.28,-72 1346.28,-72 1352.28,-72 1358.28,-78 1358.28,-84 1358.28,-84 1358.28,-96 1358.28,-96 1358.28,-102 1352.28,-108 1346.28,-108"/>
<text xml:space="preserve" text-anchor="middle" x="1292.53" y="-85.33" font-family="Helvetica,sans-Serif" font-size="14.00">HasExponentials</text>
</a>
</g>
</g>
<!-- CCC&#45;&gt;HasExponentials -->
<g id="edge11" class="edge">
<title>CCC&#45;&gt;HasExponentials</title>
<path fill="none" stroke="black" d="M1327.91,-36.3C1322.62,-44.19 1316.24,-53.7 1310.36,-62.45"/>
<polygon fill="black" stroke="black" points="1307.53,-60.39 1304.86,-70.64 1313.34,-64.29 1307.53,-60.39"/>
</g>
<!-- HasProducts -->
<g id="node17" class="node">
<title>HasProducts</title>
<g id="a_node17"><a xlink:href="coqdoc/Riktig.Interface.Category.html#HasProducts" xlink:title="HasProducts">
<path fill="none" stroke="black" d="M1411.66,-180C1411.66,-180 1333.41,-180 1333.41,-180 1327.41,-180 1321.41,-174 1321.41,-168 1321.41,-168 1321.41,-156 1321.41,-156 1321.41,-150 1327.41,-144 1333.41,-144 1333.41,-144 1411.66,-144 1411.66,-144 1417.66,-144 1423.66,-150 1423.66,-156 1423.66,-156 1423.66,-168 1423.66,-168 1423.66,-174 1417.66,-180 1411.66,-180"/>
<text xml:space="preserve" text-anchor="middle" x="1372.53" y="-157.32" font-family="Helvetica,sans-Serif" font-size="14.00">HasProducts</text>
</a>
</g>
</g>
<!-- CCC&#45;&gt;HasProducts -->
<g id="edge12" class="edge">
<title>CCC&#45;&gt;HasProducts</title>
<path fill="none" stroke="black" d="M1351.14,-36.35C1357.18,-46.33 1364.02,-59.37 1367.53,-72 1372.99,-91.63 1374.15,-114.6 1374,-132.29"/>
<polygon fill="black" stroke="black" points="1370.51,-131.99 1373.76,-142.07 1377.51,-132.16 1370.51,-131.99"/>
</g>
<!-- Terminal -->
<g id="node32" class="node">
<title>Terminal</title>
<g id="a_node32"><a xlink:href="coqdoc/Riktig.Interface.Category.html#Terminal" xlink:title="Terminal">
<path fill="none" stroke="black" d="M1476.41,-108C1476.41,-108 1426.66,-108 1426.66,-108 1420.66,-108 1414.66,-102 1414.66,-96 1414.66,-96 1414.66,-84 1414.66,-84 1414.66,-78 1420.66,-72 1426.66,-72 1426.66,-72 1476.41,-72 1476.41,-72 1482.41,-72 1488.41,-78 1488.41,-84 1488.41,-84 1488.41,-96 1488.41,-96 1488.41,-102 1482.41,-108 1476.41,-108"/>
<text xml:space="preserve" text-anchor="middle" x="1451.53" y="-85.33" font-family="Helvetica,sans-Serif" font-size="14.00">Terminal</text>
</a>
</g>
</g>
<!-- CCC&#45;&gt;Terminal -->
<g id="edge13" class="edge">
<title>CCC&#45;&gt;Terminal</title>
<path fill="none" stroke="black" d="M1366.93,-36.12C1381.06,-44.96 1398.51,-55.86 1413.89,-65.47"/>
<polygon fill="black" stroke="black" points="1412.02,-68.43 1422.36,-70.76 1415.73,-62.5 1412.02,-68.43"/>
</g>
<!-- DecTotalOrder -->
<g id="node8" class="node">
<title>DecTotalOrder</title>
<g id="a_node8"><a xlink:href="coqdoc/Riktig.Interface.DecTotalOrder.html#DecTotalOrder" xlink:title="DecTotalOrder">
<path fill="none" stroke="black" d="M1486.28,-36C1486.28,-36 1396.78,-36 1396.78,-36 1390.78,-36 1384.78,-30 1384.78,-24 1384.78,-24 1384.78,-12 1384.78,-12 1384.78,-6 1390.78,0 1396.78,0 1396.78,0 1486.28,0 1486.28,0 1492.28,0 1498.28,-6 1498.28,-12 1498.28,-12 1498.28,-24 1498.28,-24 1498.28,-30 1492.28,-36 1486.28,-36"/>
<text xml:space="preserve" text-anchor="middle" x="1441.53" y="-13.32" font-family="Helvetica,sans-Serif" font-size="14.00">DecTotalOrder</text>
</a>
</g>
</g>
<!-- Determinant -->
<g id="node9" class="node">
<title>Determinant</title>
<g id="a_node9"><a xlink:href="coqdoc/Riktig.Interface.Determinant.html#Determinant" xlink:title="Determinant">
<path fill="none" stroke="black" stroke-dasharray="5,2" d="M403.66,-36C403.66,-36 325.41,-36 325.41,-36 319.41,-36 313.41,-30 313.41,-24 313.41,-24 313.41,-12 313.41,-12 313.41,-6 319.41,0 325.41,0 325.41,0 403.66,0 403.66,0 409.66,0 415.66,-6 415.66,-12 415.66,-12 415.66,-24 415.66,-24 415.66,-30 409.66,-36 403.66,-36"/>
<text xml:space="preserve" text-anchor="middle" x="364.53" y="-13.32" font-family="Helvetica,sans-Serif" font-size="14.00">Determinant</text>
</a>
</g>
</g>
<!-- Determinant&#45;&gt;Alternating -->
<g id="edge14" class="edge">
<title>Determinant&#45;&gt;Alternating</title>
<path fill="none" stroke="black" d="M312.96,-33.67C272.96,-45.06 217.52,-60.83 176.07,-72.63"/>
<polygon fill="black" stroke="black" points="175.17,-69.25 166.51,-75.35 177.08,-75.98 175.17,-69.25"/>
</g>
<!-- Determinant&#45;&gt;Basis -->
<g id="edge15" class="edge">
<title>Determinant&#45;&gt;Basis</title>
<path fill="none" stroke="black" d="M415.96,-18.48C525.1,-18.43 787.35,-23.84 1000.53,-72 1002.82,-72.52 1005.15,-73.13 1007.49,-73.8"/>
<polygon fill="black" stroke="black" points="1006.27,-77.08 1016.86,-76.86 1008.44,-70.43 1006.27,-77.08"/>
</g>
<!-- Determinant&#45;&gt;Field -->
<g id="edge16" class="edge">
<title>Determinant&#45;&gt;Field</title>
<path fill="none" stroke="black" d="M313,-20.22C203.67,-25.31 -38.08,-51.07 5.53,-180 18.44,-218.15 25.47,-232.2 60.53,-252 136.01,-294.63 402.36,-302.97 502.81,-304.6"/>
<polygon fill="black" stroke="black" points="502.65,-308.1 512.7,-304.75 502.75,-301.1 502.65,-308.1"/>
</g>
<!-- Determinant&#45;&gt;MultilinearForm -->
<g id="edge17" class="edge">
<title>Determinant&#45;&gt;MultilinearForm</title>
<path fill="none" stroke="black" d="M364.53,-36.41C364.53,-60.39 364.53,-103.86 364.53,-132.58"/>
<polygon fill="black" stroke="black" points="361.03,-132.38 364.53,-142.38 368.03,-132.38 361.03,-132.38"/>
</g>
<!-- Determinant&#45;&gt;VectorSpace -->
<g id="edge18" class="edge">
<title>Determinant&#45;&gt;VectorSpace</title>
<path fill="none" stroke="black" d="M416,-20.29C482.4,-23.5 600.41,-34.52 693.53,-72 745.69,-92.99 771.44,-94.2 797.53,-144 804.96,-158.17 806.51,-166.76 797.53,-180 788.8,-192.88 756.78,-205.84 726.35,-215.73"/>
<polygon fill="black" stroke="black" points="725.62,-212.29 717.14,-218.63 727.73,-218.96 725.62,-212.29"/>
</g>
<!-- Exp -->
<g id="node10" class="node">
<title>Exp</title>
<g id="a_node10"><a xlink:href="coqdoc/Riktig.Interface.Exp.html#Exp" xlink:title="Exp">
<path fill="none" stroke="black" d="M66.53,-180C66.53,-180 36.53,-180 36.53,-180 30.53,-180 24.53,-174 24.53,-168 24.53,-168 24.53,-156 24.53,-156 24.53,-150 30.53,-144 36.53,-144 36.53,-144 66.53,-144 66.53,-144 72.53,-144 78.53,-150 78.53,-156 78.53,-156 78.53,-168 78.53,-168 78.53,-174 72.53,-180 66.53,-180"/>
<text xml:space="preserve" text-anchor="middle" x="51.53" y="-157.32" font-family="Helvetica,sans-Serif" font-size="14.00">Exp</text>
</a>
</g>
</g>
<!-- OrderedField -->
<g id="node27" class="node">
<title>OrderedField</title>
<g id="a_node27"><a xlink:href="coqdoc/Riktig.Interface.Order.html#OrderedField" xlink:title="OrderedField">
<path fill="none" stroke="black" d="M268.41,-252C268.41,-252 188.66,-252 188.66,-252 182.66,-252 176.66,-246 176.66,-240 176.66,-240 176.66,-228 176.66,-228 176.66,-222 182.66,-216 188.66,-216 188.66,-216 268.41,-216 268.41,-216 274.41,-216 280.41,-222 280.41,-228 280.41,-228 280.41,-240 280.41,-240 280.41,-246 274.41,-252 268.41,-252"/>
<text xml:space="preserve" text-anchor="middle" x="228.53" y="-229.32" font-family="Helvetica,sans-Serif" font-size="14.00">OrderedField</text>
</a>
</g>
</g>
<!-- Exp&#45;&gt;OrderedField -->
<g id="edge19" class="edge">
<title>Exp&#45;&gt;OrderedField</title>
<path fill="none" stroke="black" d="M78.85,-174.42C83.41,-176.3 88.1,-178.22 92.53,-180 118.75,-190.54 147.93,-201.95 172.51,-211.48"/>
<polygon fill="black" stroke="black" points="171.1,-214.69 181.69,-215.03 173.63,-208.16 171.1,-214.69"/>
</g>
<!-- Ring -->
<g id="node30" class="node">
<title>Ring</title>
<g id="a_node30"><a xlink:href="coqdoc/Riktig.Interface.Ring.html#Ring" xlink:title="Ring">
<path fill="none" stroke="black" d="M1120.53,-396C1120.53,-396 1090.53,-396 1090.53,-396 1084.53,-396 1078.53,-390 1078.53,-384 1078.53,-384 1078.53,-372 1078.53,-372 1078.53,-366 1084.53,-360 1090.53,-360 1090.53,-360 1120.53,-360 1120.53,-360 1126.53,-360 1132.53,-366 1132.53,-372 1132.53,-372 1132.53,-384 1132.53,-384 1132.53,-390 1126.53,-396 1120.53,-396"/>
<text xml:space="preserve" text-anchor="middle" x="1105.53" y="-373.32" font-family="Helvetica,sans-Serif" font-size="14.00">Ring</text>
</a>
</g>
</g>
<!-- Field&#45;&gt;Ring -->
<g id="edge20" class="edge">
<title>Field&#45;&gt;Ring</title>
<path fill="none" stroke="black" d="M568.74,-310.38C660.68,-321.79 960.06,-358.94 1067.07,-372.23"/>
<polygon fill="black" stroke="black" points="1066.42,-375.67 1076.77,-373.43 1067.28,-368.73 1066.42,-375.67"/>
</g>
<!-- Functor -->
<g id="node12" class="node">
<title>Functor</title>
<g id="a_node12"><a xlink:href="coqdoc/Riktig.Interface.Category.html#Functor" xlink:title="Functor">
<path fill="none" stroke="black" d="M1573.78,-180C1573.78,-180 1529.28,-180 1529.28,-180 1523.28,-180 1517.28,-174 1517.28,-168 1517.28,-168 1517.28,-156 1517.28,-156 1517.28,-150 1523.28,-144 1529.28,-144 1529.28,-144 1573.78,-144 1573.78,-144 1579.78,-144 1585.78,-150 1585.78,-156 1585.78,-156 1585.78,-168 1585.78,-168 1585.78,-174 1579.78,-180 1573.78,-180"/>
<text xml:space="preserve" text-anchor="middle" x="1551.53" y="-157.32" font-family="Helvetica,sans-Serif" font-size="14.00">Functor</text>
</a>
</g>
</g>
<!-- Functor&#45;&gt;Category -->
<g id="edge21" class="edge">
<title>Functor&#45;&gt;Category</title>
<path fill="none" stroke="black" d="M1531.51,-180.3C1521.77,-188.72 1509.9,-198.98 1499.22,-208.21"/>
<polygon fill="black" stroke="black" points="1497.03,-205.48 1491.75,-214.66 1501.61,-210.77 1497.03,-205.48"/>
</g>
<!-- GeometricAlgebra -->
<g id="node13" class="node">
<title>GeometricAlgebra</title>
<g id="a_node13"><a xlink:href="coqdoc/Riktig.Interface.GeometricAlgebra.html#GeometricAlgebra" xlink:title="GeometricAlgebra">
<path fill="none" stroke="black" d="M979.16,-108C979.16,-108 861.91,-108 861.91,-108 855.91,-108 849.91,-102 849.91,-96 849.91,-96 849.91,-84 849.91,-84 849.91,-78 855.91,-72 861.91,-72 861.91,-72 979.16,-72 979.16,-72 985.16,-72 991.16,-78 991.16,-84 991.16,-84 991.16,-96 991.16,-96 991.16,-102 985.16,-108 979.16,-108"/>
<text xml:space="preserve" text-anchor="middle" x="920.53" y="-85.33" font-family="Helvetica,sans-Serif" font-size="14.00">GeometricAlgebra</text>
</a>
</g>
</g>
<!-- InnerProduct -->
<g id="node19" class="node">
<title>InnerProduct</title>
<g id="a_node19"><a xlink:href="coqdoc/Riktig.Interface.InnerProduct.html#InnerProduct" xlink:title="InnerProduct">
<path fill="none" stroke="black" d="M938.16,-180C938.16,-180 856.91,-180 856.91,-180 850.91,-180 844.91,-174 844.91,-168 844.91,-168 844.91,-156 844.91,-156 844.91,-150 850.91,-144 856.91,-144 856.91,-144 938.16,-144 938.16,-144 944.16,-144 950.16,-150 950.16,-156 950.16,-156 950.16,-168 950.16,-168 950.16,-174 944.16,-180 938.16,-180"/>
<text xml:space="preserve" text-anchor="middle" x="897.53" y="-157.32" font-family="Helvetica,sans-Serif" font-size="14.00">InnerProduct</text>
</a>
</g>
</g>
<!-- GeometricAlgebra&#45;&gt;InnerProduct -->
<g id="edge22" class="edge">
<title>GeometricAlgebra&#45;&gt;InnerProduct</title>
<path fill="none" stroke="black" d="M914.85,-108.3C912.4,-115.76 909.47,-124.68 906.72,-133.03"/>
<polygon fill="black" stroke="black" points="903.42,-131.86 903.63,-142.46 910.07,-134.05 903.42,-131.86"/>
</g>
<!-- GeometricAlgebra&#45;&gt;Ring -->
<g id="edge23" class="edge">
<title>GeometricAlgebra&#45;&gt;Ring</title>
<path fill="none" stroke="black" d="M991.59,-107.29C1039.93,-119.09 1096.38,-134.56 1103.53,-144 1149.37,-204.45 1129.12,-301.37 1115.01,-348.89"/>
<polygon fill="black" stroke="black" points="1111.76,-347.56 1112.14,-358.14 1118.45,-349.63 1111.76,-347.56"/>
</g>
<!-- Monoid -->
<g id="node23" class="node">
<title>Monoid</title>
<g id="a_node23"><a xlink:href="coqdoc/Riktig.Interface.Monoid.html#Monoid" xlink:title="Monoid">
<path fill="none" stroke="black" d="M1153.66,-612C1153.66,-612 1111.41,-612 1111.41,-612 1105.41,-612 1099.41,-606 1099.41,-600 1099.41,-600 1099.41,-588 1099.41,-588 1099.41,-582 1105.41,-576 1111.41,-576 1111.41,-576 1153.66,-576 1153.66,-576 1159.66,-576 1165.66,-582 1165.66,-588 1165.66,-588 1165.66,-600 1165.66,-600 1165.66,-606 1159.66,-612 1153.66,-612"/>
<text xml:space="preserve" text-anchor="middle" x="1132.53" y="-589.33" font-family="Helvetica,sans-Serif" font-size="14.00">Monoid</text>
</a>
</g>
</g>
<!-- Group&#45;&gt;Monoid -->
<g id="edge24" class="edge">
<title>Group&#45;&gt;Monoid</title>
<path fill="none" stroke="black" d="M1132.53,-540.3C1132.53,-547.59 1132.53,-556.27 1132.53,-564.46"/>
<polygon fill="black" stroke="black" points="1129.03,-564.38 1132.53,-574.38 1136.03,-564.38 1129.03,-564.38"/>
</g>
<!-- HasCoproducts -->
<g id="node15" class="node">
<title>HasCoproducts</title>
<g id="a_node15"><a xlink:href="coqdoc/Riktig.Interface.Category.html#HasCoproducts" xlink:title="HasCoproducts">
<path fill="none" stroke="black" d="M1713.03,-180C1713.03,-180 1616.03,-180 1616.03,-180 1610.03,-180 1604.03,-174 1604.03,-168 1604.03,-168 1604.03,-156 1604.03,-156 1604.03,-150 1610.03,-144 1616.03,-144 1616.03,-144 1713.03,-144 1713.03,-144 1719.03,-144 1725.03,-150 1725.03,-156 1725.03,-156 1725.03,-168 1725.03,-168 1725.03,-174 1719.03,-180 1713.03,-180"/>
<text xml:space="preserve" text-anchor="middle" x="1664.53" y="-157.32" font-family="Helvetica,sans-Serif" font-size="14.00">HasCoproducts</text>
</a>
</g>
</g>
<!-- HasCoproducts&#45;&gt;Category -->
<g id="edge25" class="edge">
<title>HasCoproducts&#45;&gt;Category</title>
<path fill="none" stroke="black" d="M1616.08,-180.48C1586.99,-190.98 1550.06,-204.31 1520.68,-214.91"/>
<polygon fill="black" stroke="black" points="1519.86,-211.48 1511.64,-218.17 1522.24,-218.06 1519.86,-211.48"/>
</g>
<!-- HasExponentials&#45;&gt;Category -->
<g id="edge26" class="edge">
<title>HasExponentials&#45;&gt;Category</title>
<path fill="none" stroke="black" d="M1291.68,-108.32C1291.67,-128.09 1294.71,-160.25 1312.53,-180 1339.73,-210.14 1384.58,-223.16 1419.56,-228.78"/>
<polygon fill="black" stroke="black" points="1418.64,-232.18 1429.04,-230.14 1419.64,-225.25 1418.64,-232.18"/>
</g>
<!-- HasExponentials&#45;&gt;HasProducts -->
<g id="edge27" class="edge">
<title>HasExponentials&#45;&gt;HasProducts</title>
<path fill="none" stroke="black" d="M1312.31,-108.3C1321.92,-116.72 1333.66,-126.98 1344.2,-136.21"/>
<polygon fill="black" stroke="black" points="1341.74,-138.71 1351.57,-142.66 1346.35,-133.44 1341.74,-138.71"/>
</g>
<!-- HasProducts&#45;&gt;Category -->
<g id="edge28" class="edge">
<title>HasProducts&#45;&gt;Category</title>
<path fill="none" stroke="black" d="M1397.01,-180.48C1409.14,-189.15 1423.98,-199.75 1437.14,-209.15"/>
<polygon fill="black" stroke="black" points="1434.96,-211.9 1445.14,-214.86 1439.03,-206.2 1434.96,-211.9"/>
</g>
<!-- Initial -->
<g id="node18" class="node">
<title>Initial</title>
<g id="a_node18"><a xlink:href="coqdoc/Riktig.Interface.Category.html#Initial" xlink:title="Initial">
<path fill="none" stroke="black" d="M1785.66,-180C1785.66,-180 1755.41,-180 1755.41,-180 1749.41,-180 1743.41,-174 1743.41,-168 1743.41,-168 1743.41,-156 1743.41,-156 1743.41,-150 1749.41,-144 1755.41,-144 1755.41,-144 1785.66,-144 1785.66,-144 1791.66,-144 1797.66,-150 1797.66,-156 1797.66,-156 1797.66,-168 1797.66,-168 1797.66,-174 1791.66,-180 1785.66,-180"/>
<text xml:space="preserve" text-anchor="middle" x="1770.53" y="-157.32" font-family="Helvetica,sans-Serif" font-size="14.00">Initial</text>
</a>
</g>
</g>
<!-- Initial&#45;&gt;Category -->
<g id="edge29" class="edge">
<title>Initial&#45;&gt;Category</title>
<path fill="none" stroke="black" d="M1743.3,-176.7C1740.38,-177.92 1737.42,-179.04 1734.53,-180 1662.38,-203.88 1575.4,-218.81 1521.53,-226.52"/>
<polygon fill="black" stroke="black" points="1521.14,-223.04 1511.72,-227.89 1522.11,-229.97 1521.14,-223.04"/>
</g>
<!-- InnerProduct&#45;&gt;VectorSpace -->
<g id="edge30" class="edge">
<title>InnerProduct&#45;&gt;VectorSpace</title>
<path fill="none" stroke="black" d="M844.66,-178.88C809.47,-189.46 763.1,-203.39 726.22,-214.47"/>
<polygon fill="black" stroke="black" points="725.61,-211 717.04,-217.22 727.63,-217.7 725.61,-211"/>
</g>
<!-- Integral -->
<g id="node20" class="node">
<title>Integral</title>
<g id="a_node20"><a xlink:href="coqdoc/Riktig.Interface.Integral.html#Integral" xlink:title="Integral">
<path fill="none" stroke="black" d="M251.53,-108C251.53,-108 205.53,-108 205.53,-108 199.53,-108 193.53,-102 193.53,-96 193.53,-96 193.53,-84 193.53,-84 193.53,-78 199.53,-72 205.53,-72 205.53,-72 251.53,-72 251.53,-72 257.53,-72 263.53,-78 263.53,-84 263.53,-84 263.53,-96 263.53,-96 263.53,-102 257.53,-108 251.53,-108"/>
<text xml:space="preserve" text-anchor="middle" x="228.53" y="-85.33" font-family="Helvetica,sans-Serif" font-size="14.00">Integral</text>
</a>
</g>
</g>
<!-- NormedSpace -->
<g id="node26" class="node">
<title>NormedSpace</title>
<g id="a_node26"><a xlink:href="coqdoc/Riktig.Interface.Norm.html#NormedSpace" xlink:title="NormedSpace">
<path fill="none" stroke="black" d="M272.91,-180C272.91,-180 184.16,-180 184.16,-180 178.16,-180 172.16,-174 172.16,-168 172.16,-168 172.16,-156 172.16,-156 172.16,-150 178.16,-144 184.16,-144 184.16,-144 272.91,-144 272.91,-144 278.91,-144 284.91,-150 284.91,-156 284.91,-156 284.91,-168 284.91,-168 284.91,-174 278.91,-180 272.91,-180"/>
<text xml:space="preserve" text-anchor="middle" x="228.53" y="-157.32" font-family="Helvetica,sans-Serif" font-size="14.00">NormedSpace</text>
</a>
</g>
</g>
<!-- Integral&#45;&gt;NormedSpace -->
<g id="edge31" class="edge">
<title>Integral&#45;&gt;NormedSpace</title>
<path fill="none" stroke="black" d="M228.53,-108.3C228.53,-115.59 228.53,-124.27 228.53,-132.46"/>
<polygon fill="black" stroke="black" points="225.03,-132.38 228.53,-142.38 232.03,-132.38 225.03,-132.38"/>
</g>
<!-- Integral&#45;&gt;OrderedField -->
<g id="edge32" class="edge">
<title>Integral&#45;&gt;OrderedField</title>
<path fill="none" stroke="black" d="M196.61,-108.46C183.84,-117.28 170.53,-129.27 163.53,-144 156.67,-158.45 156.67,-165.55 163.53,-180 168.89,-191.28 177.95,-200.95 187.63,-208.82"/>
<polygon fill="black" stroke="black" points="185.3,-211.44 195.4,-214.63 189.49,-205.84 185.3,-211.44"/>
</g>
<!-- Integral&#45;&gt;VectorSpace -->
<g id="edge33" class="edge">
<title>Integral&#45;&gt;VectorSpace</title>
<path fill="none" stroke="black" d="M263.96,-93.02C343.56,-98.05 533.98,-113.06 589.53,-144 615.36,-158.38 636.16,-185.39 649.24,-205.9"/>
<polygon fill="black" stroke="black" points="646.21,-207.64 654.41,-214.35 652.18,-203.99 646.21,-207.64"/>
</g>
<!-- LinearMap&#45;&gt;Field -->
<g id="edge34" class="edge">
<title>LinearMap&#45;&gt;Field</title>
<path fill="none" stroke="black" d="M1006.09,-175.86C1001.18,-177.26 996.25,-178.66 991.53,-180 839.09,-223.13 657.2,-273.24 579.63,-294.55"/>
<polygon fill="black" stroke="black" points="579.13,-291.06 570.41,-297.08 580.98,-297.81 579.13,-291.06"/>
</g>
<!-- LinearMap&#45;&gt;VectorSpace -->
<g id="edge35" class="edge">
<title>LinearMap&#45;&gt;VectorSpace</title>
<path fill="none" stroke="black" d="M1006.35,-176.57C1001.7,-177.81 997.04,-178.98 992.53,-180 900.93,-200.74 793.16,-216.54 726.84,-225.29"/>
<polygon fill="black" stroke="black" points="726.73,-221.78 717.26,-226.54 727.63,-228.72 726.73,-221.78"/>
</g>
<!-- Monad -->
<g id="node22" class="node">
<title>Monad</title>
<g id="a_node22"><a xlink:href="coqdoc/Riktig.Interface.Monad.html#Monad" xlink:title="Monad">
<path fill="none" stroke="black" d="M1566.78,-36C1566.78,-36 1528.28,-36 1528.28,-36 1522.28,-36 1516.28,-30 1516.28,-24 1516.28,-24 1516.28,-12 1516.28,-12 1516.28,-6 1522.28,0 1528.28,0 1528.28,0 1566.78,0 1566.78,0 1572.78,0 1578.78,-6 1578.78,-12 1578.78,-12 1578.78,-24 1578.78,-24 1578.78,-30 1572.78,-36 1566.78,-36"/>
<text xml:space="preserve" text-anchor="middle" x="1547.53" y="-13.32" font-family="Helvetica,sans-Serif" font-size="14.00">Monad</text>
</a>
</g>
</g>
<!-- MultilinearForm&#45;&gt;Field -->
<g id="edge36" class="edge">
<title>MultilinearForm&#45;&gt;Field</title>
<path fill="none" stroke="black" d="M386.24,-180.41C417.51,-205.5 475.37,-251.92 510.96,-280.47"/>
<polygon fill="black" stroke="black" points="508.76,-283.19 518.75,-286.72 513.14,-277.73 508.76,-283.19"/>
</g>
<!-- MultilinearForm&#45;&gt;VectorSpace -->
<g id="edge37" class="edge">
<title>MultilinearForm&#45;&gt;VectorSpace</title>
<path fill="none" stroke="black" d="M426.43,-175.62C472.47,-185.25 537.08,-199.26 602.58,-215.58"/>
<polygon fill="black" stroke="black" points="601.51,-218.92 612.06,-217.96 603.21,-212.13 601.51,-218.92"/>
</g>
<!-- NaturalTransformation -->
<g id="node25" class="node">
<title>NaturalTransformation</title>
<g id="a_node25"><a xlink:href="coqdoc/Riktig.Interface.Category.html#NaturalTransformation" xlink:title="NaturalTransformation">
<path fill="none" stroke="black" d="M1666.16,-108C1666.16,-108 1518.91,-108 1518.91,-108 1512.91,-108 1506.91,-102 1506.91,-96 1506.91,-96 1506.91,-84 1506.91,-84 1506.91,-78 1512.91,-72 1518.91,-72 1518.91,-72 1666.16,-72 1666.16,-72 1672.16,-72 1678.16,-78 1678.16,-84 1678.16,-84 1678.16,-96 1678.16,-96 1678.16,-102 1672.16,-108 1666.16,-108"/>
<text xml:space="preserve" text-anchor="middle" x="1592.53" y="-85.33" font-family="Helvetica,sans-Serif" font-size="14.00">NaturalTransformation</text>
</a>
</g>
</g>
<!-- NaturalTransformation&#45;&gt;Category -->
<g id="edge38" class="edge">
<title>NaturalTransformation&#45;&gt;Category</title>
<path fill="none" stroke="black" d="M1554.59,-108.49C1538.7,-117.32 1521.06,-129.3 1508.53,-144 1493.55,-161.58 1483.7,-185.94 1477.79,-204.73"/>
<polygon fill="black" stroke="black" points="1474.49,-203.57 1475.04,-214.15 1481.21,-205.54 1474.49,-203.57"/>
</g>
<!-- NaturalTransformation&#45;&gt;Functor -->
<g id="edge39" class="edge">
<title>NaturalTransformation&#45;&gt;Functor</title>
<path fill="none" stroke="black" d="M1582.4,-108.3C1577.83,-116.1 1572.33,-125.49 1567.25,-134.17"/>
<polygon fill="black" stroke="black" points="1564.35,-132.19 1562.32,-142.59 1570.39,-135.73 1564.35,-132.19"/>
</g>
<!-- NormedSpace&#45;&gt;OrderedField -->
<g id="edge40" class="edge">
<title>NormedSpace&#45;&gt;OrderedField</title>
<path fill="none" stroke="black" d="M228.53,-180.3C228.53,-187.59 228.53,-196.27 228.53,-204.46"/>
<polygon fill="black" stroke="black" points="225.03,-204.38 228.53,-214.38 232.03,-204.38 225.03,-204.38"/>
</g>
<!-- NormedSpace&#45;&gt;VectorSpace -->
<g id="edge41" class="edge">
<title>NormedSpace&#45;&gt;VectorSpace</title>
<path fill="none" stroke="black" d="M285.15,-178.31C287.97,-178.91 290.78,-179.48 293.53,-180 426.68,-204.99 465.98,-189.8 602.31,-215.77"/>
<polygon fill="black" stroke="black" points="601.63,-219.2 612.12,-217.68 602.97,-212.33 601.63,-219.2"/>
</g>
<!-- OrderedField&#45;&gt;Field -->
<g id="edge42" class="edge">
<title>OrderedField&#45;&gt;Field</title>
<path fill="none" stroke="black" d="M280.57,-246.64C343.21,-260.65 446.95,-283.85 502.91,-296.36"/>
<polygon fill="black" stroke="black" points="502.09,-299.77 512.61,-298.53 503.62,-292.93 502.09,-299.77"/>
</g>
<!-- PosInner -->
<g id="node28" class="node">
<title>PosInner</title>
<g id="a_node28"><a xlink:href="coqdoc/Riktig.Interface.PosInner.html#PosInner" xlink:title="PosInner">
<path fill="none" stroke="black" d="M672.91,-108C672.91,-108 620.16,-108 620.16,-108 614.16,-108 608.16,-102 608.16,-96 608.16,-96 608.16,-84 608.16,-84 608.16,-78 614.16,-72 620.16,-72 620.16,-72 672.91,-72 672.91,-72 678.91,-72 684.91,-78 684.91,-84 684.91,-84 684.91,-96 684.91,-96 684.91,-102 678.91,-108 672.91,-108"/>
<text xml:space="preserve" text-anchor="middle" x="646.53" y="-85.33" font-family="Helvetica,sans-Serif" font-size="14.00">PosInner</text>
</a>
</g>
</g>
<!-- PosInner&#45;&gt;InnerProduct -->
<g id="edge43" class="edge">
<title>PosInner&#45;&gt;InnerProduct</title>
<path fill="none" stroke="black" d="M685.2,-101.78C724.79,-112.83 787,-130.17 833.87,-143.25"/>
<polygon fill="black" stroke="black" points="832.8,-146.58 843.37,-145.89 834.68,-139.84 832.8,-146.58"/>
</g>
<!-- PosInner&#45;&gt;OrderedField -->
<g id="edge44" class="edge">
<title>PosInner&#45;&gt;OrderedField</title>
<path fill="none" stroke="black" d="M607.69,-97.57C571.2,-104.95 516,-119.24 473.53,-144 453.43,-155.72 455.9,-168.75 435.53,-180 390.91,-204.64 334.56,-218.1 291.92,-225.28"/>
<polygon fill="black" stroke="black" points="291.37,-221.82 282.05,-226.86 292.48,-228.73 291.37,-221.82"/>
</g>
<!-- PosInner&#45;&gt;VectorSpace -->
<g id="edge45" class="edge">
<title>PosInner&#45;&gt;VectorSpace</title>
<path fill="none" stroke="black" d="M648.74,-108.41C651.78,-132.39 657.29,-175.86 660.93,-204.58"/>
<polygon fill="black" stroke="black" points="657.44,-204.91 662.17,-214.39 664.39,-204.03 657.44,-204.91"/>
</g>
<!-- Reals -->
<g id="node29" class="node">
<title>Reals</title>
<g id="a_node29"><a xlink:href="coqdoc/Riktig.Interface.Reals.html#Reals" xlink:title="Reals">
<path fill="none" stroke="black" d="M583.53,-252C583.53,-252 553.53,-252 553.53,-252 547.53,-252 541.53,-246 541.53,-240 541.53,-240 541.53,-228 541.53,-228 541.53,-222 547.53,-216 553.53,-216 553.53,-216 583.53,-216 583.53,-216 589.53,-216 595.53,-222 595.53,-228 595.53,-228 595.53,-240 595.53,-240 595.53,-246 589.53,-252 583.53,-252"/>
<text xml:space="preserve" text-anchor="middle" x="568.53" y="-229.32" font-family="Helvetica,sans-Serif" font-size="14.00">Reals</text>
</a>
</g>
</g>
<!-- Reals&#45;&gt;Field -->
<g id="edge46" class="edge">
<title>Reals&#45;&gt;Field</title>
<path fill="none" stroke="black" d="M561.86,-252.3C558.95,-259.85 555.46,-268.88 552.21,-277.32"/>
<polygon fill="black" stroke="black" points="549.01,-275.89 548.67,-286.48 555.54,-278.41 549.01,-275.89"/>
</g>
<!-- Ring&#45;&gt;AbGroup -->
<g id="edge47" class="edge">
<title>Ring&#45;&gt;AbGroup</title>
<path fill="none" stroke="black" d="M1112.21,-396.3C1115.12,-403.85 1118.6,-412.88 1121.86,-421.32"/>
<polygon fill="black" stroke="black" points="1118.53,-422.41 1125.39,-430.48 1125.06,-419.89 1118.53,-422.41"/>
</g>
<!-- SubspacePred -->
<g id="node31" class="node">
<title>SubspacePred</title>
<g id="a_node31"><a xlink:href="coqdoc/Riktig.Interface.Subspace.html#SubspacePred" xlink:title="SubspacePred">
<path fill="none" stroke="black" d="M776.66,-180C776.66,-180 686.41,-180 686.41,-180 680.41,-180 674.41,-174 674.41,-168 674.41,-168 674.41,-156 674.41,-156 674.41,-150 680.41,-144 686.41,-144 686.41,-144 776.66,-144 776.66,-144 782.66,-144 788.66,-150 788.66,-156 788.66,-156 788.66,-168 788.66,-168 788.66,-174 782.66,-180 776.66,-180"/>
<text xml:space="preserve" text-anchor="middle" x="731.53" y="-157.32" font-family="Helvetica,sans-Serif" font-size="14.00">SubspacePred</text>
</a>
</g>
</g>
<!-- SubspacePred&#45;&gt;VectorSpace -->
<g id="edge48" class="edge">
<title>SubspacePred&#45;&gt;VectorSpace</title>
<path fill="none" stroke="black" d="M714.97,-180.3C707.1,-188.53 697.54,-198.52 688.86,-207.58"/>
<polygon fill="black" stroke="black" points="686.34,-205.16 681.95,-214.8 691.39,-210 686.34,-205.16"/>
</g>
<!-- Terminal&#45;&gt;Category -->
<g id="edge49" class="edge">
<title>Terminal&#45;&gt;Category</title>
<path fill="none" stroke="black" d="M1453.86,-108.41C1457.07,-132.39 1462.89,-175.86 1466.73,-204.58"/>
<polygon fill="black" stroke="black" points="1463.25,-204.94 1468.04,-214.39 1470.19,-204.01 1463.25,-204.94"/>
</g>
<!-- VectorSpace&#45;&gt;AbGroup -->
<g id="edge50" class="edge">
<title>VectorSpace&#45;&gt;AbGroup</title>
<path fill="none" stroke="black" d="M715.51,-240.6C827.51,-254.05 1089.23,-292.23 1141.53,-360 1154.72,-377.08 1150.94,-401.84 1144.73,-420.91"/>
<polygon fill="black" stroke="black" points="1141.46,-419.64 1141.31,-430.23 1148.04,-422.05 1141.46,-419.64"/>
</g>
<!-- VectorSpace&#45;&gt;Field -->
<g id="edge51" class="edge">
<title>VectorSpace&#45;&gt;Field</title>
<path fill="none" stroke="black" d="M633.81,-252.48C617.16,-261.96 596.44,-273.75 578.86,-283.75"/>
<polygon fill="black" stroke="black" points="577.21,-280.67 570.25,-288.66 580.67,-286.75 577.21,-280.67"/>
</g>
</g>
</svg>
