<?xml version="1.0" encoding="UTF-8" standalone="no"?>
<!DOCTYPE svg PUBLIC "-//W3C//DTD SVG 1.1//EN"
 "http://www.w3.org/Graphics/SVG/1.1/DTD/svg11.dtd">
<!-- Generated by graphviz version 14.1.2 (0)
 -->
<!-- Title: structure Pages: 1 -->
<svg width="761pt" height="188pt"
 viewBox="0.00 0.00 761.00 188.00" xmlns="http://www.w3.org/2000/svg" xmlns:xlink="http://www.w3.org/1999/xlink">
<g id="graph0" class="graph" transform="scale(1 1) rotate(0) translate(4 184)">
<title>structure</title>
<polygon fill="white" stroke="none" points="-4,4 -4,-184 756.62,-184 756.62,4 -4,4"/>
<!-- Alternating -->
<g id="node1" class="node">
<title>Alternating</title>
<g id="a_node1"><a xlink:href="coqdoc/Riktig.Interface.Bilinear.html#Alternating" xlink:title="Alternating">
<path fill="none" stroke="black" stroke-dasharray="5,2" d="M92.88,-108C92.88,-108 24.38,-108 24.38,-108 18.38,-108 12.38,-102 12.38,-96 12.38,-96 12.38,-84 12.38,-84 12.38,-78 18.38,-72 24.38,-72 24.38,-72 92.88,-72 92.88,-72 98.88,-72 104.88,-78 104.88,-84 104.88,-84 104.88,-96 104.88,-96 104.88,-102 98.88,-108 92.88,-108"/>
<text xml:space="preserve" text-anchor="middle" x="58.62" y="-85.33" font-family="Helvetica,sans-Serif" font-size="14.00">Alternating</text>
</a>
</g>
</g>
<!-- MultilinearForm -->
<g id="node11" class="node">
<title>MultilinearForm</title>
<g id="a_node11"><a xlink:href="coqdoc/Riktig.Interface.Bilinear.html#MultilinearForm" xlink:title="MultilinearForm">
<path fill="none" stroke="black" stroke-dasharray="5,2" d="M111.25,-180C111.25,-180 12,-180 12,-180 6,-180 0,-174 0,-168 0,-168 0,-156 0,-156 0,-150 6,-144 12,-144 12,-144 111.25,-144 111.25,-144 117.25,-144 123.25,-150 123.25,-156 123.25,-156 123.25,-168 123.25,-168 123.25,-174 117.25,-180 111.25,-180"/>
<text xml:space="preserve" text-anchor="middle" x="61.62" y="-157.32" font-family="Helvetica,sans-Serif" font-size="14.00">MultilinearForm</text>
</a>
</g>
</g>
<!-- Alternating&#45;&gt;MultilinearForm -->
<g id="edge1" class="edge">
<title>Alternating&#45;&gt;MultilinearForm</title>
<path fill="none" stroke="black" d="M59.37,-108.3C59.68,-115.59 60.05,-124.27 60.4,-132.46"/>
<polygon fill="black" stroke="black" points="56.9,-132.54 60.83,-142.38 63.9,-132.24 56.9,-132.54"/>
</g>
<!-- Basis -->
<g id="node2" class="node">
<title>Basis</title>
<g id="a_node2"><a xlink:href="coqdoc/Riktig.Interface.Basis.html#Basis" xlink:title="Basis">
<path fill="none" stroke="black" stroke-dasharray="5,2" d="M202.62,-108C202.62,-108 172.62,-108 172.62,-108 166.62,-108 160.62,-102 160.62,-96 160.62,-96 160.62,-84 160.62,-84 160.62,-78 166.62,-72 172.62,-72 172.62,-72 202.62,-72 202.62,-72 208.62,-72 214.62,-78 214.62,-84 214.62,-84 214.62,-96 214.62,-96 214.62,-102 208.62,-108 202.62,-108"/>
<text xml:space="preserve" text-anchor="middle" x="187.62" y="-85.33" font-family="Helvetica,sans-Serif" font-size="14.00">Basis</text>
</a>
</g>
</g>
<!-- LinearMap -->
<g id="node10" class="node">
<title>LinearMap</title>
<g id="a_node10"><a xlink:href="coqdoc/Riktig.Interface.LinearMap.html#LinearMap" xlink:title="LinearMap">
<path fill="none" stroke="black" stroke-dasharray="5,2" d="M219.62,-180C219.62,-180 155.62,-180 155.62,-180 149.62,-180 143.62,-174 143.62,-168 143.62,-168 143.62,-156 143.62,-156 143.62,-150 149.62,-144 155.62,-144 155.62,-144 219.62,-144 219.62,-144 225.62,-144 231.62,-150 231.62,-156 231.62,-156 231.62,-168 231.62,-168 231.62,-174 225.62,-180 219.62,-180"/>
<text xml:space="preserve" text-anchor="middle" x="187.62" y="-157.32" font-family="Helvetica,sans-Serif" font-size="14.00">LinearMap</text>
</a>
</g>
</g>
<!-- Basis&#45;&gt;LinearMap -->
<g id="edge2" class="edge">
<title>Basis&#45;&gt;LinearMap</title>
<path fill="none" stroke="black" d="M187.62,-108.3C187.62,-115.59 187.62,-124.27 187.62,-132.46"/>
<polygon fill="black" stroke="black" points="184.13,-132.38 187.63,-142.38 191.13,-132.38 184.13,-132.38"/>
</g>
<!-- BilinearMap -->
<g id="node3" class="node">
<title>BilinearMap</title>
<g id="a_node3"><a xlink:href="coqdoc/Riktig.Interface.Bilinear.html#BilinearMap" xlink:title="BilinearMap">
<path fill="none" stroke="black" stroke-dasharray="5,2" d="M287.5,-36C287.5,-36 213.75,-36 213.75,-36 207.75,-36 201.75,-30 201.75,-24 201.75,-24 201.75,-12 201.75,-12 201.75,-6 207.75,0 213.75,0 213.75,0 287.5,0 287.5,0 293.5,0 299.5,-6 299.5,-12 299.5,-12 299.5,-24 299.5,-24 299.5,-30 293.5,-36 287.5,-36"/>
<text xml:space="preserve" text-anchor="middle" x="250.62" y="-13.32" font-family="Helvetica,sans-Serif" font-size="14.00">BilinearMap</text>
</a>
</g>
</g>
<!-- Determinant -->
<g id="node4" class="node">
<title>Determinant</title>
<g id="a_node4"><a xlink:href="coqdoc/Riktig.Interface.Determinant.html#Determinant" xlink:title="Determinant">
<path fill="none" stroke="black" stroke-dasharray="5,2" d="M171.75,-36C171.75,-36 93.5,-36 93.5,-36 87.5,-36 81.5,-30 81.5,-24 81.5,-24 81.5,-12 81.5,-12 81.5,-6 87.5,0 93.5,0 93.5,0 171.75,0 171.75,0 177.75,0 183.75,-6 183.75,-12 183.75,-12 183.75,-24 183.75,-24 183.75,-30 177.75,-36 171.75,-36"/>
<text xml:space="preserve" text-anchor="middle" x="132.62" y="-13.32" font-family="Helvetica,sans-Serif" font-size="14.00">Determinant</text>
</a>
</g>
</g>
<!-- Determinant&#45;&gt;Alternating -->
<g id="edge3" class="edge">
<title>Determinant&#45;&gt;Alternating</title>
<path fill="none" stroke="black" d="M114.33,-36.3C105.53,-44.63 94.8,-54.78 85.13,-63.93"/>
<polygon fill="black" stroke="black" points="82.92,-61.2 78.06,-70.61 87.73,-66.28 82.92,-61.2"/>
</g>
<!-- Determinant&#45;&gt;Basis -->
<g id="edge4" class="edge">
<title>Determinant&#45;&gt;Basis</title>
<path fill="none" stroke="black" d="M146.22,-36.3C152.55,-44.36 160.21,-54.11 167.21,-63.02"/>
<polygon fill="black" stroke="black" points="164.32,-65 173.25,-70.71 169.82,-60.68 164.32,-65"/>
</g>
<!-- Determinant&#45;&gt;MultilinearForm -->
<g id="edge5" class="edge">
<title>Determinant&#45;&gt;MultilinearForm</title>
<path fill="none" stroke="black" d="M131.78,-36.38C130.24,-55.07 125.89,-85.18 113.62,-108 108.19,-118.11 100.24,-127.6 92.19,-135.68"/>
<polygon fill="black" stroke="black" points="89.82,-133.1 84.96,-142.52 94.63,-138.19 89.82,-133.1"/>
</g>
<!-- HasAbs -->
<g id="node5" class="node">
<title>HasAbs</title>
<g id="a_node5"><a xlink:href="coqdoc/Riktig.Interface.Order.html#HasAbs" xlink:title="HasAbs">
<path fill="none" stroke="black" d="M373.88,-36C373.88,-36 329.38,-36 329.38,-36 323.38,-36 317.38,-30 317.38,-24 317.38,-24 317.38,-12 317.38,-12 317.38,-6 323.38,0 329.38,0 329.38,0 373.88,0 373.88,0 379.88,0 385.88,-6 385.88,-12 385.88,-12 385.88,-24 385.88,-24 385.88,-30 379.88,-36 373.88,-36"/>
<text xml:space="preserve" text-anchor="middle" x="351.62" y="-13.32" font-family="Helvetica,sans-Serif" font-size="14.00">HasAbs</text>
</a>
</g>
</g>
<!-- HasAlt -->
<g id="node6" class="node">
<title>HasAlt</title>
<g id="a_node6"><a xlink:href="coqdoc/Riktig.Interface.Alternative.html#HasAlt" xlink:title="HasAlt">
<path fill="none" stroke="black" d="M453.12,-36C453.12,-36 416.12,-36 416.12,-36 410.12,-36 404.12,-30 404.12,-24 404.12,-24 404.12,-12 404.12,-12 404.12,-6 410.12,0 416.12,0 416.12,0 453.12,0 453.12,0 459.12,0 465.12,-6 465.12,-12 465.12,-12 465.12,-24 465.12,-24 465.12,-30 459.12,-36 453.12,-36"/>
<text xml:space="preserve" text-anchor="middle" x="434.62" y="-13.32" font-family="Helvetica,sans-Serif" font-size="14.00">HasAlt</text>
</a>
</g>
</g>
<!-- HasNorm -->
<g id="node7" class="node">
<title>HasNorm</title>
<g id="a_node7"><a xlink:href="coqdoc/Riktig.Interface.Norm.html#HasNorm" xlink:title="HasNorm">
<path fill="none" stroke="black" d="M550.5,-36C550.5,-36 494.75,-36 494.75,-36 488.75,-36 482.75,-30 482.75,-24 482.75,-24 482.75,-12 482.75,-12 482.75,-6 488.75,0 494.75,0 494.75,0 550.5,0 550.5,0 556.5,0 562.5,-6 562.5,-12 562.5,-12 562.5,-24 562.5,-24 562.5,-30 556.5,-36 550.5,-36"/>
<text xml:space="preserve" text-anchor="middle" x="522.62" y="-13.32" font-family="Helvetica,sans-Serif" font-size="14.00">HasNorm</text>
</a>
</g>
</g>
<!-- HasOle -->
<g id="node8" class="node">
<title>HasOle</title>
<g id="a_node8"><a xlink:href="coqdoc/Riktig.Interface.DecTotalOrder.html#HasOle" xlink:title="HasOle">
<path fill="none" stroke="black" d="M634.38,-36C634.38,-36 592.88,-36 592.88,-36 586.88,-36 580.88,-30 580.88,-24 580.88,-24 580.88,-12 580.88,-12 580.88,-6 586.88,0 592.88,0 592.88,0 634.38,0 634.38,0 640.38,0 646.38,-6 646.38,-12 646.38,-12 646.38,-24 646.38,-24 646.38,-30 640.38,-36 634.38,-36"/>
<text xml:space="preserve" text-anchor="middle" x="613.62" y="-13.32" font-family="Helvetica,sans-Serif" font-size="14.00">HasOle</text>
</a>
</g>
</g>
<!-- HasReturn -->
<g id="node9" class="node">
<title>HasReturn</title>
<g id="a_node9"><a xlink:href="coqdoc/Riktig.Interface.Monad.html#HasReturn" xlink:title="HasReturn">
<path fill="none" stroke="black" d="M740.62,-36C740.62,-36 676.62,-36 676.62,-36 670.62,-36 664.62,-30 664.62,-24 664.62,-24 664.62,-12 664.62,-12 664.62,-6 670.62,0 676.62,0 676.62,0 740.62,0 740.62,0 746.62,0 752.62,-6 752.62,-12 752.62,-12 752.62,-24 752.62,-24 752.62,-30 746.62,-36 740.62,-36"/>
<text xml:space="preserve" text-anchor="middle" x="708.62" y="-13.32" font-family="Helvetica,sans-Serif" font-size="14.00">HasReturn</text>
</a>
</g>
</g>
</g>
</svg>
