<?xml version="1.0" encoding="UTF-8" standalone="no"?>
<!DOCTYPE svg PUBLIC "-//W3C//DTD SVG 1.1//EN"
 "http://www.w3.org/Graphics/SVG/1.1/DTD/svg11.dtd">
<!-- Generated by graphviz version 12.2.1 (0)
 -->
<!-- Title: riktig Pages: 1 -->
<svg width="1100pt" height="1394pt"
 viewBox="0.00 0.00 1100.00 1394.00" xmlns="http://www.w3.org/2000/svg" xmlns:xlink="http://www.w3.org/1999/xlink">
<g id="graph0" class="graph" transform="scale(1 1) rotate(0) translate(4 1390)">
<title>riktig</title>
<polygon fill="white" stroke="none" points="-4,4 -4,-1390 1096,-1390 1096,4 -4,4"/>
<!-- Magma -->
<g id="node1" class="node">
<title>Magma</title>
<g id="a_node1"><a xlink:href="theories/Structure/Magma.v" xlink:title="theories/Structure/Magma.v">
<polygon fill="none" stroke="black" points="500.5,-1329 500.5,-1385.5 663.5,-1385.5 663.5,-1329 500.5,-1329"/>
<text text-anchor="middle" x="582" y="-1371.05" font-family="Helvetica,sans-Serif" font-size="11.00">Magma</text>
<polyline fill="none" stroke="black" points="500.5,-1364 663.5,-1364"/>
<text text-anchor="start" x="508.5" y="-1349.55" font-family="Helvetica,sans-Serif" font-size="11.00">equivalence :: Equivalence</text>
<text text-anchor="start" x="508.5" y="-1336.05" font-family="Helvetica,sans-Serif" font-size="11.00">op_proper :: Proper</text>
</a>
</g>
</g>
<!-- Semigroup -->
<g id="node2" class="node">
<title>Semigroup</title>
<g id="a_node2"><a xlink:href="theories/Structure/Semigroup.v" xlink:title="theories/Structure/Semigroup.v">
<polygon fill="none" stroke="black" points="496.75,-1229.75 496.75,-1272.75 667.25,-1272.75 667.25,-1229.75 496.75,-1229.75"/>
<text text-anchor="middle" x="582" y="-1258.3" font-family="Helvetica,sans-Serif" font-size="11.00">Semigroup</text>
<polyline fill="none" stroke="black" points="496.75,-1251.25 667.25,-1251.25"/>
<text text-anchor="start" x="504.75" y="-1236.8" font-family="Helvetica,sans-Serif" font-size="11.00">is_associative :: Associative</text>
</a>
</g>
</g>
<!-- Semigroup&#45;&gt;Magma -->
<g id="edge1" class="edge">
<title>Semigroup&#45;&gt;Magma</title>
<path fill="none" stroke="black" d="M582,-1272.8C582,-1285.53 582,-1302.3 582,-1317.47"/>
<polygon fill="none" stroke="black" points="578.5,-1317.14 582,-1327.14 585.5,-1317.14 578.5,-1317.14"/>
<text text-anchor="middle" x="599.25" y="-1297.95" font-family="Helvetica,sans-Serif" font-size="9.00" fill="#666666">magma</text>
</g>
<!-- Monoid -->
<g id="node3" class="node">
<title>Monoid</title>
<g id="a_node3"><a xlink:href="theories/Structure/Monoid.v" xlink:title="theories/Structure/Monoid.v">
<polygon fill="none" stroke="black" points="487.75,-1117 487.75,-1173.5 676.25,-1173.5 676.25,-1117 487.75,-1117"/>
<text text-anchor="middle" x="582" y="-1159.05" font-family="Helvetica,sans-Serif" font-size="11.00">Monoid</text>
<polyline fill="none" stroke="black" points="487.75,-1152 676.25,-1152"/>
<text text-anchor="start" x="495.75" y="-1137.55" font-family="Helvetica,sans-Serif" font-size="11.00">is_left_identity :: LeftIdentity</text>
<text text-anchor="start" x="495.75" y="-1124.05" font-family="Helvetica,sans-Serif" font-size="11.00">is_right_identity :: RightIdentity</text>
</a>
</g>
</g>
<!-- Monoid&#45;&gt;Semigroup -->
<g id="edge2" class="edge">
<title>Monoid&#45;&gt;Semigroup</title>
<path fill="none" stroke="black" d="M582,-1173.85C582,-1187.48 582,-1204.01 582,-1218.2"/>
<polygon fill="none" stroke="black" points="578.5,-1217.94 582,-1227.94 585.5,-1217.94 578.5,-1217.94"/>
<text text-anchor="middle" x="606" y="-1198.7" font-family="Helvetica,sans-Serif" font-size="9.00" fill="#666666">semigroup</text>
</g>
<!-- Group -->
<g id="node4" class="node">
<title>Group</title>
<g id="a_node4"><a xlink:href="theories/Structure/Group.v" xlink:title="theories/Structure/Group.v">
<polygon fill="none" stroke="black" points="450.25,-977.25 450.25,-1047.25 635.75,-1047.25 635.75,-977.25 450.25,-977.25"/>
<text text-anchor="middle" x="543" y="-1032.8" font-family="Helvetica,sans-Serif" font-size="11.00">Group</text>
<polyline fill="none" stroke="black" points="450.25,-1025.75 635.75,-1025.75"/>
<text text-anchor="start" x="458.25" y="-1011.3" font-family="Helvetica,sans-Serif" font-size="11.00">neg_proper :: Proper</text>
<text text-anchor="start" x="458.25" y="-997.8" font-family="Helvetica,sans-Serif" font-size="11.00">is_left_inverse :: LeftInverse</text>
<text text-anchor="start" x="458.25" y="-984.3" font-family="Helvetica,sans-Serif" font-size="11.00">is_right_inverse :: RightInverse</text>
</a>
</g>
</g>
<!-- Group&#45;&gt;Monoid -->
<g id="edge3" class="edge">
<title>Group&#45;&gt;Monoid</title>
<path fill="none" stroke="black" d="M553.25,-1047.67C558.55,-1065.5 565.05,-1087.33 570.53,-1105.72"/>
<polygon fill="none" stroke="black" points="567.15,-1106.62 573.35,-1115.21 573.85,-1104.62 567.15,-1106.62"/>
<text text-anchor="middle" x="584.02" y="-1085.95" font-family="Helvetica,sans-Serif" font-size="9.00" fill="#666666">monoid</text>
</g>
<!-- AbGroup -->
<g id="node5" class="node">
<title>AbGroup</title>
<g id="a_node5"><a xlink:href="theories/Structure/AbGroup.v" xlink:title="theories/Structure/AbGroup.v">
<polygon fill="none" stroke="black" points="446.88,-837.5 446.88,-880.5 639.12,-880.5 639.12,-837.5 446.88,-837.5"/>
<text text-anchor="middle" x="543" y="-866.05" font-family="Helvetica,sans-Serif" font-size="11.00">AbGroup</text>
<polyline fill="none" stroke="black" points="446.88,-859 639.12,-859"/>
<text text-anchor="start" x="454.88" y="-844.55" font-family="Helvetica,sans-Serif" font-size="11.00">is_commutative :: Commutative</text>
</a>
</g>
</g>
<!-- AbGroup&#45;&gt;Group -->
<g id="edge4" class="edge">
<title>AbGroup&#45;&gt;Group</title>
<path fill="none" stroke="black" d="M543,-880.71C543,-902.47 543,-937.39 543,-965.64"/>
<polygon fill="none" stroke="black" points="539.5,-965.37 543,-975.37 546.5,-965.37 539.5,-965.37"/>
<text text-anchor="middle" x="556.5" y="-932.7" font-family="Helvetica,sans-Serif" font-size="9.00" fill="#666666">group</text>
</g>
<!-- Semiring -->
<g id="node6" class="node">
<title>Semiring</title>
<g id="a_node6"><a xlink:href="theories/Structure/Semiring.v" xlink:title="theories/Structure/Semiring.v">
<polygon fill="none" stroke="black" points="653.75,-963.75 653.75,-1060.75 884.25,-1060.75 884.25,-963.75 653.75,-963.75"/>
<text text-anchor="middle" x="769" y="-1046.3" font-family="Helvetica,sans-Serif" font-size="11.00">Semiring</text>
<polyline fill="none" stroke="black" points="653.75,-1039.25 884.25,-1039.25"/>
<text text-anchor="start" x="661.75" y="-1024.8" font-family="Helvetica,sans-Serif" font-size="11.00">add_commutative :: Commutative</text>
<text text-anchor="start" x="661.75" y="-1011.3" font-family="Helvetica,sans-Serif" font-size="11.00">is_left_distributive :: LeftDistributive</text>
<text text-anchor="start" x="661.75" y="-997.8" font-family="Helvetica,sans-Serif" font-size="11.00">is_right_distributive :: RightDistributive</text>
<text text-anchor="start" x="661.75" y="-984.3" font-family="Helvetica,sans-Serif" font-size="11.00">mul_zero_left :: LeftAbsorbing</text>
<text text-anchor="start" x="661.75" y="-970.8" font-family="Helvetica,sans-Serif" font-size="11.00">mul_zero_right :: RightAbsorbing</text>
</a>
</g>
</g>
<!-- Semiring&#45;&gt;Monoid -->
<g id="edge5" class="edge">
<title>Semiring&#45;&gt;Monoid</title>
<path fill="none" stroke="black" d="M700.69,-1061.1C677.52,-1077.34 652.11,-1095.13 630.77,-1110.08"/>
<polygon fill="none" stroke="black" points="629.01,-1107.05 622.82,-1115.65 633.02,-1112.78 629.01,-1107.05"/>
<text text-anchor="middle" x="692.05" y="-1085.95" font-family="Helvetica,sans-Serif" font-size="9.00" fill="#666666">add_monoid</text>
</g>
<!-- Semiring&#45;&gt;Monoid -->
<g id="edge6" class="edge">
<title>Semiring&#45;&gt;Monoid</title>
<path fill="none" stroke="black" d="M750.08,-1060.9C743.35,-1073.17 734.72,-1085.45 724,-1094.5 713.02,-1103.76 700.21,-1111.34 686.86,-1117.53"/>
<polygon fill="none" stroke="black" points="685.73,-1114.21 677.95,-1121.4 688.52,-1120.63 685.73,-1114.21"/>
<text text-anchor="middle" x="762.33" y="-1085.95" font-family="Helvetica,sans-Serif" font-size="9.00" fill="#666666">mul_monoid</text>
</g>
<!-- CommSemiring -->
<g id="node7" class="node">
<title>CommSemiring</title>
<g id="a_node7"><a xlink:href="theories/Structure/Semiring.v" xlink:title="theories/Structure/Semiring.v">
<polygon fill="none" stroke="black" points="849.25,-837.5 849.25,-880.5 1052.75,-880.5 1052.75,-837.5 849.25,-837.5"/>
<text text-anchor="middle" x="951" y="-866.05" font-family="Helvetica,sans-Serif" font-size="11.00">CommSemiring</text>
<polyline fill="none" stroke="black" points="849.25,-859 1052.75,-859"/>
<text text-anchor="start" x="857.25" y="-844.55" font-family="Helvetica,sans-Serif" font-size="11.00">mul_commutative :: Commutative</text>
</a>
</g>
</g>
<!-- CommSemiring&#45;&gt;Semiring -->
<g id="edge7" class="edge">
<title>CommSemiring&#45;&gt;Semiring</title>
<path fill="none" stroke="black" d="M926.08,-880.71C902.76,-900.09 866.89,-929.9 835.31,-956.14"/>
<polygon fill="none" stroke="black" points="833.15,-953.39 827.7,-962.47 837.63,-958.77 833.15,-953.39"/>
<text text-anchor="middle" x="884.96" y="-932.7" font-family="Helvetica,sans-Serif" font-size="9.00" fill="#666666">semiring</text>
</g>
<!-- Peano -->
<g id="node8" class="node">
<title>Peano</title>
<g id="a_node8"><a xlink:href="theories/Structure/Peano.v" xlink:title="theories/Structure/Peano.v">
<polygon fill="none" stroke="black" points="668.5,-810.5 668.5,-907.5 831.5,-907.5 831.5,-810.5 668.5,-810.5"/>
<text text-anchor="middle" x="750" y="-893.05" font-family="Helvetica,sans-Serif" font-size="11.00">Peano</text>
<polyline fill="none" stroke="black" points="668.5,-886 831.5,-886"/>
<text text-anchor="start" x="676.5" y="-871.55" font-family="Helvetica,sans-Serif" font-size="11.00">equivalence :: Equivalence</text>
<text text-anchor="start" x="676.5" y="-858.05" font-family="Helvetica,sans-Serif" font-size="11.00">succ_proper :: Proper</text>
<text text-anchor="start" x="676.5" y="-844.55" font-family="Helvetica,sans-Serif" font-size="11.00">succ_injective :: Injective</text>
<text text-anchor="start" x="676.5" y="-831.05" font-family="Helvetica,sans-Serif" font-size="11.00">succ_not_zero</text>
<text text-anchor="start" x="676.5" y="-817.55" font-family="Helvetica,sans-Serif" font-size="11.00">nat_induction</text>
</a>
</g>
</g>
<!-- PeanoArith -->
<g id="node9" class="node">
<title>PeanoArith</title>
<g id="a_node9"><a xlink:href="theories/Structure/PeanoArith.v" xlink:title="theories/Structure/PeanoArith.v">
<polygon fill="none" stroke="black" points="685.75,-630.25 685.75,-754.25 814.25,-754.25 814.25,-630.25 685.75,-630.25"/>
<text text-anchor="middle" x="750" y="-739.8" font-family="Helvetica,sans-Serif" font-size="11.00">PeanoArith</text>
<polyline fill="none" stroke="black" points="685.75,-732.75 814.25,-732.75"/>
<text text-anchor="start" x="693.75" y="-718.3" font-family="Helvetica,sans-Serif" font-size="11.00">add_proper :: Proper</text>
<text text-anchor="start" x="693.75" y="-704.8" font-family="Helvetica,sans-Serif" font-size="11.00">mul_proper :: Proper</text>
<text text-anchor="start" x="693.75" y="-691.3" font-family="Helvetica,sans-Serif" font-size="11.00">one_succ</text>
<text text-anchor="start" x="693.75" y="-677.8" font-family="Helvetica,sans-Serif" font-size="11.00">add_zero</text>
<text text-anchor="start" x="693.75" y="-664.3" font-family="Helvetica,sans-Serif" font-size="11.00">add_succ</text>
<text text-anchor="start" x="693.75" y="-650.8" font-family="Helvetica,sans-Serif" font-size="11.00">mul_zero</text>
<text text-anchor="start" x="693.75" y="-637.3" font-family="Helvetica,sans-Serif" font-size="11.00">mul_succ</text>
</a>
</g>
</g>
<!-- PeanoArith&#45;&gt;Peano -->
<g id="edge8" class="edge">
<title>PeanoArith&#45;&gt;Peano</title>
<path fill="none" stroke="black" d="M750,-754.6C750,-769.11 750,-784.55 750,-798.95"/>
<polygon fill="none" stroke="black" points="746.5,-798.73 750,-808.73 753.5,-798.73 746.5,-798.73"/>
<text text-anchor="middle" x="763.88" y="-779.45" font-family="Helvetica,sans-Serif" font-size="9.00" fill="#666666">peano</text>
</g>
<!-- Naturals -->
<g id="node10" class="node">
<title>Naturals</title>
<g id="a_node10"><a xlink:href="theories/Structure/Naturals.v" xlink:title="theories/Structure/Naturals.v">
<polygon fill="none" stroke="black" points="917.88,-670.75 917.88,-713.75 984.12,-713.75 984.12,-670.75 917.88,-670.75"/>
<text text-anchor="middle" x="951" y="-699.3" font-family="Helvetica,sans-Serif" font-size="11.00">Naturals</text>
<polyline fill="none" stroke="black" points="917.88,-692.25 984.12,-692.25"/>
<text text-anchor="start" x="925.88" y="-677.8" font-family="Helvetica,sans-Serif" font-size="11.00">succ_add</text>
</a>
</g>
</g>
<!-- Naturals&#45;&gt;CommSemiring -->
<g id="edge10" class="edge">
<title>Naturals&#45;&gt;CommSemiring</title>
<path fill="none" stroke="black" d="M951,-714.12C951,-742.26 951,-792.67 951,-825.72"/>
<polygon fill="none" stroke="black" points="947.5,-825.53 951,-835.53 954.5,-825.53 947.5,-825.53"/>
<text text-anchor="middle" x="970.5" y="-779.45" font-family="Helvetica,sans-Serif" font-size="9.00" fill="#666666">semiring</text>
</g>
<!-- Naturals&#45;&gt;Peano -->
<g id="edge9" class="edge">
<title>Naturals&#45;&gt;Peano</title>
<path fill="none" stroke="black" d="M925.54,-714.12C898.45,-736.32 854.46,-772.38 817.3,-802.84"/>
<polygon fill="none" stroke="black" points="815.19,-800.04 809.67,-809.09 819.63,-805.46 815.19,-800.04"/>
<text text-anchor="middle" x="858.35" y="-779.45" font-family="Helvetica,sans-Serif" font-size="9.00" fill="#666666">peano</text>
</g>
<!-- NatOrder -->
<g id="node11" class="node">
<title>NatOrder</title>
<g id="a_node11"><a xlink:href="theories/Structure/NatOrder.v" xlink:title="theories/Structure/NatOrder.v">
<polygon fill="none" stroke="black" points="974,-504 974,-560.5 1092,-560.5 1092,-504 974,-504"/>
<text text-anchor="middle" x="1033" y="-546.05" font-family="Helvetica,sans-Serif" font-size="11.00">NatOrder</text>
<polyline fill="none" stroke="black" points="974,-539 1092,-539"/>
<text text-anchor="start" x="982" y="-524.55" font-family="Helvetica,sans-Serif" font-size="11.00">le_proper :: Proper</text>
<text text-anchor="start" x="982" y="-511.05" font-family="Helvetica,sans-Serif" font-size="11.00">le_add</text>
</a>
</g>
</g>
<!-- NatOrder&#45;&gt;Naturals -->
<g id="edge11" class="edge">
<title>NatOrder&#45;&gt;Naturals</title>
<path fill="none" stroke="black" stroke-dasharray="5,2" d="M1018.72,-560.77C1004.25,-588.65 981.92,-631.67 966.9,-660.61"/>
<polygon fill="none" stroke="black" points="963.92,-658.75 962.42,-669.24 970.14,-661.98 963.92,-658.75"/>
</g>
<!-- Ring -->
<g id="node12" class="node">
<title>Ring</title>
<g id="a_node12"><a xlink:href="theories/Structure/Ring.v" xlink:title="theories/Structure/Ring.v">
<polygon fill="none" stroke="black" points="343.75,-664 343.75,-720.5 574.25,-720.5 574.25,-664 343.75,-664"/>
<text text-anchor="middle" x="459" y="-706.05" font-family="Helvetica,sans-Serif" font-size="11.00">Ring</text>
<polyline fill="none" stroke="black" points="343.75,-699 574.25,-699"/>
<text text-anchor="start" x="351.75" y="-684.55" font-family="Helvetica,sans-Serif" font-size="11.00">is_left_distributive :: LeftDistributive</text>
<text text-anchor="start" x="351.75" y="-671.05" font-family="Helvetica,sans-Serif" font-size="11.00">is_right_distributive :: RightDistributive</text>
</a>
</g>
</g>
<!-- Ring&#45;&gt;Monoid -->
<g id="edge13" class="edge">
<title>Ring&#45;&gt;Monoid</title>
<path fill="none" stroke="black" d="M448.23,-720.58C424.69,-785.07 375.77,-949.71 441,-1061.25 453.44,-1082.51 473.62,-1098.9 494.89,-1111.26"/>
<polygon fill="none" stroke="black" points="492.94,-1114.18 503.38,-1115.94 496.31,-1108.05 492.94,-1114.18"/>
<text text-anchor="middle" x="436.43" y="-932.7" font-family="Helvetica,sans-Serif" font-size="9.00" fill="#666666">mul_monoid</text>
</g>
<!-- Ring&#45;&gt;AbGroup -->
<g id="edge12" class="edge">
<title>Ring&#45;&gt;AbGroup</title>
<path fill="none" stroke="black" d="M473.06,-720.83C488.02,-750.16 511.62,-796.46 527.21,-827.03"/>
<polygon fill="none" stroke="black" points="524.01,-828.47 531.67,-835.79 530.25,-825.29 524.01,-828.47"/>
<text text-anchor="middle" x="525.15" y="-779.45" font-family="Helvetica,sans-Serif" font-size="9.00" fill="#666666">abgroup</text>
</g>
<!-- RingHom -->
<g id="node13" class="node">
<title>RingHom</title>
<g id="a_node13"><a xlink:href="theories/Structure/RingHom.v" xlink:title="theories/Structure/RingHom.v">
<polygon fill="none" stroke="black" points="776.25,-490.5 776.25,-574 955.75,-574 955.75,-490.5 776.25,-490.5"/>
<text text-anchor="middle" x="866" y="-559.55" font-family="Helvetica,sans-Serif" font-size="11.00">RingHom</text>
<polyline fill="none" stroke="black" points="776.25,-552.5 955.75,-552.5"/>
<text text-anchor="start" x="784.25" y="-538.05" font-family="Helvetica,sans-Serif" font-size="11.00">hom_proper :: Proper</text>
<text text-anchor="start" x="784.25" y="-524.55" font-family="Helvetica,sans-Serif" font-size="11.00">hom_additive :: Additive</text>
<text text-anchor="start" x="784.25" y="-511.05" font-family="Helvetica,sans-Serif" font-size="11.00">hom_multiplicative :: Additive</text>
<text text-anchor="start" x="784.25" y="-497.55" font-family="Helvetica,sans-Serif" font-size="11.00">hom_one</text>
</a>
</g>
</g>
<!-- Field -->
<g id="node14" class="node">
<title>Field</title>
<g id="a_node14"><a xlink:href="theories/Structure/Field.v" xlink:title="theories/Structure/Field.v">
<polygon fill="none" stroke="black" points="318.12,-490.5 318.12,-574 535.88,-574 535.88,-490.5 318.12,-490.5"/>
<text text-anchor="middle" x="427" y="-559.55" font-family="Helvetica,sans-Serif" font-size="11.00">Field</text>
<polyline fill="none" stroke="black" points="318.12,-552.5 535.88,-552.5"/>
<text text-anchor="start" x="326.12" y="-538.05" font-family="Helvetica,sans-Serif" font-size="11.00">inv_proper :: Proper</text>
<text text-anchor="start" x="326.12" y="-524.55" font-family="Helvetica,sans-Serif" font-size="11.00">is_mul_commutative :: Commutative</text>
<text text-anchor="start" x="326.12" y="-511.05" font-family="Helvetica,sans-Serif" font-size="11.00">is_mul_left_inverse :: LeftInverseOn</text>
<text text-anchor="start" x="326.12" y="-497.55" font-family="Helvetica,sans-Serif" font-size="11.00">nontrivial</text>
</a>
</g>
</g>
<!-- Field&#45;&gt;Ring -->
<g id="edge14" class="edge">
<title>Field&#45;&gt;Ring</title>
<path fill="none" stroke="black" d="M435.32,-574.35C440.23,-598.55 446.39,-628.97 451.2,-652.71"/>
<polygon fill="none" stroke="black" points="447.72,-653.19 453.14,-662.29 454.58,-651.8 447.72,-653.19"/>
<text text-anchor="middle" x="451.04" y="-599.2" font-family="Helvetica,sans-Serif" font-size="9.00" fill="#666666">ring</text>
</g>
<!-- MinusOneNotASquare -->
<g id="node15" class="node">
<title>MinusOneNotASquare</title>
<g id="a_node15"><a xlink:href="theories/Structure/MinusOneNotASquare.v" xlink:title="theories/Structure/MinusOneNotASquare.v">
<polygon fill="none" stroke="black" points="610,-323.75 610,-366.75 746,-366.75 746,-323.75 610,-323.75"/>
<text text-anchor="middle" x="678" y="-352.3" font-family="Helvetica,sans-Serif" font-size="11.00">MinusOneNotASquare</text>
<polyline fill="none" stroke="black" points="610,-345.25 746,-345.25"/>
<text text-anchor="start" x="618" y="-330.8" font-family="Helvetica,sans-Serif" font-size="11.00">two_squares_vanish</text>
</a>
</g>
</g>
<!-- MinusOneNotASquare&#45;&gt;Field -->
<g id="edge15" class="edge">
<title>MinusOneNotASquare&#45;&gt;Field</title>
<path fill="none" stroke="black" stroke-dasharray="5,2" d="M663.23,-367.06C648.88,-386.27 625.69,-414.76 601,-434.75 577.91,-453.45 550.69,-470.47 524.73,-484.84"/>
<polygon fill="none" stroke="black" points="523.29,-481.64 516.18,-489.49 526.64,-487.79 523.29,-481.64"/>
</g>
<!-- ScaleLaws -->
<g id="node16" class="node">
<title>ScaleLaws</title>
<g id="a_node16"><a xlink:href="theories/Structure/VectorSpace.v" xlink:title="theories/Structure/VectorSpace.v">
<polygon fill="none" stroke="black" points="137.75,-296.75 137.75,-393.75 368.25,-393.75 368.25,-296.75 137.75,-296.75"/>
<text text-anchor="middle" x="253" y="-379.3" font-family="Helvetica,sans-Serif" font-size="11.00">ScaleLaws</text>
<polyline fill="none" stroke="black" points="137.75,-372.25 368.25,-372.25"/>
<text text-anchor="start" x="145.75" y="-357.8" font-family="Helvetica,sans-Serif" font-size="11.00">scale_proper :: Proper</text>
<text text-anchor="start" x="145.75" y="-344.3" font-family="Helvetica,sans-Serif" font-size="11.00">is_left_distributive :: LeftDistributive</text>
<text text-anchor="start" x="145.75" y="-330.8" font-family="Helvetica,sans-Serif" font-size="11.00">is_right_distributive :: RightDistributive</text>
<text text-anchor="start" x="145.75" y="-317.3" font-family="Helvetica,sans-Serif" font-size="11.00">is_associative :: Associative</text>
<text text-anchor="start" x="145.75" y="-303.8" font-family="Helvetica,sans-Serif" font-size="11.00">is_left_identity :: LeftIdentity</text>
</a>
</g>
</g>
<!-- ScaleLaws&#45;&gt;Field -->
<g id="edge16" class="edge">
<title>ScaleLaws&#45;&gt;Field</title>
<path fill="none" stroke="black" stroke-dasharray="5,2" d="M297.81,-393.89C323.18,-420.86 354.86,-454.55 380.5,-481.81"/>
<polygon fill="none" stroke="black" points="377.81,-484.06 387.22,-488.95 382.91,-479.27 377.81,-484.06"/>
</g>
<!-- VectorSpace -->
<g id="node17" class="node">
<title>VectorSpace</title>
<g id="a_node17"><a xlink:href="theories/Structure/VectorSpace.v" xlink:title="theories/Structure/VectorSpace.v">
<polygon fill="none" stroke="black" points="67.88,-147 67.88,-183 152.12,-183 152.12,-147 67.88,-147"/>
<text text-anchor="middle" x="110" y="-161.55" font-family="Helvetica,sans-Serif" font-size="11.00">VectorSpace</text>
</a>
</g>
</g>
<!-- VectorSpace&#45;&gt;AbGroup -->
<g id="edge17" class="edge">
<title>VectorSpace&#45;&gt;AbGroup</title>
<path fill="none" stroke="black" d="M103.41,-183.09C99.34,-194.18 94.29,-209.03 91,-222.5 78,-275.7 72,-289.48 72,-344.25 72,-344.25 72,-344.25 72,-693.25 72,-769.79 296.43,-819.17 435.45,-842.41"/>
<polygon fill="none" stroke="black" points="434.62,-845.82 445.06,-843.99 435.76,-838.91 434.62,-845.82"/>
<text text-anchor="middle" x="88.5" y="-529.33" font-family="Helvetica,sans-Serif" font-size="9.00" fill="#666666">vectors</text>
</g>
<!-- VectorSpace&#45;&gt;Field -->
<g id="edge19" class="edge">
<title>VectorSpace&#45;&gt;Field</title>
<path fill="none" stroke="black" stroke-dasharray="5,2" d="M105.26,-183.39C93.73,-229.85 69.32,-358.5 129,-434.75 171.13,-488.58 243.74,-512.81 306.73,-523.54"/>
<polygon fill="none" stroke="black" points="306.05,-526.97 316.47,-525.09 307.15,-520.06 306.05,-526.97"/>
</g>
<!-- VectorSpace&#45;&gt;ScaleLaws -->
<g id="edge18" class="edge">
<title>VectorSpace&#45;&gt;ScaleLaws</title>
<path fill="none" stroke="black" d="M123.97,-183.42C143.15,-207.32 178.53,-251.43 207.4,-287.42"/>
<polygon fill="none" stroke="black" points="204.66,-289.58 213.64,-295.19 210.12,-285.2 204.66,-289.58"/>
<text text-anchor="middle" x="176.09" y="-225.2" font-family="Helvetica,sans-Serif" font-size="9.00" fill="#666666">scaling</text>
</g>
<!-- Linear -->
<g id="node18" class="node">
<title>Linear</title>
<g id="a_node18"><a xlink:href="theories/Structure/Linear.v" xlink:title="theories/Structure/Linear.v">
<polygon fill="none" stroke="black" points="238.38,-7.25 238.38,-77.25 439.62,-77.25 439.62,-7.25 238.38,-7.25"/>
<text text-anchor="middle" x="339" y="-62.8" font-family="Helvetica,sans-Serif" font-size="11.00">Linear</text>
<polyline fill="none" stroke="black" points="238.38,-55.75 439.62,-55.75"/>
<text text-anchor="start" x="246.38" y="-41.3" font-family="Helvetica,sans-Serif" font-size="11.00">proper :: Proper</text>
<text text-anchor="start" x="246.38" y="-27.8" font-family="Helvetica,sans-Serif" font-size="11.00">is_additive :: Additive</text>
<text text-anchor="start" x="246.38" y="-14.3" font-family="Helvetica,sans-Serif" font-size="11.00">is_homogeneous :: Homogeneous</text>
</a>
</g>
</g>
<!-- InnerProductSpace -->
<g id="node19" class="node">
<title>InnerProductSpace</title>
<g id="a_node19"><a xlink:href="theories/Structure/InnerProductSpace.v" xlink:title="theories/Structure/InnerProductSpace.v">
<polygon fill="none" stroke="black" points="0,-0.5 0,-84 220,-84 220,-0.5 0,-0.5"/>
<text text-anchor="middle" x="110" y="-69.55" font-family="Helvetica,sans-Serif" font-size="11.00">InnerProductSpace</text>
<polyline fill="none" stroke="black" points="0,-62.5 220,-62.5"/>
<text text-anchor="start" x="8" y="-48.05" font-family="Helvetica,sans-Serif" font-size="11.00">inner_proper :: Proper</text>
<text text-anchor="start" x="8" y="-34.55" font-family="Helvetica,sans-Serif" font-size="11.00">inner_additive :: Additive</text>
<text text-anchor="start" x="8" y="-21.05" font-family="Helvetica,sans-Serif" font-size="11.00">inner_homogeneous :: Homogeneous</text>
<text text-anchor="start" x="8" y="-7.55" font-family="Helvetica,sans-Serif" font-size="11.00">is_commutative :: Commutative</text>
</a>
</g>
</g>
<!-- InnerProductSpace&#45;&gt;VectorSpace -->
<g id="edge20" class="edge">
<title>InnerProductSpace&#45;&gt;VectorSpace</title>
<path fill="none" stroke="black" stroke-dasharray="5,2" d="M110,-84.47C110,-101.18 110,-120.08 110,-135.26"/>
<polygon fill="none" stroke="black" points="106.5,-135.01 110,-145.01 113.5,-135.01 106.5,-135.01"/>
</g>
<!-- Integers -->
<g id="node20" class="node">
<title>Integers</title>
<g id="a_node20"><a xlink:href="theories/Structure/Integers.v" xlink:title="theories/Structure/Integers.v">
<polygon fill="none" stroke="black" points="554.25,-504 554.25,-560.5 757.75,-560.5 757.75,-504 554.25,-504"/>
<text text-anchor="middle" x="656" y="-546.05" font-family="Helvetica,sans-Serif" font-size="11.00">Integers</text>
<polyline fill="none" stroke="black" points="554.25,-539 757.75,-539"/>
<text text-anchor="start" x="562.25" y="-524.55" font-family="Helvetica,sans-Serif" font-size="11.00">mul_commutative :: Commutative</text>
<text text-anchor="start" x="562.25" y="-511.05" font-family="Helvetica,sans-Serif" font-size="11.00">int_induction</text>
</a>
</g>
</g>
<!-- Integers&#45;&gt;Ring -->
<g id="edge21" class="edge">
<title>Integers&#45;&gt;Ring</title>
<path fill="none" stroke="black" d="M621.69,-560.77C588.56,-587.34 538.27,-627.68 502.38,-656.46"/>
<polygon fill="none" stroke="black" points="500.37,-653.58 494.76,-662.57 504.75,-659.04 500.37,-653.58"/>
<text text-anchor="middle" x="584.14" y="-599.2" font-family="Helvetica,sans-Serif" font-size="9.00" fill="#666666">ring</text>
</g>
<!-- Rationals -->
<g id="node21" class="node">
<title>Rationals</title>
<g id="a_node21"><a xlink:href="theories/Structure/Rationals.v" xlink:title="theories/Structure/Rationals.v">
<polygon fill="none" stroke="black" points="763.75,-317 763.75,-373.5 916.25,-373.5 916.25,-317 763.75,-317"/>
<text text-anchor="middle" x="840" y="-359.05" font-family="Helvetica,sans-Serif" font-size="11.00">Rationals</text>
<polyline fill="none" stroke="black" points="763.75,-352 916.25,-352"/>
<text text-anchor="start" x="771.75" y="-337.55" font-family="Helvetica,sans-Serif" font-size="11.00">cast_injective :: Injective</text>
<text text-anchor="start" x="771.75" y="-324.05" font-family="Helvetica,sans-Serif" font-size="11.00">is_fraction</text>
</a>
</g>
</g>
<!-- Rationals&#45;&gt;RingHom -->
<g id="edge22" class="edge">
<title>Rationals&#45;&gt;RingHom</title>
<path fill="none" stroke="black" d="M843.89,-373.95C847.79,-401.66 853.87,-444.96 858.67,-479.13"/>
<polygon fill="none" stroke="black" points="855.18,-479.41 860.04,-488.83 862.11,-478.44 855.18,-479.41"/>
<text text-anchor="middle" x="878.6" y="-459.45" font-family="Helvetica,sans-Serif" font-size="9.00" fill="#666666">cast_hom</text>
</g>
<!-- Rationals&#45;&gt;Field -->
<g id="edge23" class="edge">
<title>Rationals&#45;&gt;Field</title>
<path fill="none" stroke="black" stroke-dasharray="5,2" d="M820.29,-373.73C804.71,-393.51 781.26,-419.31 755,-434.75 674.89,-481.84 639.92,-463.3 547.18,-489.5"/>
<polygon fill="none" stroke="black" points="546.25,-486.13 537.64,-492.31 548.22,-492.84 546.25,-486.13"/>
</g>
<!-- Rationals&#45;&gt;Integers -->
<g id="edge24" class="edge">
<title>Rationals&#45;&gt;Integers</title>
<path fill="none" stroke="black" stroke-dasharray="5,2" d="M827.38,-373.77C814.19,-400.3 791.45,-440.39 763,-468 751.42,-479.23 737.49,-489.3 723.55,-497.92"/>
<polygon fill="none" stroke="black" points="722.03,-494.75 715.23,-502.88 725.61,-500.77 722.03,-494.75"/>
</g>
<!-- OrderedField -->
<g id="node22" class="node">
<title>OrderedField</title>
<g id="a_node22"><a xlink:href="theories/Structure/Order.v" xlink:title="theories/Structure/Order.v">
<polygon fill="none" stroke="black" points="386.12,-256.25 386.12,-434.25 591.88,-434.25 591.88,-256.25 386.12,-256.25"/>
<text text-anchor="middle" x="489" y="-419.8" font-family="Helvetica,sans-Serif" font-size="11.00">OrderedField</text>
<polyline fill="none" stroke="black" points="386.12,-412.75 591.88,-412.75"/>
<text text-anchor="start" x="394.12" y="-398.3" font-family="Helvetica,sans-Serif" font-size="11.00">le_proper :: Proper</text>
<text text-anchor="start" x="394.12" y="-384.8" font-family="Helvetica,sans-Serif" font-size="11.00">abs_proper :: Proper</text>
<text text-anchor="start" x="394.12" y="-371.3" font-family="Helvetica,sans-Serif" font-size="11.00">le_reflexive :: Reflexive</text>
<text text-anchor="start" x="394.12" y="-357.8" font-family="Helvetica,sans-Serif" font-size="11.00">le_transitive :: Transitive</text>
<text text-anchor="start" x="394.12" y="-344.3" font-family="Helvetica,sans-Serif" font-size="11.00">le_antisymmetric :: Antisymmetric</text>
<text text-anchor="start" x="394.12" y="-330.8" font-family="Helvetica,sans-Serif" font-size="11.00">le_total</text>
<text text-anchor="start" x="394.12" y="-317.3" font-family="Helvetica,sans-Serif" font-size="11.00">le_stable</text>
<text text-anchor="start" x="394.12" y="-303.8" font-family="Helvetica,sans-Serif" font-size="11.00">add_le_mono_l</text>
<text text-anchor="start" x="394.12" y="-290.3" font-family="Helvetica,sans-Serif" font-size="11.00">mul_nonneg</text>
<text text-anchor="start" x="394.12" y="-276.8" font-family="Helvetica,sans-Serif" font-size="11.00">abs_of_nonneg</text>
<text text-anchor="start" x="394.12" y="-263.3" font-family="Helvetica,sans-Serif" font-size="11.00">abs_neg</text>
</a>
</g>
</g>
<!-- OrderedField&#45;&gt;Field -->
<g id="edge25" class="edge">
<title>OrderedField&#45;&gt;Field</title>
<path fill="none" stroke="black" stroke-dasharray="5,2" d="M459.36,-434.69C454.2,-450.08 448.99,-465.62 444.31,-479.61"/>
<polygon fill="none" stroke="black" points="441.01,-478.43 441.15,-489.02 447.65,-480.65 441.01,-478.43"/>
</g>
<!-- Reals -->
<g id="node23" class="node">
<title>Reals</title>
<g id="a_node23"><a xlink:href="theories/Structure/Reals.v" xlink:title="theories/Structure/Reals.v">
<polygon fill="none" stroke="black" points="397.5,-143.5 397.5,-186.5 464.5,-186.5 464.5,-143.5 397.5,-143.5"/>
<text text-anchor="middle" x="431" y="-172.05" font-family="Helvetica,sans-Serif" font-size="11.00">Reals</text>
<polyline fill="none" stroke="black" points="397.5,-165 464.5,-165"/>
<text text-anchor="start" x="405.5" y="-150.55" font-family="Helvetica,sans-Serif" font-size="11.00">complete</text>
</a>
</g>
</g>
<!-- Reals&#45;&gt;OrderedField -->
<g id="edge26" class="edge">
<title>Reals&#45;&gt;OrderedField</title>
<path fill="none" stroke="black" stroke-dasharray="5,2" d="M437.77,-186.8C442.62,-201.71 449.55,-223.01 456.75,-245.14"/>
<polygon fill="none" stroke="black" points="453.41,-246.18 459.83,-254.61 460.07,-244.01 453.41,-246.18"/>
</g>
<!-- ApproxSqrt -->
<g id="node24" class="node">
<title>ApproxSqrt</title>
<g id="a_node24"><a xlink:href="theories/Structure/ApproxSqrt.v" xlink:title="theories/Structure/ApproxSqrt.v">
<polygon fill="none" stroke="black" points="482.5,-130 482.5,-200 609.5,-200 609.5,-130 482.5,-130"/>
<text text-anchor="middle" x="546" y="-185.55" font-family="Helvetica,sans-Serif" font-size="11.00">ApproxSqrt</text>
<polyline fill="none" stroke="black" points="482.5,-178.5 609.5,-178.5"/>
<text text-anchor="start" x="490.5" y="-164.05" font-family="Helvetica,sans-Serif" font-size="11.00">approx_sqrt_nonneg</text>
<text text-anchor="start" x="490.5" y="-150.55" font-family="Helvetica,sans-Serif" font-size="11.00">approx_sqrt_le</text>
<text text-anchor="start" x="490.5" y="-137.05" font-family="Helvetica,sans-Serif" font-size="11.00">approx_sqrt_close</text>
</a>
</g>
</g>
<!-- ApproxSqrt&#45;&gt;OrderedField -->
<g id="edge27" class="edge">
<title>ApproxSqrt&#45;&gt;OrderedField</title>
<path fill="none" stroke="black" stroke-dasharray="5,2" d="M535.01,-200.37C530.82,-213.48 525.8,-229.17 520.64,-245.3"/>
<polygon fill="none" stroke="black" points="517.41,-243.91 517.7,-254.5 524.08,-246.04 517.41,-243.91"/>
</g>
</g>
</svg>
